{
.appVersion = "1303";
copyright = "Copyright (c) 2008 by Jens Kutilek. All rights reserved.";
customParameters = (
{
name = note;
value = "Grid 60 x 60\01203/2008-10/2011";
},
{
name = vendorID;
value = JENS;
}
);
date = "2008-12-24 22:10:00 +0000";
designer = "Jens Kutilek";
designerURL = "https://www.kutilek.de/";
disablesAutomaticAlignment = 1;
disablesNiceNames = 1;
familyName = " Stecker Five";
featurePrefixes = (
{
code = "languagesystem DFLT dflt;\012\012languagesystem latn dflt;\012languagesystem latn AZE;\012languagesystem latn CRT;\012languagesystem latn TRK;";
name = Languagesystems;
}
);
features = (
{
code = "  script latn;\012  \012  language TRK exclude_dflt;\012  lookup locl_TRK {\012    sub i by i.LATN_TRK ;\012  } locl_TRK;\012  \012  language AZE exclude_dflt;\012  lookup locl_TRK;\012  \012  language CRT exclude_dflt;\012  lookup locl_TRK;";
name = locl;
},
{
code = "  sub f i by fi ;\012  sub f l by fl ;";
name = dlig;
},
{

glyphs = (
{
glyphname = A;
layers = (
{
anchors = (
{
name = top;
position = "{300, 600}";
}
);
hints = (
{
horizontal = 1;
origin = "{3, 2}";
target = up;
type = BottomGhost;
},
{
horizontal = 1;
origin = "{2, 2}";
target = "{2, 8}";
type = Stem;
},
{
horizontal = 1;
origin = "{9, 8}";
target = down;
type = TopGhost;
}
);
layerId = master01;
paths = (
{
closed = 1;
nodes = (
"302 148 OFFCURVE",
"328 122 OFFCURVE",
"360 122 CURVE SMOOTH",
"392 122 OFFCURVE",
"418 148 OFFCURVE",
"418 180 CURVE SMOOTH",
"418 212 OFFCURVE",
"392 238 OFFCURVE",
"360 238 CURVE SMOOTH",
"328 238 OFFCURVE",
"302 212 OFFCURVE",
"302 180 CURVE SMOOTH {name = hr00;}"
);
},
{
closed = 1;
nodes = (
"182 148 OFFCURVE",
"208 122 OFFCURVE",
"240 122 CURVE SMOOTH",
"272 122 OFFCURVE",
"298 148 OFFCURVE",
"298 180 CURVE SMOOTH",
"298 212 OFFCURVE",
"272 238 OFFCURVE",
"240 238 CURVE SMOOTH",
"208 238 OFFCURVE",
"182 212 OFFCURVE",
"182 180 CURVE SMOOTH"
);
},
{
closed = 1;
nodes = (
"62 148 OFFCURVE",
"88 122 OFFCURVE",
"120 122 CURVE SMOOTH",
"152 122 OFFCURVE",
"178 148 OFFCURVE",
"178 180 CURVE SMOOTH",
"178 212 OFFCURVE",
"152 238 OFFCURVE",
"120 238 CURVE SMOOTH",
"88 238 OFFCURVE",
"62 212 OFFCURVE",
"62 180 CURVE SMOOTH"
);
},
{
closed = 1;
nodes = (
"2 28 OFFCURVE",
"28 2 OFFCURVE",
"60 2 CURVE SMOOTH",
"92 2 OFFCURVE",
"118 28 OFFCURVE",
"118 60 CURVE SMOOTH",
"118 92 OFFCURVE",
"92 118 OFFCURVE",
"60 118 CURVE SMOOTH",
"28 118 OFFCURVE",
"2 92 OFFCURVE",
"2 60 CURVE SMOOTH"
);
},
{
closed = 1;
nodes = (
"422 148 OFFCURVE",
"448 122 OFFCURVE",
"480 122 CURVE SMOOTH",
"512 122 OFFCURVE",
"538 148 OFFCURVE",
"538 180 CURVE SMOOTH",
"538 212 OFFCURVE",
"512 238 OFFCURVE",
"480 238 CURVE SMOOTH",
"448 238 OFFCURVE",
"422 212 OFFCURVE",
"422 180 CURVE SMOOTH"
);
},
{
closed = 1;
nodes = (
"482 28 OFFCURVE",
"508 2 OFFCURVE",
"540 2 CURVE SMOOTH",
"572 2 OFFCURVE",
"598 28 OFFCURVE",
"598 60 CURVE SMOOTH",
"598 92 OFFCURVE",
"572 118 OFFCURVE",
"540 118 CURVE SMOOTH",
"508 118 OFFCURVE",
"482 92 OFFCURVE",
"482 60 CURVE SMOOTH"
);
},
{
closed = 1;
nodes = (
"302 388 OFFCURVE",
"328 362 OFFCURVE",
"360 362 CURVE SMOOTH",
"392 362 OFFCURVE",
"418 388 OFFCURVE",
"418 420 CURVE SMOOTH",
"418 452 OFFCURVE",
"392 478 OFFCURVE",
"360 478 CURVE SMOOTH",
"328 478 OFFCURVE",
"302 452 OFFCURVE",
"302 420 CURVE SMOOTH"
);
},
{
closed = 1;
nodes = (
"362 268 OFFCURVE",
"388 242 OFFCURVE",
"420 242 CURVE SMOOTH",
"452 242 OFFCURVE",
"478 268 OFFCURVE",
"478 300 CURVE SMOOTH",
"478 332 OFFCURVE",
"452 358 OFFCURVE",
"420 358 CURVE SMOOTH",
"388 358 OFFCURVE",
"362 332 OFFCURVE",
"362 300 CURVE SMOOTH"
);
},
{
closed = 1;
nodes = (
"182 388 OFFCURVE",
"208 362 OFFCURVE",
"240 362 CURVE SMOOTH",
"272 362 OFFCURVE",
"298 388 OFFCURVE",
"298 420 CURVE SMOOTH",
"298 452 OFFCURVE",
"272 478 OFFCURVE",
"240 478 CURVE SMOOTH",
"208 478 OFFCURVE",
"182 452 OFFCURVE",
"182 420 CURVE SMOOTH"
);
},
{
closed = 1;
nodes = (
"242 508 OFFCURVE",
"268 482 OFFCURVE",
"300 482 CURVE SMOOTH",
"332 482 OFFCURVE",
"358 508 OFFCURVE",
"358 540 CURVE SMOOTH",
"358 572 OFFCURVE",
"332 598 OFFCURVE",
"300 598 CURVE SMOOTH",
"268 598 OFFCURVE",
"242 572 OFFCURVE",
"242 540 CURVE SMOOTH"
);
},
{
closed = 1;
nodes = (
"122 268 OFFCURVE",
"148 242 OFFCURVE",
"180 242 CURVE SMOOTH",
"212 242 OFFCURVE",
"238 268 OFFCURVE",
"238 300 CURVE SMOOTH",
"238 332 OFFCURVE",
"212 358 OFFCURVE",
"180 358 CURVE SMOOTH",
"148 358 OFFCURVE",
"122 332 OFFCURVE",
"122 300 CURVE SMOOTH"
);
}
);
width = 600;
}
);
leftKerningGroup = A;
rightKerningGroup = A;
unicode = 0041;
},
{
glyphname = Aring;
layers = (
{
hints = (
{
horizontal = 1;
origin = "{3, 2}";
target = up;
type = BottomGhost;
},
{
horizontal = 1;
origin = "{2, 2}";
target = "{2, 8}";
type = Stem;
},
{
horizontal = 1;
origin = "{8, 2}";
target = "{8, 8}";
type = Stem;
},
{
horizontal = 1;
origin = "{13, 8}";
target = "{13, 2}";
type = Stem;
},
{
origin = "{7, 5}";
target = "{7, 11}";
type = Stem;
}
);
layerId = master01;
paths = (
{
closed = 1;
nodes = (
"302 148 OFFCURVE",
"328 122 OFFCURVE",
"360 122 CURVE SMOOTH",
"392 122 OFFCURVE",
"418 148 OFFCURVE",
"418 180 CURVE SMOOTH",
"418 212 OFFCURVE",
"392 238 OFFCURVE",
"360 238 CURVE SMOOTH",
"328 238 OFFCURVE",
"302 212 OFFCURVE",
"302 180 CURVE SMOOTH {name = hr00;}"
);
},
{
closed = 1;
nodes = (
"182 148 OFFCURVE",
"208 122 OFFCURVE",
"240 122 CURVE SMOOTH",
"272 122 OFFCURVE",
"298 148 OFFCURVE",
"298 180 CURVE SMOOTH",
"298 212 OFFCURVE",
"272 238 OFFCURVE",
"240 238 CURVE SMOOTH",
"208 238 OFFCURVE",
"182 212 OFFCURVE",
"182 180 CURVE SMOOTH"
);
},
{
closed = 1;
nodes = (
"62 148 OFFCURVE",
"88 122 OFFCURVE",
"120 122 CURVE SMOOTH",
"152 122 OFFCURVE",
"178 148 OFFCURVE",
"178 180 CURVE SMOOTH",
"178 212 OFFCURVE",
"152 238 OFFCURVE",
"120 238 CURVE SMOOTH",
"88 238 OFFCURVE",
"62 212 OFFCURVE",
"62 180 CURVE SMOOTH"
);
},
{
closed = 1;
nodes = (
"2 28 OFFCURVE",
"28 2 OFFCURVE",
"60 2 CURVE SMOOTH",
"92 2 OFFCURVE",
"118 28 OFFCURVE",
"118 60 CURVE SMOOTH",
"118 92 OFFCURVE",
"92 118 OFFCURVE",
"60 118 CURVE SMOOTH",
"28 118 OFFCURVE",
"2 92 OFFCURVE",
"2 60 CURVE SMOOTH"
);
},
{
closed = 1;
nodes = (
"422 148 OFFCURVE",
"448 122 OFFCURVE",
"480 122 CURVE SMOOTH",
"512 122 OFFCURVE",
"538 148 OFFCURVE",
"538 180 CURVE SMOOTH",
"538 212 OFFCURVE",
"512 238 OFFCURVE",
"480 238 CURVE SMOOTH",
"448 238 OFFCURVE",
"422 212 OFFCURVE",
"422 180 CURVE SMOOTH"
);
},
{
closed = 1;
nodes = (
"482 28 OFFCURVE",
"508 2 OFFCURVE",
"540 2 CURVE SMOOTH",
"572 2 OFFCURVE",
"598 28 OFFCURVE",
"598 60 CURVE SMOOTH",
"598 92 OFFCURVE",
"572 118 OFFCURVE",
"540 118 CURVE SMOOTH",
"508 118 OFFCURVE",
"482 92 OFFCURVE",
"482 60 CURVE SMOOTH"
);
},
{
closed = 1;
nodes = (
"302 388 OFFCURVE",
"328 362 OFFCURVE",
"360 362 CURVE SMOOTH",
"392 362 OFFCURVE",
"418 388 OFFCURVE",
"418 420 CURVE SMOOTH",
"418 452 OFFCURVE",
"392 478 OFFCURVE",
"360 478 CURVE SMOOTH",
"328 478 OFFCURVE",
"302 452 OFFCURVE",
"302 420 CURVE SMOOTH"
);
},
{
closed = 1;
nodes = (
"362 268 OFFCURVE",
"388 242 OFFCURVE",
"420 242 CURVE SMOOTH",
"452 242 OFFCURVE",
"478 268 OFFCURVE",
"478 300 CURVE SMOOTH",
"478 332 OFFCURVE",
"452 358 OFFCURVE",
"420 358 CURVE SMOOTH",
"388 358 OFFCURVE",
"362 332 OFFCURVE",
"362 300 CURVE SMOOTH"
);
},
{
closed = 1;
nodes = (
"182 388 OFFCURVE",
"208 362 OFFCURVE",
"240 362 CURVE SMOOTH",
"272 362 OFFCURVE",
"298 388 OFFCURVE",
"298 420 CURVE SMOOTH",
"298 452 OFFCURVE",
"272 478 OFFCURVE",
"240 478 CURVE SMOOTH",
"208 478 OFFCURVE",
"182 452 OFFCURVE",
"182 420 CURVE SMOOTH"
);
},
{
closed = 1;
nodes = (
"122 508 OFFCURVE",
"148 482 OFFCURVE",
"180 482 CURVE SMOOTH",
"212 482 OFFCURVE",
"238 508 OFFCURVE",
"238 540 CURVE SMOOTH",
"238 572 OFFCURVE",
"212 598 OFFCURVE",
"180 598 CURVE SMOOTH",
"148 598 OFFCURVE",
"122 572 OFFCURVE",
"122 540 CURVE SMOOTH"
);
},
{
closed = 1;
nodes = (
"122 268 OFFCURVE",
"148 242 OFFCURVE",
"180 242 CURVE SMOOTH",
"212 242 OFFCURVE",
"238 268 OFFCURVE",
"238 300 CURVE SMOOTH",
"238 332 OFFCURVE",
"212 358 OFFCURVE",
"180 358 CURVE SMOOTH",
"148 358 OFFCURVE",
"122 332 OFFCURVE",
"122 300 CURVE SMOOTH"
);
},
{
closed = 1;
nodes = (
"362 508 OFFCURVE",
"388 482 OFFCURVE",
"420 482 CURVE SMOOTH",
"452 482 OFFCURVE",
"478 508 OFFCURVE",
"478 540 CURVE SMOOTH",
"478 572 OFFCURVE",
"452 598 OFFCURVE",
"420 598 CURVE SMOOTH",
"388 598 OFFCURVE",
"362 572 OFFCURVE",
"362 540 CURVE SMOOTH"
);
},
{
closed = 1;
nodes = (
"302 628 OFFCURVE",
"328 602 OFFCURVE",
"360 602 CURVE SMOOTH",
"392 602 OFFCURVE",
"418 628 OFFCURVE",
"418 660 CURVE SMOOTH",
"418 692 OFFCURVE",
"392 718 OFFCURVE",
"360 718 CURVE SMOOTH",
"328 718 OFFCURVE",
"302 692 OFFCURVE",
"302 660 CURVE SMOOTH"
);
},
{
closed = 1;
nodes = (
"182 628 OFFCURVE",
"208 602 OFFCURVE",
"240 602 CURVE SMOOTH",
"272 602 OFFCURVE",
"298 628 OFFCURVE",
"298 660 CURVE SMOOTH",
"298 692 OFFCURVE",
"272 718 OFFCURVE",
"240 718 CURVE SMOOTH",
"208 718 OFFCURVE",
"182 692 OFFCURVE",
"182 660 CURVE SMOOTH"
);
}
);
width = 600;
}
);
unicode = 00C5;
},
{
glyphname = AE;
layers = (
{
hints = (
{
horizontal = 1;
origin = "{14, 2}";
target = "{14, 8}";
type = Stem;
},
{
horizontal = 1;
origin = "{15, 2}";
target = "{15, 8}";
type = Stem;
},
{
horizontal = 1;
origin = "{10, 8}";
target = "{10, 2}";
type = Stem;
},
{
origin = "{0, 11}";
target = "{0, 5}";
type = Stem;
}
);
layerId = master01;
paths = (
{
closed = 1;
nodes = (
"422 28 OFFCURVE",
"448 2 OFFCURVE",
"480 2 CURVE SMOOTH",
"512 2 OFFCURVE",
"538 28 OFFCURVE",
"538 60 CURVE SMOOTH",
"538 92 OFFCURVE",
"512 118 OFFCURVE",
"480 118 CURVE SMOOTH",
"448 118 OFFCURVE",
"422 92 OFFCURVE",
"422 60 CURVE SMOOTH"
);
},
{
closed = 1;
nodes = (
"422 148 OFFCURVE",
"448 122 OFFCURVE",
"480 122 CURVE SMOOTH",
"512 122 OFFCURVE",
"538 148 OFFCURVE",
"538 180 CURVE SMOOTH",
"538 212 OFFCURVE",
"512 238 OFFCURVE",
"480 238 CURVE SMOOTH",
"448 238 OFFCURVE",
"422 212 OFFCURVE",
"422 180 CURVE SMOOTH"
);
},
{
closed = 1;
nodes = (
"422 268 OFFCURVE",
"448 242 OFFCURVE",
"480 242 CURVE SMOOTH",
"512 242 OFFCURVE",
"538 268 OFFCURVE",
"538 300 CURVE SMOOTH",
"538 332 OFFCURVE",
"512 358 OFFCURVE",
"480 358 CURVE SMOOTH",
"448 358 OFFCURVE",
"422 332 OFFCURVE",
"422 300 CURVE SMOOTH"
);
},
{
closed = 1;
nodes = (
"422 388 OFFCURVE",
"448 362 OFFCURVE",
"480 362 CURVE SMOOTH",
"512 362 OFFCURVE",
"538 388 OFFCURVE",
"538 420 CURVE SMOOTH",
"538 452 OFFCURVE",
"512 478 OFFCURVE",
"480 478 CURVE SMOOTH",
"448 478 OFFCURVE",
"422 452 OFFCURVE",
"422 420 CURVE SMOOTH"
);
},
{
closed = 1;
nodes = (
"422 508 OFFCURVE",
"448 482 OFFCURVE",
"480 482 CURVE SMOOTH",
"512 482 OFFCURVE",
"538 508 OFFCURVE",
"538 540 CURVE SMOOTH",
"538 572 OFFCURVE",
"512 598 OFFCURVE",
"480 598 CURVE SMOOTH",
"448 598 OFFCURVE",
"422 572 OFFCURVE",
"422 540 CURVE SMOOTH"
);
},
{
closed = 1;
nodes = (
"542 268 OFFCURVE",
"568 242 OFFCURVE",
"600 242 CURVE SMOOTH",
"632 242 OFFCURVE",
"658 268 OFFCURVE",
"658 300 CURVE SMOOTH",
"658 332 OFFCURVE",
"632 358 OFFCURVE",
"600 358 CURVE SMOOTH",
"568 358 OFFCURVE",
"542 332 OFFCURVE",
"542 300 CURVE SMOOTH"
);
},
{
closed = 1;
nodes = (
"542 508 OFFCURVE",
"568 482 OFFCURVE",
"600 482 CURVE SMOOTH",
"632 482 OFFCURVE",
"658 508 OFFCURVE",
"658 540 CURVE SMOOTH",
"658 572 OFFCURVE",
"632 598 OFFCURVE",
"600 598 CURVE SMOOTH",
"568 598 OFFCURVE",
"542 572 OFFCURVE",
"542 540 CURVE SMOOTH"
);
},
{
closed = 1;
nodes = (
"542 28 OFFCURVE",
"568 2 OFFCURVE",
"600 2 CURVE SMOOTH",
"632 2 OFFCURVE",
"658 28 OFFCURVE",
"658 60 CURVE SMOOTH",
"658 92 OFFCURVE",
"632 118 OFFCURVE",
"600 118 CURVE SMOOTH",
"568 118 OFFCURVE",
"542 92 OFFCURVE",
"542 60 CURVE SMOOTH"
);
},
{
closed = 1;
nodes = (
"662 28 OFFCURVE",
"688 2 OFFCURVE",
"720 2 CURVE SMOOTH",
"752 2 OFFCURVE",
"778 28 OFFCURVE",
"778 60 CURVE SMOOTH",
"778 92 OFFCURVE",
"752 118 OFFCURVE",
"720 118 CURVE SMOOTH",
"688 118 OFFCURVE",
"662 92 OFFCURVE",
"662 60 CURVE SMOOTH"
);
},
{
closed = 1;
nodes = (
"662 508 OFFCURVE",
"688 482 OFFCURVE",
"720 482 CURVE SMOOTH",
"752 482 OFFCURVE",
"778 508 OFFCURVE",
"778 540 CURVE SMOOTH",
"778 572 OFFCURVE",
"752 598 OFFCURVE",
"720 598 CURVE SMOOTH",
"688 598 OFFCURVE",
"662 572 OFFCURVE",
"662 540 CURVE SMOOTH"
);
},
{
closed = 1;
nodes = (
"302 508 OFFCURVE",
"328 482 OFFCURVE",
"360 482 CURVE SMOOTH",
"392 482 OFFCURVE",
"418 508 OFFCURVE",
"418 540 CURVE SMOOTH",
"418 572 OFFCURVE",
"392 598 OFFCURVE",
"360 598 CURVE SMOOTH",
"328 598 OFFCURVE",
"302 572 OFFCURVE",
"302 540 CURVE SMOOTH"
);
},
{
closed = 1;
nodes = (
"242 388 OFFCURVE",
"268 362 OFFCURVE",
"300 362 CURVE SMOOTH",
"332 362 OFFCURVE",
"358 388 OFFCURVE",
"358 420 CURVE SMOOTH",
"358 452 OFFCURVE",
"332 478 OFFCURVE",
"300 478 CURVE SMOOTH",
"268 478 OFFCURVE",
"242 452 OFFCURVE",
"242 420 CURVE SMOOTH"
);
},
{
closed = 1;
nodes = (
"182 268 OFFCURVE",
"208 242 OFFCURVE",
"240 242 CURVE SMOOTH",
"272 242 OFFCURVE",
"298 268 OFFCURVE",
"298 300 CURVE SMOOTH",
"298 332 OFFCURVE",
"272 358 OFFCURVE",
"240 358 CURVE SMOOTH",
"208 358 OFFCURVE",
"182 332 OFFCURVE",
"182 300 CURVE SMOOTH"
);
},
{
closed = 1;
nodes = (
"122 148 OFFCURVE",
"148 122 OFFCURVE",
"180 122 CURVE SMOOTH",
"212 122 OFFCURVE",
"238 148 OFFCURVE",
"238 180 CURVE SMOOTH",
"238 212 OFFCURVE",
"212 238 OFFCURVE",
"180 238 CURVE SMOOTH",
"148 238 OFFCURVE",
"122 212 OFFCURVE",
"122 180 CURVE SMOOTH"
);
},
{
closed = 1;
nodes = (
"62 28 OFFCURVE",
"88 2 OFFCURVE",
"120 2 CURVE SMOOTH",
"152 2 OFFCURVE",
"178 28 OFFCURVE",
"178 60 CURVE SMOOTH",
"178 92 OFFCURVE",
"152 118 OFFCURVE",
"120 118 CURVE SMOOTH",
"88 118 OFFCURVE",
"62 92 OFFCURVE",
"62 60 CURVE SMOOTH"
);
},
{
closed = 1;
nodes = (
"302 208 OFFCURVE",
"328 182 OFFCURVE",
"360 182 CURVE SMOOTH {name = hr01;}",
"392 182 OFFCURVE",
"418 208 OFFCURVE",
"418 240 CURVE SMOOTH",
"418 272 OFFCURVE",
"392 298 OFFCURVE",
"360 298 CURVE SMOOTH",
"328 298 OFFCURVE",
"302 272 OFFCURVE",
"302 240 CURVE SMOOTH"
);
}
);
width = 840;
}
);
rightKerningGroup = E;
unicode = 00C6;
},
{
glyphname = B;
layers = (
{
hints = (
{
horizontal = 1;
origin = "{0, 2}";
target = "{0, 8}";
type = Stem;
},
{
horizontal = 1;
origin = "{4, 8}";
target = "{4, 2}";
type = Stem;
},
{
origin = "{0, 11}";
target = "{0, 5}";
type = Stem;
},
{
origin = "{8, 5}";
target = "{8, 11}";
type = Stem;
}
);
layerId = master01;
paths = (
{
closed = 1;
nodes = (
"62 28 OFFCURVE",
"88 2 OFFCURVE",
"120 2 CURVE SMOOTH",
"152 2 OFFCURVE",
"178 28 OFFCURVE",
"178 60 CURVE SMOOTH",
"178 92 OFFCURVE",
"152 118 OFFCURVE",
"120 118 CURVE SMOOTH",
"88 118 OFFCURVE",
"62 92 OFFCURVE",
"62 60 CURVE SMOOTH {name = hr00;}"
);
},
{
closed = 1;
nodes = (
"62 148 OFFCURVE",
"88 122 OFFCURVE",
"120 122 CURVE SMOOTH",
"152 122 OFFCURVE",
"178 148 OFFCURVE",
"178 180 CURVE SMOOTH",
"178 212 OFFCURVE",
"152 238 OFFCURVE",
"120 238 CURVE SMOOTH",
"88 238 OFFCURVE",
"62 212 OFFCURVE",
"62 180 CURVE SMOOTH"
);
},
{
closed = 1;
nodes = (
"62 268 OFFCURVE",
"88 242 OFFCURVE",
"120 242 CURVE SMOOTH",
"152 242 OFFCURVE",
"178 268 OFFCURVE",
"178 300 CURVE SMOOTH",
"178 332 OFFCURVE",
"152 358 OFFCURVE",
"120 358 CURVE SMOOTH",
"88 358 OFFCURVE",
"62 332 OFFCURVE",
"62 300 CURVE SMOOTH"
);
},
{
closed = 1;
nodes = (
"62 388 OFFCURVE",
"88 362 OFFCURVE",
"120 362 CURVE SMOOTH",
"152 362 OFFCURVE",
"178 388 OFFCURVE",
"178 420 CURVE SMOOTH",
"178 452 OFFCURVE",
"152 478 OFFCURVE",
"120 478 CURVE SMOOTH",
"88 478 OFFCURVE",
"62 452 OFFCURVE",
"62 420 CURVE SMOOTH"
);
},
{
closed = 1;
nodes = (
"62 508 OFFCURVE",
"88 482 OFFCURVE",
"120 482 CURVE SMOOTH",
"152 482 OFFCURVE",
"178 508 OFFCURVE",
"178 540 CURVE SMOOTH",
"178 572 OFFCURVE",
"152 598 OFFCURVE",
"120 598 CURVE SMOOTH",
"88 598 OFFCURVE",
"62 572 OFFCURVE",
"62 540 CURVE SMOOTH"
);
},
{
closed = 1;
nodes = (
"182 268 OFFCURVE",
"208 242 OFFCURVE",
"240 242 CURVE SMOOTH",
"272 242 OFFCURVE",
"298 268 OFFCURVE",
"298 300 CURVE SMOOTH",
"298 332 OFFCURVE",
"272 358 OFFCURVE",
"240 358 CURVE SMOOTH",
"208 358 OFFCURVE",
"182 332 OFFCURVE",
"182 300 CURVE SMOOTH"
);
},
{
closed = 1;
nodes = (
"182 508 OFFCURVE",
"208 482 OFFCURVE",
"240 482 CURVE SMOOTH",
"272 482 OFFCURVE",
"298 508 OFFCURVE",
"298 540 CURVE SMOOTH",
"298 572 OFFCURVE",
"272 598 OFFCURVE",
"240 598 CURVE SMOOTH",
"208 598 OFFCURVE",
"182 572 OFFCURVE",
"182 540 CURVE SMOOTH"
);
},
{
closed = 1;
nodes = (
"182 28 OFFCURVE",
"208 2 OFFCURVE",
"240 2 CURVE SMOOTH",
"272 2 OFFCURVE",
"298 28 OFFCURVE",
"298 60 CURVE SMOOTH",
"298 92 OFFCURVE",
"272 118 OFFCURVE",
"240 118 CURVE SMOOTH",
"208 118 OFFCURVE",
"182 92 OFFCURVE",
"182 60 CURVE SMOOTH"
);
},
{
closed = 1;
nodes = (
"302 88 OFFCURVE",
"328 62 OFFCURVE",
"360 62 CURVE SMOOTH",
"392 62 OFFCURVE",
"418 88 OFFCURVE",
"418 120 CURVE SMOOTH",
"418 152 OFFCURVE",
"392 178 OFFCURVE",
"360 178 CURVE SMOOTH",
"328 178 OFFCURVE",
"302 152 OFFCURVE",
"302 120 CURVE SMOOTH"
);
},
{
closed = 1;
nodes = (
"302 208 OFFCURVE",
"328 182 OFFCURVE",
"360 182 CURVE SMOOTH",
"392 182 OFFCURVE",
"418 208 OFFCURVE",
"418 240 CURVE SMOOTH",
"418 272 OFFCURVE",
"392 298 OFFCURVE",
"360 298 CURVE SMOOTH",
"328 298 OFFCURVE",
"302 272 OFFCURVE",
"302 240 CURVE SMOOTH"
);
},
{
closed = 1;
nodes = (
"242 388 OFFCURVE",
"268 362 OFFCURVE",
"300 362 CURVE SMOOTH",
"332 362 OFFCURVE",
"358 388 OFFCURVE",
"358 420 CURVE SMOOTH",
"358 452 OFFCURVE",
"332 478 OFFCURVE",
"300 478 CURVE SMOOTH",
"268 478 OFFCURVE",
"242 452 OFFCURVE",
"242 420 CURVE SMOOTH"
);
}
);
width = 480;
}
);
leftKerningGroup = E;
unicode = 0042;
},
{
glyphname = C;
layers = (
{
anchors = (
{
name = bottom;
position = "{300, 0}";
}
);
hints = (
{
horizontal = 1;
origin = "{0, 2}";
target = "{0, 8}";
type = Stem;
},
{
horizontal = 1;
origin = "{4, 8}";
target = "{4, 2}";
type = Stem;
},
{
origin = "{7, 11}";
target = "{7, 5}";
type = Stem;
}
);
layerId = master01;
paths = (
{
closed = 1;
nodes = (
"242 28 OFFCURVE",
"268 2 OFFCURVE",
"300 2 CURVE SMOOTH",
"332 2 OFFCURVE",
"358 28 OFFCURVE",
"358 60 CURVE SMOOTH",
"358 92 OFFCURVE",
"332 118 OFFCURVE",
"300 118 CURVE SMOOTH",
"268 118 OFFCURVE",
"242 92 OFFCURVE",
"242 60 CURVE SMOOTH {name = hr00;}"
);
},
{
closed = 1;
nodes = (
"122 88 OFFCURVE",
"148 62 OFFCURVE",
"180 62 CURVE SMOOTH",
"212 62 OFFCURVE",
"238 88 OFFCURVE",
"238 120 CURVE SMOOTH",
"238 152 OFFCURVE",
"212 178 OFFCURVE",
"180 178 CURVE SMOOTH",
"148 178 OFFCURVE",
"122 152 OFFCURVE",
"122 120 CURVE SMOOTH"
);
},
{
closed = 1;
nodes = (
"62 328 OFFCURVE",
"88 302 OFFCURVE",
"120 302 CURVE SMOOTH",
"152 302 OFFCURVE",
"178 328 OFFCURVE",
"178 360 CURVE SMOOTH",
"178 392 OFFCURVE",
"152 418 OFFCURVE",
"120 418 CURVE SMOOTH",
"88 418 OFFCURVE",
"62 392 OFFCURVE",
"62 360 CURVE SMOOTH"
);
},
{
closed = 1;
nodes = (
"122 448 OFFCURVE",
"148 422 OFFCURVE",
"180 422 CURVE SMOOTH",
"212 422 OFFCURVE",
"238 448 OFFCURVE",
"238 480 CURVE SMOOTH",
"238 512 OFFCURVE",
"212 538 OFFCURVE",
"180 538 CURVE SMOOTH",
"148 538 OFFCURVE",
"122 512 OFFCURVE",
"122 480 CURVE SMOOTH"
);
},
{
closed = 1;
nodes = (
"242 508 OFFCURVE",
"268 482 OFFCURVE",
"300 482 CURVE SMOOTH",
"332 482 OFFCURVE",
"358 508 OFFCURVE",
"358 540 CURVE SMOOTH",
"358 572 OFFCURVE",
"332 598 OFFCURVE",
"300 598 CURVE SMOOTH",
"268 598 OFFCURVE",
"242 572 OFFCURVE",
"242 540 CURVE SMOOTH"
);
},
{
closed = 1;
nodes = (
"362 508 OFFCURVE",
"388 482 OFFCURVE",
"420 482 CURVE SMOOTH",
"452 482 OFFCURVE",
"478 508 OFFCURVE",
"478 540 CURVE SMOOTH",
"478 572 OFFCURVE",
"452 598 OFFCURVE",
"420 598 CURVE SMOOTH",
"388 598 OFFCURVE",
"362 572 OFFCURVE",
"362 540 CURVE SMOOTH"
);
},
{
closed = 1;
nodes = (
"362 28 OFFCURVE",
"388 2 OFFCURVE",
"420 2 CURVE SMOOTH",
"452 2 OFFCURVE",
"478 28 OFFCURVE",
"478 60 CURVE SMOOTH",
"478 92 OFFCURVE",
"452 118 OFFCURVE",
"420 118 CURVE SMOOTH",
"388 118 OFFCURVE",
"362 92 OFFCURVE",
"362 60 CURVE SMOOTH"
);
},
{
closed = 1;
nodes = (
"62 208 OFFCURVE",
"88 182 OFFCURVE",
"120 182 CURVE SMOOTH",
"152 182 OFFCURVE",
"178 208 OFFCURVE",
"178 240 CURVE SMOOTH",
"178 272 OFFCURVE",
"152 298 OFFCURVE",
"120 298 CURVE SMOOTH",
"88 298 OFFCURVE",
"62 272 OFFCURVE",
"62 240 CURVE SMOOTH"
);
}
);
width = 540;
}
);
leftKerningGroup = O;
rightKerningGroup = C;
unicode = 0043;
},
{
glyphname = D;
layers = (
{
hints = (
{
horizontal = 1;
origin = "{0, 2}";
target = "{0, 8}";
type = Stem;
},
{
horizontal = 1;
origin = "{4, 8}";
target = "{4, 2}";
type = Stem;
},
{
origin = "{0, 11}";
target = "{0, 5}";
type = Stem;
},
{
origin = "{10, 5}";
target = "{10, 11}";
type = Stem;
}
);
layerId = master01;
paths = (
{
closed = 1;
nodes = (
"62 28 OFFCURVE",
"88 2 OFFCURVE",
"120 2 CURVE SMOOTH",
"152 2 OFFCURVE",
"178 28 OFFCURVE",
"178 60 CURVE SMOOTH",
"178 92 OFFCURVE",
"152 118 OFFCURVE",
"120 118 CURVE SMOOTH",
"88 118 OFFCURVE",
"62 92 OFFCURVE",
"62 60 CURVE SMOOTH {name = hr00;}"
);
},
{
closed = 1;
nodes = (
"62 148 OFFCURVE",
"88 122 OFFCURVE",
"120 122 CURVE SMOOTH",
"152 122 OFFCURVE",
"178 148 OFFCURVE",
"178 180 CURVE SMOOTH",
"178 212 OFFCURVE",
"152 238 OFFCURVE",
"120 238 CURVE SMOOTH",
"88 238 OFFCURVE",
"62 212 OFFCURVE",
"62 180 CURVE SMOOTH"
);
},
{
closed = 1;
nodes = (
"62 268 OFFCURVE",
"88 242 OFFCURVE",
"120 242 CURVE SMOOTH",
"152 242 OFFCURVE",
"178 268 OFFCURVE",
"178 300 CURVE SMOOTH",
"178 332 OFFCURVE",
"152 358 OFFCURVE",
"120 358 CURVE SMOOTH",
"88 358 OFFCURVE",
"62 332 OFFCURVE",
"62 300 CURVE SMOOTH"
);
},
{
closed = 1;
nodes = (
"62 388 OFFCURVE",
"88 362 OFFCURVE",
"120 362 CURVE SMOOTH",
"152 362 OFFCURVE",
"178 388 OFFCURVE",
"178 420 CURVE SMOOTH",
"178 452 OFFCURVE",
"152 478 OFFCURVE",
"120 478 CURVE SMOOTH",
"88 478 OFFCURVE",
"62 452 OFFCURVE",
"62 420 CURVE SMOOTH"
);
},
{
closed = 1;
nodes = (
"62 508 OFFCURVE",
"88 482 OFFCURVE",
"120 482 CURVE SMOOTH",
"152 482 OFFCURVE",
"178 508 OFFCURVE",
"178 540 CURVE SMOOTH",
"178 572 OFFCURVE",
"152 598 OFFCURVE",
"120 598 CURVE SMOOTH",
"88 598 OFFCURVE",
"62 572 OFFCURVE",
"62 540 CURVE SMOOTH"
);
},
{
closed = 1;
nodes = (
"182 508 OFFCURVE",
"208 482 OFFCURVE",
"240 482 CURVE SMOOTH",
"272 482 OFFCURVE",
"298 508 OFFCURVE",
"298 540 CURVE SMOOTH",
"298 572 OFFCURVE",
"272 598 OFFCURVE",
"240 598 CURVE SMOOTH",
"208 598 OFFCURVE",
"182 572 OFFCURVE",
"182 540 CURVE SMOOTH"
);
},
{
closed = 1;
nodes = (
"182 28 OFFCURVE",
"208 2 OFFCURVE",
"240 2 CURVE SMOOTH",
"272 2 OFFCURVE",
"298 28 OFFCURVE",
"298 60 CURVE SMOOTH",
"298 92 OFFCURVE",
"272 118 OFFCURVE",
"240 118 CURVE SMOOTH",
"208 118 OFFCURVE",
"182 92 OFFCURVE",
"182 60 CURVE SMOOTH"
);
},
{
closed = 1;
nodes = (
"302 88 OFFCURVE",
"328 62 OFFCURVE",
"360 62 CURVE SMOOTH",
"392 62 OFFCURVE",
"418 88 OFFCURVE",
"418 120 CURVE SMOOTH",
"418 152 OFFCURVE",
"392 178 OFFCURVE",
"360 178 CURVE SMOOTH",
"328 178 OFFCURVE",
"302 152 OFFCURVE",
"302 120 CURVE SMOOTH"
);
},
{
closed = 1;
nodes = (
"302 448 OFFCURVE",
"328 422 OFFCURVE",
"360 422 CURVE SMOOTH",
"392 422 OFFCURVE",
"418 448 OFFCURVE",
"418 480 CURVE SMOOTH",
"418 512 OFFCURVE",
"392 538 OFFCURVE",
"360 538 CURVE SMOOTH",
"328 538 OFFCURVE",
"302 512 OFFCURVE",
"302 480 CURVE SMOOTH"
);
},
{
closed = 1;
nodes = (
"362 328 OFFCURVE",
"388 302 OFFCURVE",
"420 302 CURVE SMOOTH",
"452 302 OFFCURVE",
"478 328 OFFCURVE",
"478 360 CURVE SMOOTH",
"478 392 OFFCURVE",
"452 418 OFFCURVE",
"420 418 CURVE SMOOTH",
"388 418 OFFCURVE",
"362 392 OFFCURVE",
"362 360 CURVE SMOOTH"
);
},
{
closed = 1;
nodes = (
"362 208 OFFCURVE",
"388 182 OFFCURVE",
"420 182 CURVE SMOOTH",
"452 182 OFFCURVE",
"478 208 OFFCURVE",
"478 240 CURVE SMOOTH",
"478 272 OFFCURVE",
"452 298 OFFCURVE",
"420 298 CURVE SMOOTH",
"388 298 OFFCURVE",
"362 272 OFFCURVE",
"362 240 CURVE SMOOTH"
);
}
);
width = 540;
}
);
leftKerningGroup = E;
rightKerningGroup = O;
unicode = 0044;
},
{
glyphname = Eth;
layers = (
{
hints = (
{
horizontal = 1;
origin = "{0, 2}";
target = "{0, 8}";
type = Stem;
},
{
horizontal = 1;
origin = "{12, 2}";
target = "{12, 8}";
type = Stem;
},
{
horizontal = 1;
origin = "{4, 8}";
target = "{4, 2}";
type = Stem;
},
{
origin = "{0, 11}";
target = "{0, 5}";
type = Stem;
},
{
origin = "{10, 5}";
target = "{10, 11}";
type = Stem;
}
);
layerId = master01;
paths = (
{
closed = 1;
nodes = (
"122 28 OFFCURVE",
"148 2 OFFCURVE",
"180 2 CURVE SMOOTH",
"212 2 OFFCURVE",
"238 28 OFFCURVE",
"238 60 CURVE SMOOTH",
"238 92 OFFCURVE",
"212 118 OFFCURVE",
"180 118 CURVE SMOOTH",
"148 118 OFFCURVE",
"122 92 OFFCURVE",
"122 60 CURVE SMOOTH {name = hr00;}"
);
},
{
closed = 1;
nodes = (
"122 148 OFFCURVE",
"148 122 OFFCURVE",
"180 122 CURVE SMOOTH",
"212 122 OFFCURVE",
"238 148 OFFCURVE",
"238 180 CURVE SMOOTH",
"238 212 OFFCURVE",
"212 238 OFFCURVE",
"180 238 CURVE SMOOTH",
"148 238 OFFCURVE",
"122 212 OFFCURVE",
"122 180 CURVE SMOOTH"
);
},
{
closed = 1;
nodes = (
"122 268 OFFCURVE",
"148 242 OFFCURVE",
"180 242 CURVE SMOOTH",
"212 242 OFFCURVE",
"238 268 OFFCURVE",
"238 300 CURVE SMOOTH",
"238 332 OFFCURVE",
"212 358 OFFCURVE",
"180 358 CURVE SMOOTH",
"148 358 OFFCURVE",
"122 332 OFFCURVE",
"122 300 CURVE SMOOTH"
);
},
{
closed = 1;
nodes = (
"122 388 OFFCURVE",
"148 362 OFFCURVE",
"180 362 CURVE SMOOTH",
"212 362 OFFCURVE",
"238 388 OFFCURVE",
"238 420 CURVE SMOOTH",
"238 452 OFFCURVE",
"212 478 OFFCURVE",
"180 478 CURVE SMOOTH",
"148 478 OFFCURVE",
"122 452 OFFCURVE",
"122 420 CURVE SMOOTH"
);
},
{
closed = 1;
nodes = (
"122 508 OFFCURVE",
"148 482 OFFCURVE",
"180 482 CURVE SMOOTH",
"212 482 OFFCURVE",
"238 508 OFFCURVE",
"238 540 CURVE SMOOTH",
"238 572 OFFCURVE",
"212 598 OFFCURVE",
"180 598 CURVE SMOOTH",
"148 598 OFFCURVE",
"122 572 OFFCURVE",
"122 540 CURVE SMOOTH"
);
},
{
closed = 1;
nodes = (
"242 508 OFFCURVE",
"268 482 OFFCURVE",
"300 482 CURVE SMOOTH",
"332 482 OFFCURVE",
"358 508 OFFCURVE",
"358 540 CURVE SMOOTH",
"358 572 OFFCURVE",
"332 598 OFFCURVE",
"300 598 CURVE SMOOTH",
"268 598 OFFCURVE",
"242 572 OFFCURVE",
"242 540 CURVE SMOOTH"
);
},
{
closed = 1;
nodes = (
"242 28 OFFCURVE",
"268 2 OFFCURVE",
"300 2 CURVE SMOOTH",
"332 2 OFFCURVE",
"358 28 OFFCURVE",
"358 60 CURVE SMOOTH",
"358 92 OFFCURVE",
"332 118 OFFCURVE",
"300 118 CURVE SMOOTH",
"268 118 OFFCURVE",
"242 92 OFFCURVE",
"242 60 CURVE SMOOTH"
);
},
{
closed = 1;
nodes = (
"362 88 OFFCURVE",
"388 62 OFFCURVE",
"420 62 CURVE SMOOTH",
"452 62 OFFCURVE",
"478 88 OFFCURVE",
"478 120 CURVE SMOOTH",
"478 152 OFFCURVE",
"452 178 OFFCURVE",
"420 178 CURVE SMOOTH",
"388 178 OFFCURVE",
"362 152 OFFCURVE",
"362 120 CURVE SMOOTH"
);
},
{
closed = 1;
nodes = (
"362 448 OFFCURVE",
"388 422 OFFCURVE",
"420 422 CURVE SMOOTH",
"452 422 OFFCURVE",
"478 448 OFFCURVE",
"478 480 CURVE SMOOTH",
"478 512 OFFCURVE",
"452 538 OFFCURVE",
"420 538 CURVE SMOOTH",
"388 538 OFFCURVE",
"362 512 OFFCURVE",
"362 480 CURVE SMOOTH"
);
},
{
closed = 1;
nodes = (
"422 328 OFFCURVE",
"448 302 OFFCURVE",
"480 302 CURVE SMOOTH",
"512 302 OFFCURVE",
"538 328 OFFCURVE",
"538 360 CURVE SMOOTH",
"538 392 OFFCURVE",
"512 418 OFFCURVE",
"480 418 CURVE SMOOTH",
"448 418 OFFCURVE",
"422 392 OFFCURVE",
"422 360 CURVE SMOOTH"
);
},
{
closed = 1;
nodes = (
"422 208 OFFCURVE",
"448 182 OFFCURVE",
"480 182 CURVE SMOOTH",
"512 182 OFFCURVE",
"538 208 OFFCURVE",
"538 240 CURVE SMOOTH",
"538 272 OFFCURVE",
"512 298 OFFCURVE",
"480 298 CURVE SMOOTH",
"448 298 OFFCURVE",
"422 272 OFFCURVE",
"422 240 CURVE SMOOTH"
);
},
{
closed = 1;
nodes = (
"242 268 OFFCURVE",
"268 242 OFFCURVE",
"300 242 CURVE SMOOTH",
"332 242 OFFCURVE",
"358 268 OFFCURVE",
"358 300 CURVE SMOOTH",
"358 332 OFFCURVE",
"332 358 OFFCURVE",
"300 358 CURVE SMOOTH",
"268 358 OFFCURVE",
"242 332 OFFCURVE",
"242 300 CURVE SMOOTH"
);
},
{
closed = 1;
nodes = (
"2 268 OFFCURVE",
"28 242 OFFCURVE",
"60 242 CURVE SMOOTH",
"92 242 OFFCURVE",
"118 268 OFFCURVE",
"118 300 CURVE SMOOTH",
"118 332 OFFCURVE",
"92 358 OFFCURVE",
"60 358 CURVE SMOOTH",
"28 358 OFFCURVE",
"2 332 OFFCURVE",
"2 300 CURVE SMOOTH"
);
}
);
width = 600;
}
);
rightKerningGroup = O;
unicode = 00D0;
},
{
glyphname = E;
layers = (
{
anchors = (
{
name = top;
position = "{240, 600}";
}
);
hints = (
{
horizontal = 1;
origin = "{0, 2}";
target = "{0, 8}";
type = Stem;
},
{
horizontal = 1;
origin = "{4, 8}";
target = "{4, 2}";
type = Stem;
},
{
origin = "{0, 11}";
target = "{0, 5}";
type = Stem;
}
);
layerId = master01;
paths = (
{
closed = 1;
nodes = (
"62 28 OFFCURVE",
"88 2 OFFCURVE",
"120 2 CURVE SMOOTH",
"152 2 OFFCURVE",
"178 28 OFFCURVE",
"178 60 CURVE SMOOTH",
"178 92 OFFCURVE",
"152 118 OFFCURVE",
"120 118 CURVE SMOOTH",
"88 118 OFFCURVE",
"62 92 OFFCURVE",
"62 60 CURVE SMOOTH {name = hr00;}"
);
},
{
closed = 1;
nodes = (
"62 148 OFFCURVE",
"88 122 OFFCURVE",
"120 122 CURVE SMOOTH",
"152 122 OFFCURVE",
"178 148 OFFCURVE",
"178 180 CURVE SMOOTH",
"178 212 OFFCURVE",
"152 238 OFFCURVE",
"120 238 CURVE SMOOTH",
"88 238 OFFCURVE",
"62 212 OFFCURVE",
"62 180 CURVE SMOOTH"
);
},
{
closed = 1;
nodes = (
"62 268 OFFCURVE",
"88 242 OFFCURVE",
"120 242 CURVE SMOOTH",
"152 242 OFFCURVE",
"178 268 OFFCURVE",
"178 300 CURVE SMOOTH",
"178 332 OFFCURVE",
"152 358 OFFCURVE",
"120 358 CURVE SMOOTH",
"88 358 OFFCURVE",
"62 332 OFFCURVE",
"62 300 CURVE SMOOTH"
);
},
{
closed = 1;
nodes = (
"62 388 OFFCURVE",
"88 362 OFFCURVE",
"120 362 CURVE SMOOTH",
"152 362 OFFCURVE",
"178 388 OFFCURVE",
"178 420 CURVE SMOOTH",
"178 452 OFFCURVE",
"152 478 OFFCURVE",
"120 478 CURVE SMOOTH",
"88 478 OFFCURVE",
"62 452 OFFCURVE",
"62 420 CURVE SMOOTH"
);
},
{
closed = 1;
nodes = (
"62 508 OFFCURVE",
"88 482 OFFCURVE",
"120 482 CURVE SMOOTH",
"152 482 OFFCURVE",
"178 508 OFFCURVE",
"178 540 CURVE SMOOTH",
"178 572 OFFCURVE",
"152 598 OFFCURVE",
"120 598 CURVE SMOOTH",
"88 598 OFFCURVE",
"62 572 OFFCURVE",
"62 540 CURVE SMOOTH"
);
},
{
closed = 1;
nodes = (
"182 268 OFFCURVE",
"208 242 OFFCURVE",
"240 242 CURVE SMOOTH",
"272 242 OFFCURVE",
"298 268 OFFCURVE",
"298 300 CURVE SMOOTH",
"298 332 OFFCURVE",
"272 358 OFFCURVE",
"240 358 CURVE SMOOTH",
"208 358 OFFCURVE",
"182 332 OFFCURVE",
"182 300 CURVE SMOOTH"
);
},
{
closed = 1;
nodes = (
"182 508 OFFCURVE",
"208 482 OFFCURVE",
"240 482 CURVE SMOOTH",
"272 482 OFFCURVE",
"298 508 OFFCURVE",
"298 540 CURVE SMOOTH",
"298 572 OFFCURVE",
"272 598 OFFCURVE",
"240 598 CURVE SMOOTH",
"208 598 OFFCURVE",
"182 572 OFFCURVE",
"182 540 CURVE SMOOTH"
);
},
{
closed = 1;
nodes = (
"182 28 OFFCURVE",
"208 2 OFFCURVE",
"240 2 CURVE SMOOTH",
"272 2 OFFCURVE",
"298 28 OFFCURVE",
"298 60 CURVE SMOOTH",
"298 92 OFFCURVE",
"272 118 OFFCURVE",
"240 118 CURVE SMOOTH",
"208 118 OFFCURVE",
"182 92 OFFCURVE",
"182 60 CURVE SMOOTH"
);
},
{
closed = 1;
nodes = (
"302 28 OFFCURVE",
"328 2 OFFCURVE",
"360 2 CURVE SMOOTH",
"392 2 OFFCURVE",
"418 28 OFFCURVE",
"418 60 CURVE SMOOTH",
"418 92 OFFCURVE",
"392 118 OFFCURVE",
"360 118 CURVE SMOOTH",
"328 118 OFFCURVE",
"302 92 OFFCURVE",
"302 60 CURVE SMOOTH"
);
},
{
closed = 1;
nodes = (
"302 508 OFFCURVE",
"328 482 OFFCURVE",
"360 482 CURVE SMOOTH",
"392 482 OFFCURVE",
"418 508 OFFCURVE",
"418 540 CURVE SMOOTH",
"418 572 OFFCURVE",
"392 598 OFFCURVE",
"360 598 CURVE SMOOTH",
"328 598 OFFCURVE",
"302 572 OFFCURVE",
"302 540 CURVE SMOOTH"
);
}
);
width = 480;
}
);
leftKerningGroup = E;
rightKerningGroup = E;
unicode = 0045;
},
{
glyphname = Edieresis;
layers = (
{
hints = (
{
horizontal = 1;
origin = "{0, 2}";
target = "{0, 8}";
type = Stem;
},
{
horizontal = 1;
origin = "{4, 8}";
target = "{4, 2}";
type = Stem;
},
{
horizontal = 1;
origin = "{3, 8}";
target = "{3, 2}";
type = Stem;
},
{
origin = "{0, 11}";
target = "{0, 5}";
type = Stem;
}
);
layerId = master01;
paths = (
{
closed = 1;
nodes = (
"62 28 OFFCURVE",
"88 2 OFFCURVE",
"120 2 CURVE SMOOTH",
"152 2 OFFCURVE",
"178 28 OFFCURVE",
"178 60 CURVE SMOOTH",
"178 92 OFFCURVE",
"152 118 OFFCURVE",
"120 118 CURVE SMOOTH",
"88 118 OFFCURVE",
"62 92 OFFCURVE",
"62 60 CURVE SMOOTH {name = hr00;}"
);
},
{
closed = 1;
nodes = (
"62 148 OFFCURVE",
"88 122 OFFCURVE",
"120 122 CURVE SMOOTH",
"152 122 OFFCURVE",
"178 148 OFFCURVE",
"178 180 CURVE SMOOTH",
"178 212 OFFCURVE",
"152 238 OFFCURVE",
"120 238 CURVE SMOOTH",
"88 238 OFFCURVE",
"62 212 OFFCURVE",
"62 180 CURVE SMOOTH"
);
},
{
closed = 1;
nodes = (
"62 268 OFFCURVE",
"88 242 OFFCURVE",
"120 242 CURVE SMOOTH",
"152 242 OFFCURVE",
"178 268 OFFCURVE",
"178 300 CURVE SMOOTH",
"178 332 OFFCURVE",
"152 358 OFFCURVE",
"120 358 CURVE SMOOTH",
"88 358 OFFCURVE",
"62 332 OFFCURVE",
"62 300 CURVE SMOOTH"
);
},
{
closed = 1;
nodes = (
"62 628 OFFCURVE",
"88 602 OFFCURVE",
"120 602 CURVE SMOOTH",
"152 602 OFFCURVE",
"178 628 OFFCURVE",
"178 660 CURVE SMOOTH",
"178 692 OFFCURVE",
"152 718 OFFCURVE",
"120 718 CURVE SMOOTH",
"88 718 OFFCURVE",
"62 692 OFFCURVE",
"62 660 CURVE SMOOTH"
);
},
{
closed = 1;
nodes = (
"62 388 OFFCURVE",
"88 362 OFFCURVE",
"120 362 CURVE SMOOTH",
"152 362 OFFCURVE",
"178 388 OFFCURVE",
"178 420 CURVE SMOOTH",
"178 452 OFFCURVE",
"152 478 OFFCURVE",
"120 478 CURVE SMOOTH",
"88 478 OFFCURVE",
"62 452 OFFCURVE",
"62 420 CURVE SMOOTH"
);
},
{
closed = 1;
nodes = (
"182 208 OFFCURVE",
"208 182 OFFCURVE",
"240 182 CURVE SMOOTH",
"272 182 OFFCURVE",
"298 208 OFFCURVE",
"298 240 CURVE SMOOTH",
"298 272 OFFCURVE",
"272 298 OFFCURVE",
"240 298 CURVE SMOOTH",
"208 298 OFFCURVE",
"182 272 OFFCURVE",
"182 240 CURVE SMOOTH"
);
},
{
closed = 1;
nodes = (
"182 388 OFFCURVE",
"208 362 OFFCURVE",
"240 362 CURVE SMOOTH",
"272 362 OFFCURVE",
"298 388 OFFCURVE",
"298 420 CURVE SMOOTH",
"298 452 OFFCURVE",
"272 478 OFFCURVE",
"240 478 CURVE SMOOTH",
"208 478 OFFCURVE",
"182 452 OFFCURVE",
"182 420 CURVE SMOOTH"
);
},
{
closed = 1;
nodes = (
"182 28 OFFCURVE",
"208 2 OFFCURVE",
"240 2 CURVE SMOOTH",
"272 2 OFFCURVE",
"298 28 OFFCURVE",
"298 60 CURVE SMOOTH",
"298 92 OFFCURVE",
"272 118 OFFCURVE",
"240 118 CURVE SMOOTH",
"208 118 OFFCURVE",
"182 92 OFFCURVE",
"182 60 CURVE SMOOTH"
);
},
{
closed = 1;
nodes = (
"302 28 OFFCURVE",
"328 2 OFFCURVE",
"360 2 CURVE SMOOTH",
"392 2 OFFCURVE",
"418 28 OFFCURVE",
"418 60 CURVE SMOOTH",
"418 92 OFFCURVE",
"392 118 OFFCURVE",
"360 118 CURVE SMOOTH",
"328 118 OFFCURVE",
"302 92 OFFCURVE",
"302 60 CURVE SMOOTH"
);
},
{
closed = 1;
nodes = (
"302 388 OFFCURVE",
"328 362 OFFCURVE",
"360 362 CURVE SMOOTH",
"392 362 OFFCURVE",
"418 388 OFFCURVE",
"418 420 CURVE SMOOTH",
"418 452 OFFCURVE",
"392 478 OFFCURVE",
"360 478 CURVE SMOOTH",
"328 478 OFFCURVE",
"302 452 OFFCURVE",
"302 420 CURVE SMOOTH"
);
},
{
closed = 1;
nodes = (
"302 628 OFFCURVE",
"328 602 OFFCURVE",
"360 602 CURVE SMOOTH",
"392 602 OFFCURVE",
"418 628 OFFCURVE",
"418 660 CURVE SMOOTH",
"418 692 OFFCURVE",
"392 718 OFFCURVE",
"360 718 CURVE SMOOTH",
"328 718 OFFCURVE",
"302 692 OFFCURVE",
"302 660 CURVE SMOOTH"
);
}
);
width = 480;
}
);
leftKerningGroup = E;
unicode = 00CB;
},
{
glyphname = F;
layers = (
{
hints = (
{
horizontal = 1;
origin = "{2, 2}";
target = "{2, 8}";
type = Stem;
},
{
horizontal = 1;
origin = "{4, 8}";
target = "{4, 2}";
type = Stem;
},
{
origin = "{0, 11}";
target = "{0, 5}";
type = Stem;
}
);
layerId = master01;
paths = (
{
closed = 1;
nodes = (
"62 28 OFFCURVE",
"88 2 OFFCURVE",
"120 2 CURVE SMOOTH",
"152 2 OFFCURVE",
"178 28 OFFCURVE",
"178 60 CURVE SMOOTH",
"178 92 OFFCURVE",
"152 118 OFFCURVE",
"120 118 CURVE SMOOTH",
"88 118 OFFCURVE",
"62 92 OFFCURVE",
"62 60 CURVE SMOOTH {name = hr00;}"
);
},
{
closed = 1;
nodes = (
"62 148 OFFCURVE",
"88 122 OFFCURVE",
"120 122 CURVE SMOOTH",
"152 122 OFFCURVE",
"178 148 OFFCURVE",
"178 180 CURVE SMOOTH",
"178 212 OFFCURVE",
"152 238 OFFCURVE",
"120 238 CURVE SMOOTH",
"88 238 OFFCURVE",
"62 212 OFFCURVE",
"62 180 CURVE SMOOTH"
);
},
{
closed = 1;
nodes = (
"62 268 OFFCURVE",
"88 242 OFFCURVE",
"120 242 CURVE SMOOTH",
"152 242 OFFCURVE",
"178 268 OFFCURVE",
"178 300 CURVE SMOOTH",
"178 332 OFFCURVE",
"152 358 OFFCURVE",
"120 358 CURVE SMOOTH",
"88 358 OFFCURVE",
"62 332 OFFCURVE",
"62 300 CURVE SMOOTH"
);
},
{
closed = 1;
nodes = (
"62 388 OFFCURVE",
"88 362 OFFCURVE",
"120 362 CURVE SMOOTH",
"152 362 OFFCURVE",
"178 388 OFFCURVE",
"178 420 CURVE SMOOTH",
"178 452 OFFCURVE",
"152 478 OFFCURVE",
"120 478 CURVE SMOOTH",
"88 478 OFFCURVE",
"62 452 OFFCURVE",
"62 420 CURVE SMOOTH"
);
},
{
closed = 1;
nodes = (
"62 508 OFFCURVE",
"88 482 OFFCURVE",
"120 482 CURVE SMOOTH",
"152 482 OFFCURVE",
"178 508 OFFCURVE",
"178 540 CURVE SMOOTH",
"178 572 OFFCURVE",
"152 598 OFFCURVE",
"120 598 CURVE SMOOTH",
"88 598 OFFCURVE",
"62 572 OFFCURVE",
"62 540 CURVE SMOOTH"
);
},
{
closed = 1;
nodes = (
"182 268 OFFCURVE",
"208 242 OFFCURVE",
"240 242 CURVE SMOOTH",
"272 242 OFFCURVE",
"298 268 OFFCURVE",
"298 300 CURVE SMOOTH",
"298 332 OFFCURVE",
"272 358 OFFCURVE",
"240 358 CURVE SMOOTH",
"208 358 OFFCURVE",
"182 332 OFFCURVE",
"182 300 CURVE SMOOTH"
);
},
{
closed = 1;
nodes = (
"182 508 OFFCURVE",
"208 482 OFFCURVE",
"240 482 CURVE SMOOTH",
"272 482 OFFCURVE",
"298 508 OFFCURVE",
"298 540 CURVE SMOOTH",
"298 572 OFFCURVE",
"272 598 OFFCURVE",
"240 598 CURVE SMOOTH",
"208 598 OFFCURVE",
"182 572 OFFCURVE",
"182 540 CURVE SMOOTH"
);
},
{
closed = 1;
nodes = (
"302 508 OFFCURVE",
"328 482 OFFCURVE",
"360 482 CURVE SMOOTH",
"392 482 OFFCURVE",
"418 508 OFFCURVE",
"418 540 CURVE SMOOTH",
"418 572 OFFCURVE",
"392 598 OFFCURVE",
"360 598 CURVE SMOOTH",
"328 598 OFFCURVE",
"302 572 OFFCURVE",
"302 540 CURVE SMOOTH"
);
}
);
width = 480;
}
);
leftKerningGroup = E;
unicode = 0046;
},
{
glyphname = G;
layers = (
{
anchors = (
{
name = top;
position = "{360, 600}";
}
);
hints = (
{
horizontal = 1;
origin = "{0, 2}";
target = "{0, 8}";
type = Stem;
},
{
horizontal = 1;
origin = "{4, 8}";
target = "{4, 2}";
type = Stem;
},
{
origin = "{7, 11}";
target = "{7, 5}";
type = Stem;
},
{
origin = "{8, 5}";
target = "{8, 11}";
type = Stem;
}
);
layerId = master01;
paths = (
{
closed = 1;
nodes = (
"242 28 OFFCURVE",
"268 2 OFFCURVE",
"300 2 CURVE SMOOTH",
"332 2 OFFCURVE",
"358 28 OFFCURVE",
"358 60 CURVE SMOOTH",
"358 92 OFFCURVE",
"332 118 OFFCURVE",
"300 118 CURVE SMOOTH",
"268 118 OFFCURVE",
"242 92 OFFCURVE",
"242 60 CURVE SMOOTH {name = hr00;}"
);
},
{
closed = 1;
nodes = (
"122 88 OFFCURVE",
"148 62 OFFCURVE",
"180 62 CURVE SMOOTH",
"212 62 OFFCURVE",
"238 88 OFFCURVE",
"238 120 CURVE SMOOTH",
"238 152 OFFCURVE",
"212 178 OFFCURVE",
"180 178 CURVE SMOOTH",
"148 178 OFFCURVE",
"122 152 OFFCURVE",
"122 120 CURVE SMOOTH"
);
},
{
closed = 1;
nodes = (
"62 328 OFFCURVE",
"88 302 OFFCURVE",
"120 302 CURVE SMOOTH",
"152 302 OFFCURVE",
"178 328 OFFCURVE",
"178 360 CURVE SMOOTH",
"178 392 OFFCURVE",
"152 418 OFFCURVE",
"120 418 CURVE SMOOTH",
"88 418 OFFCURVE",
"62 392 OFFCURVE",
"62 360 CURVE SMOOTH"
);
},
{
closed = 1;
nodes = (
"122 448 OFFCURVE",
"148 422 OFFCURVE",
"180 422 CURVE SMOOTH",
"212 422 OFFCURVE",
"238 448 OFFCURVE",
"238 480 CURVE SMOOTH",
"238 512 OFFCURVE",
"212 538 OFFCURVE",
"180 538 CURVE SMOOTH",
"148 538 OFFCURVE",
"122 512 OFFCURVE",
"122 480 CURVE SMOOTH"
);
},
{
closed = 1;
nodes = (
"242 508 OFFCURVE",
"268 482 OFFCURVE",
"300 482 CURVE SMOOTH",
"332 482 OFFCURVE",
"358 508 OFFCURVE",
"358 540 CURVE SMOOTH",
"358 572 OFFCURVE",
"332 598 OFFCURVE",
"300 598 CURVE SMOOTH",
"268 598 OFFCURVE",
"242 572 OFFCURVE",
"242 540 CURVE SMOOTH"
);
},
{
closed = 1;
nodes = (
"362 508 OFFCURVE",
"388 482 OFFCURVE",
"420 482 CURVE SMOOTH",
"452 482 OFFCURVE",
"478 508 OFFCURVE",
"478 540 CURVE SMOOTH",
"478 572 OFFCURVE",
"452 598 OFFCURVE",
"420 598 CURVE SMOOTH",
"388 598 OFFCURVE",
"362 572 OFFCURVE",
"362 540 CURVE SMOOTH"
);
},
{
closed = 1;
nodes = (
"362 28 OFFCURVE",
"388 2 OFFCURVE",
"420 2 CURVE SMOOTH",
"452 2 OFFCURVE",
"478 28 OFFCURVE",
"478 60 CURVE SMOOTH",
"478 92 OFFCURVE",
"452 118 OFFCURVE",
"420 118 CURVE SMOOTH",
"388 118 OFFCURVE",
"362 92 OFFCURVE",
"362 60 CURVE SMOOTH"
);
},
{
closed = 1;
nodes = (
"62 208 OFFCURVE",
"88 182 OFFCURVE",
"120 182 CURVE SMOOTH",
"152 182 OFFCURVE",
"178 208 OFFCURVE",
"178 240 CURVE SMOOTH",
"178 272 OFFCURVE",
"152 298 OFFCURVE",
"120 298 CURVE SMOOTH",
"88 298 OFFCURVE",
"62 272 OFFCURVE",
"62 240 CURVE SMOOTH"
);
},
{
closed = 1;
nodes = (
"422 148 OFFCURVE",
"448 122 OFFCURVE",
"480 122 CURVE SMOOTH",
"512 122 OFFCURVE",
"538 148 OFFCURVE",
"538 180 CURVE SMOOTH",
"538 212 OFFCURVE",
"512 238 OFFCURVE",
"480 238 CURVE SMOOTH",
"448 238 OFFCURVE",
"422 212 OFFCURVE",
"422 180 CURVE SMOOTH"
);
},
{
closed = 1;
nodes = (
"422 268 OFFCURVE",
"448 242 OFFCURVE",
"480 242 CURVE SMOOTH",
"512 242 OFFCURVE",
"538 268 OFFCURVE",
"538 300 CURVE SMOOTH",
"538 332 OFFCURVE",
"512 358 OFFCURVE",
"480 358 CURVE SMOOTH",
"448 358 OFFCURVE",
"422 332 OFFCURVE",
"422 300 CURVE SMOOTH"
);
},
{
closed = 1;
nodes = (
"302 268 OFFCURVE",
"328 242 OFFCURVE",
"360 242 CURVE SMOOTH",
"392 242 OFFCURVE",
"418 268 OFFCURVE",
"418 300 CURVE SMOOTH",
"418 332 OFFCURVE",
"392 358 OFFCURVE",
"360 358 CURVE SMOOTH",
"328 358 OFFCURVE",
"302 332 OFFCURVE",
"302 300 CURVE SMOOTH"
);
}
);
width = 600;
}
);
leftKerningGroup = O;
rightKerningGroup = G;
unicode = 0047;
},
{
glyphname = H;
layers = (
{
hints = (
{
horizontal = 1;
origin = "{0, 2}";
target = up;
type = BottomGhost;
},
{
horizontal = 1;
origin = "{2, 2}";
target = "{2, 8}";
type = Stem;
},
{
horizontal = 1;
origin = "{4, 8}";
target = down;
type = TopGhost;
},
{
origin = "{0, 11}";
target = "{0, 5}";
type = Stem;
},
{
origin = "{6, 5}";
target = "{6, 11}";
type = Stem;
}
);
layerId = master01;
paths = (
{
closed = 1;
nodes = (
"62 28 OFFCURVE",
"88 2 OFFCURVE",
"120 2 CURVE SMOOTH",
"152 2 OFFCURVE",
"178 28 OFFCURVE",
"178 60 CURVE SMOOTH",
"178 92 OFFCURVE",
"152 118 OFFCURVE",
"120 118 CURVE SMOOTH",
"88 118 OFFCURVE",
"62 92 OFFCURVE",
"62 60 CURVE SMOOTH {name = hr00;}"
);
},
{
closed = 1;
nodes = (
"62 148 OFFCURVE",
"88 122 OFFCURVE",
"120 122 CURVE SMOOTH",
"152 122 OFFCURVE",
"178 148 OFFCURVE",
"178 180 CURVE SMOOTH",
"178 212 OFFCURVE",
"152 238 OFFCURVE",
"120 238 CURVE SMOOTH",
"88 238 OFFCURVE",
"62 212 OFFCURVE",
"62 180 CURVE SMOOTH"
);
},
{
closed = 1;
nodes = (
"62 268 OFFCURVE",
"88 242 OFFCURVE",
"120 242 CURVE SMOOTH",
"152 242 OFFCURVE",
"178 268 OFFCURVE",
"178 300 CURVE SMOOTH",
"178 332 OFFCURVE",
"152 358 OFFCURVE",
"120 358 CURVE SMOOTH",
"88 358 OFFCURVE",
"62 332 OFFCURVE",
"62 300 CURVE SMOOTH"
);
},
{
closed = 1;
nodes = (
"62 388 OFFCURVE",
"88 362 OFFCURVE",
"120 362 CURVE SMOOTH",
"152 362 OFFCURVE",
"178 388 OFFCURVE",
"178 420 CURVE SMOOTH",
"178 452 OFFCURVE",
"152 478 OFFCURVE",
"120 478 CURVE SMOOTH",
"88 478 OFFCURVE",
"62 452 OFFCURVE",
"62 420 CURVE SMOOTH"
);
},
{
closed = 1;
nodes = (
"62 508 OFFCURVE",
"88 482 OFFCURVE",
"120 482 CURVE SMOOTH",
"152 482 OFFCURVE",
"178 508 OFFCURVE",
"178 540 CURVE SMOOTH",
"178 572 OFFCURVE",
"152 598 OFFCURVE",
"120 598 CURVE SMOOTH",
"88 598 OFFCURVE",
"62 572 OFFCURVE",
"62 540 CURVE SMOOTH"
);
},
{
closed = 1;
nodes = (
"182 268 OFFCURVE",
"208 242 OFFCURVE",
"240 242 CURVE SMOOTH",
"272 242 OFFCURVE",
"298 268 OFFCURVE",
"298 300 CURVE SMOOTH",
"298 332 OFFCURVE",
"272 358 OFFCURVE",
"240 358 CURVE SMOOTH",
"208 358 OFFCURVE",
"182 332 OFFCURVE",
"182 300 CURVE SMOOTH"
);
},
{
closed = 1;
nodes = (
"422 28 OFFCURVE",
"448 2 OFFCURVE",
"480 2 CURVE SMOOTH",
"512 2 OFFCURVE",
"538 28 OFFCURVE",
"538 60 CURVE SMOOTH",
"538 92 OFFCURVE",
"512 118 OFFCURVE",
"480 118 CURVE SMOOTH",
"448 118 OFFCURVE",
"422 92 OFFCURVE",
"422 60 CURVE SMOOTH"
);
},
{
closed = 1;
nodes = (
"422 268 OFFCURVE",
"448 242 OFFCURVE",
"480 242 CURVE SMOOTH",
"512 242 OFFCURVE",
"538 268 OFFCURVE",
"538 300 CURVE SMOOTH",
"538 332 OFFCURVE",
"512 358 OFFCURVE",
"480 358 CURVE SMOOTH",
"448 358 OFFCURVE",
"422 332 OFFCURVE",
"422 300 CURVE SMOOTH"
);
},
{
closed = 1;
nodes = (
"422 508 OFFCURVE",
"448 482 OFFCURVE",
"480 482 CURVE SMOOTH",
"512 482 OFFCURVE",
"538 508 OFFCURVE",
"538 540 CURVE SMOOTH",
"538 572 OFFCURVE",
"512 598 OFFCURVE",
"480 598 CURVE SMOOTH",
"448 598 OFFCURVE",
"422 572 OFFCURVE",
"422 540 CURVE SMOOTH"
);
},
{
closed = 1;
nodes = (
"422 388 OFFCURVE",
"448 362 OFFCURVE",
"480 362 CURVE SMOOTH",
"512 362 OFFCURVE",
"538 388 OFFCURVE",
"538 420 CURVE SMOOTH",
"538 452 OFFCURVE",
"512 478 OFFCURVE",
"480 478 CURVE SMOOTH",
"448 478 OFFCURVE",
"422 452 OFFCURVE",
"422 420 CURVE SMOOTH"
);
},
{
closed = 1;
nodes = (
"422 148 OFFCURVE",
"448 122 OFFCURVE",
"480 122 CURVE SMOOTH",
"512 122 OFFCURVE",
"538 148 OFFCURVE",
"538 180 CURVE SMOOTH",
"538 212 OFFCURVE",
"512 238 OFFCURVE",
"480 238 CURVE SMOOTH",
"448 238 OFFCURVE",
"422 212 OFFCURVE",
"422 180 CURVE SMOOTH"
);
},
{
closed = 1;
nodes = (
"302 268 OFFCURVE",
"328 242 OFFCURVE",
"360 242 CURVE SMOOTH",
"392 242 OFFCURVE",
"418 268 OFFCURVE",
"418 300 CURVE SMOOTH",
"418 332 OFFCURVE",
"392 358 OFFCURVE",
"360 358 CURVE SMOOTH",
"328 358 OFFCURVE",
"302 332 OFFCURVE",
"302 300 CURVE SMOOTH"
);
}
);
width = 600;
}
);
leftKerningGroup = E;
rightKerningGroup = H;
unicode = 0048;
},
{
glyphname = I;
layers = (
{
anchors = (
{
name = top;
position = "{180, 600}";
}
);
hints = (
{
horizontal = 1;
origin = "{0, 2}";
target = "{0, 8}";
type = Stem;
},
{
horizontal = 1;
origin = "{4, 8}";
target = "{4, 2}";
type = Stem;
},
{
origin = "{2, 11}";
target = "{2, 5}";
type = Stem;
}
);
layerId = master01;
paths = (
{
closed = 1;
nodes = (
"62 28 OFFCURVE",
"88 2 OFFCURVE",
"120 2 CURVE SMOOTH",
"152 2 OFFCURVE",
"178 28 OFFCURVE",
"178 60 CURVE SMOOTH",
"178 92 OFFCURVE",
"152 118 OFFCURVE",
"120 118 CURVE SMOOTH",
"88 118 OFFCURVE",
"62 92 OFFCURVE",
"62 60 CURVE SMOOTH {name = hr00;}"
);
},
{
closed = 1;
nodes = (
"182 28 OFFCURVE",
"208 2 OFFCURVE",
"240 2 CURVE SMOOTH",
"272 2 OFFCURVE",
"298 28 OFFCURVE",
"298 60 CURVE SMOOTH",
"298 92 OFFCURVE",
"272 118 OFFCURVE",
"240 118 CURVE SMOOTH",
"208 118 OFFCURVE",
"182 92 OFFCURVE",
"182 60 CURVE SMOOTH"
);
},
{
closed = 1;
nodes = (
"122 148 OFFCURVE",
"148 122 OFFCURVE",
"180 122 CURVE SMOOTH",
"212 122 OFFCURVE",
"238 148 OFFCURVE",
"238 180 CURVE SMOOTH",
"238 212 OFFCURVE",
"212 238 OFFCURVE",
"180 238 CURVE SMOOTH",
"148 238 OFFCURVE",
"122 212 OFFCURVE",
"122 180 CURVE SMOOTH"
);
},
{
closed = 1;
nodes = (
"122 268 OFFCURVE",
"148 242 OFFCURVE",
"180 242 CURVE SMOOTH",
"212 242 OFFCURVE",
"238 268 OFFCURVE",
"238 300 CURVE SMOOTH",
"238 332 OFFCURVE",
"212 358 OFFCURVE",
"180 358 CURVE SMOOTH",
"148 358 OFFCURVE",
"122 332 OFFCURVE",
"122 300 CURVE SMOOTH"
);
},
{
closed = 1;
nodes = (
"62 508 OFFCURVE",
"88 482 OFFCURVE",
"120 482 CURVE SMOOTH",
"152 482 OFFCURVE",
"178 508 OFFCURVE",
"178 540 CURVE SMOOTH",
"178 572 OFFCURVE",
"152 598 OFFCURVE",
"120 598 CURVE SMOOTH",
"88 598 OFFCURVE",
"62 572 OFFCURVE",
"62 540 CURVE SMOOTH"
);
},
{
closed = 1;
nodes = (
"182 508 OFFCURVE",
"208 482 OFFCURVE",
"240 482 CURVE SMOOTH",
"272 482 OFFCURVE",
"298 508 OFFCURVE",
"298 540 CURVE SMOOTH",
"298 572 OFFCURVE",
"272 598 OFFCURVE",
"240 598 CURVE SMOOTH",
"208 598 OFFCURVE",
"182 572 OFFCURVE",
"182 540 CURVE SMOOTH"
);
},
{
closed = 1;
nodes = (
"122 388 OFFCURVE",
"148 362 OFFCURVE",
"180 362 CURVE SMOOTH",
"212 362 OFFCURVE",
"238 388 OFFCURVE",
"238 420 CURVE SMOOTH",
"238 452 OFFCURVE",
"212 478 OFFCURVE",
"180 478 CURVE SMOOTH",
"148 478 OFFCURVE",
"122 452 OFFCURVE",
"122 420 CURVE SMOOTH"
);
}
);
width = 360;
}
);
leftKerningGroup = I;
rightKerningGroup = I;
unicode = 0049;
},
{
glyphname = Idotaccent;
layers = (
{
anchors = (
{
name = top;
position = "{180, 600}";
}
);
hints = (
{
horizontal = 1;
origin = "{0, 2}";
target = "{0, 8}";
type = Stem;
},
{
horizontal = 1;
origin = "{4, 8}";
target = "{4, 2}";
type = Stem;
},
{
horizontal = 1;
origin = "{7, 8}";
target = "{7, 2}";
type = Stem;
},
{
origin = "{2, 11}";
target = "{2, 5}";
type = Stem;
}
);
layerId = master01;
paths = (
{
closed = 1;
nodes = (
"62 28 OFFCURVE",
"88 2 OFFCURVE",
"120 2 CURVE SMOOTH",
"152 2 OFFCURVE",
"178 28 OFFCURVE",
"178 60 CURVE SMOOTH",
"178 92 OFFCURVE",
"152 118 OFFCURVE",
"120 118 CURVE SMOOTH",
"88 118 OFFCURVE",
"62 92 OFFCURVE",
"62 60 CURVE SMOOTH {name = hr00;}"
);
},
{
closed = 1;
nodes = (
"182 28 OFFCURVE",
"208 2 OFFCURVE",
"240 2 CURVE SMOOTH",
"272 2 OFFCURVE",
"298 28 OFFCURVE",
"298 60 CURVE SMOOTH",
"298 92 OFFCURVE",
"272 118 OFFCURVE",
"240 118 CURVE SMOOTH",
"208 118 OFFCURVE",
"182 92 OFFCURVE",
"182 60 CURVE SMOOTH"
);
},
{
closed = 1;
nodes = (
"122 148 OFFCURVE",
"148 122 OFFCURVE",
"180 122 CURVE SMOOTH",
"212 122 OFFCURVE",
"238 148 OFFCURVE",
"238 180 CURVE SMOOTH",
"238 212 OFFCURVE",
"212 238 OFFCURVE",
"180 238 CURVE SMOOTH",
"148 238 OFFCURVE",
"122 212 OFFCURVE",
"122 180 CURVE SMOOTH"
);
},
{
closed = 1;
nodes = (
"122 268 OFFCURVE",
"148 242 OFFCURVE",
"180 242 CURVE SMOOTH",
"212 242 OFFCURVE",
"238 268 OFFCURVE",
"238 300 CURVE SMOOTH",
"238 332 OFFCURVE",
"212 358 OFFCURVE",
"180 358 CURVE SMOOTH",
"148 358 OFFCURVE",
"122 332 OFFCURVE",
"122 300 CURVE SMOOTH"
);
},
{
closed = 1;
nodes = (
"62 508 OFFCURVE",
"88 482 OFFCURVE",
"120 482 CURVE SMOOTH",
"152 482 OFFCURVE",
"178 508 OFFCURVE",
"178 540 CURVE SMOOTH",
"178 572 OFFCURVE",
"152 598 OFFCURVE",
"120 598 CURVE SMOOTH",
"88 598 OFFCURVE",
"62 572 OFFCURVE",
"62 540 CURVE SMOOTH"
);
},
{
closed = 1;
nodes = (
"182 508 OFFCURVE",
"208 482 OFFCURVE",
"240 482 CURVE SMOOTH",
"272 482 OFFCURVE",
"298 508 OFFCURVE",
"298 540 CURVE SMOOTH",
"298 572 OFFCURVE",
"272 598 OFFCURVE",
"240 598 CURVE SMOOTH",
"208 598 OFFCURVE",
"182 572 OFFCURVE",
"182 540 CURVE SMOOTH"
);
},
{
closed = 1;
nodes = (
"122 388 OFFCURVE",
"148 362 OFFCURVE",
"180 362 CURVE SMOOTH",
"212 362 OFFCURVE",
"238 388 OFFCURVE",
"238 420 CURVE SMOOTH",
"238 452 OFFCURVE",
"212 478 OFFCURVE",
"180 478 CURVE SMOOTH",
"148 478 OFFCURVE",
"122 452 OFFCURVE",
"122 420 CURVE SMOOTH"
);
},
{
closed = 1;
nodes = (
"122 668 OFFCURVE",
"148 642 OFFCURVE",
"180 642 CURVE SMOOTH",
"212 642 OFFCURVE",
"238 668 OFFCURVE",
"238 700 CURVE SMOOTH",
"238 732 OFFCURVE",
"212 758 OFFCURVE",
"180 758 CURVE SMOOTH",
"148 758 OFFCURVE",
"122 732 OFFCURVE",
"122 700 CURVE SMOOTH"
);
}
);
width = 360;
}
);
leftKerningGroup = I;
rightKerningGroup = I;
unicode = 0130;
},
{
glyphname = J;
layers = (
{
hints = (
{
horizontal = 1;
origin = "{5, 2}";
target = "{5, 8}";
type = Stem;
},
{
horizontal = 1;
origin = "{0, 8}";
target = down;
type = TopGhost;
},
{
origin = "{3, 5}";
target = "{3, 11}";
type = Stem;
}
);
layerId = master01;
paths = (
{
closed = 1;
nodes = (
"302 508 OFFCURVE",
"328 482 OFFCURVE",
"360 482 CURVE SMOOTH",
"392 482 OFFCURVE",
"418 508 OFFCURVE",
"418 540 CURVE SMOOTH",
"418 572 OFFCURVE",
"392 598 OFFCURVE",
"360 598 CURVE SMOOTH",
"328 598 OFFCURVE",
"302 572 OFFCURVE",
"302 540 CURVE SMOOTH {name = hr00;}"
);
},
{
closed = 1;
nodes = (
"302 388 OFFCURVE",
"328 362 OFFCURVE",
"360 362 CURVE SMOOTH",
"392 362 OFFCURVE",
"418 388 OFFCURVE",
"418 420 CURVE SMOOTH",
"418 452 OFFCURVE",
"392 478 OFFCURVE",
"360 478 CURVE SMOOTH",
"328 478 OFFCURVE",
"302 452 OFFCURVE",
"302 420 CURVE SMOOTH"
);
},
{
closed = 1;
nodes = (
"302 268 OFFCURVE",
"328 242 OFFCURVE",
"360 242 CURVE SMOOTH",
"392 242 OFFCURVE",
"418 268 OFFCURVE",
"418 300 CURVE SMOOTH",
"418 332 OFFCURVE",
"392 358 OFFCURVE",
"360 358 CURVE SMOOTH",
"328 358 OFFCURVE",
"302 332 OFFCURVE",
"302 300 CURVE SMOOTH"
);
},
{
closed = 1;
nodes = (
"302 148 OFFCURVE",
"328 122 OFFCURVE",
"360 122 CURVE SMOOTH",
"392 122 OFFCURVE",
"418 148 OFFCURVE",
"418 180 CURVE SMOOTH",
"418 212 OFFCURVE",
"392 238 OFFCURVE",
"360 238 CURVE SMOOTH",
"328 238 OFFCURVE",
"302 212 OFFCURVE",
"302 180 CURVE SMOOTH"
);
},
{
closed = 1;
nodes = (
"242 28 OFFCURVE",
"268 2 OFFCURVE",
"300 2 CURVE SMOOTH",
"332 2 OFFCURVE",
"358 28 OFFCURVE",
"358 60 CURVE SMOOTH",
"358 92 OFFCURVE",
"332 118 OFFCURVE",
"300 118 CURVE SMOOTH",
"268 118 OFFCURVE",
"242 92 OFFCURVE",
"242 60 CURVE SMOOTH"
);
},
{
closed = 1;
nodes = (
"122 28 OFFCURVE",
"148 2 OFFCURVE",
"180 2 CURVE SMOOTH",
"212 2 OFFCURVE",
"238 28 OFFCURVE",
"238 60 CURVE SMOOTH",
"238 92 OFFCURVE",
"212 118 OFFCURVE",
"180 118 CURVE SMOOTH",
"148 118 OFFCURVE",
"122 92 OFFCURVE",
"122 60 CURVE SMOOTH"
);
},
{
closed = 1;
nodes = (
"62 148 OFFCURVE",
"88 122 OFFCURVE",
"120 122 CURVE SMOOTH",
"152 122 OFFCURVE",
"178 148 OFFCURVE",
"178 180 CURVE SMOOTH",
"178 212 OFFCURVE",
"152 238 OFFCURVE",
"120 238 CURVE SMOOTH",
"88 238 OFFCURVE",
"62 212 OFFCURVE",
"62 180 CURVE SMOOTH"
);
}
);
width = 480;
}
);
unicode = 004A;
},
{
glyphname = K;
layers = (
{
hints = (
{
horizontal = 1;
origin = "{0, 2}";
target = up;
type = BottomGhost;
},
{
horizontal = 1;
origin = "{4, 8}";
target = down;
type = TopGhost;
},
{
origin = "{0, 11}";
target = "{0, 5}";
type = Stem;
}
);
layerId = master01;
paths = (
{
closed = 1;
nodes = (
"62 28 OFFCURVE",
"88 2 OFFCURVE",
"120 2 CURVE SMOOTH",
"152 2 OFFCURVE",
"178 28 OFFCURVE",
"178 60 CURVE SMOOTH",
"178 92 OFFCURVE",
"152 118 OFFCURVE",
"120 118 CURVE SMOOTH",
"88 118 OFFCURVE",
"62 92 OFFCURVE",
"62 60 CURVE SMOOTH {name = hr00;}"
);
},
{
closed = 1;
nodes = (
"62 148 OFFCURVE",
"88 122 OFFCURVE",
"120 122 CURVE SMOOTH",
"152 122 OFFCURVE",
"178 148 OFFCURVE",
"178 180 CURVE SMOOTH",
"178 212 OFFCURVE",
"152 238 OFFCURVE",
"120 238 CURVE SMOOTH",
"88 238 OFFCURVE",
"62 212 OFFCURVE",
"62 180 CURVE SMOOTH"
);
},
{
closed = 1;
nodes = (
"62 268 OFFCURVE",
"88 242 OFFCURVE",
"120 242 CURVE SMOOTH",
"152 242 OFFCURVE",
"178 268 OFFCURVE",
"178 300 CURVE SMOOTH",
"178 332 OFFCURVE",
"152 358 OFFCURVE",
"120 358 CURVE SMOOTH",
"88 358 OFFCURVE",
"62 332 OFFCURVE",
"62 300 CURVE SMOOTH"
);
},
{
closed = 1;
nodes = (
"62 388 OFFCURVE",
"88 362 OFFCURVE",
"120 362 CURVE SMOOTH",
"152 362 OFFCURVE",
"178 388 OFFCURVE",
"178 420 CURVE SMOOTH",
"178 452 OFFCURVE",
"152 478 OFFCURVE",
"120 478 CURVE SMOOTH",
"88 478 OFFCURVE",
"62 452 OFFCURVE",
"62 420 CURVE SMOOTH"
);
},
{
closed = 1;
nodes = (
"62 508 OFFCURVE",
"88 482 OFFCURVE",
"120 482 CURVE SMOOTH",
"152 482 OFFCURVE",
"178 508 OFFCURVE",
"178 540 CURVE SMOOTH",
"178 572 OFFCURVE",
"152 598 OFFCURVE",
"120 598 CURVE SMOOTH",
"88 598 OFFCURVE",
"62 572 OFFCURVE",
"62 540 CURVE SMOOTH"
);
},
{
closed = 1;
nodes = (
"182 268 OFFCURVE",
"208 242 OFFCURVE",
"240 242 CURVE SMOOTH",
"272 242 OFFCURVE",
"298 268 OFFCURVE",
"298 300 CURVE SMOOTH",
"298 332 OFFCURVE",
"272 358 OFFCURVE",
"240 358 CURVE SMOOTH",
"208 358 OFFCURVE",
"182 332 OFFCURVE",
"182 300 CURVE SMOOTH"
);
},
{
closed = 1;
nodes = (
"242 388 OFFCURVE",
"268 362 OFFCURVE",
"300 362 CURVE SMOOTH",
"332 362 OFFCURVE",
"358 388 OFFCURVE",
"358 420 CURVE SMOOTH",
"358 452 OFFCURVE",
"332 478 OFFCURVE",
"300 478 CURVE SMOOTH",
"268 478 OFFCURVE",
"242 452 OFFCURVE",
"242 420 CURVE SMOOTH"
);
},
{
closed = 1;
nodes = (
"302 508 OFFCURVE",
"328 482 OFFCURVE",
"360 482 CURVE SMOOTH",
"392 482 OFFCURVE",
"418 508 OFFCURVE",
"418 540 CURVE SMOOTH",
"418 572 OFFCURVE",
"392 598 OFFCURVE",
"360 598 CURVE SMOOTH",
"328 598 OFFCURVE",
"302 572 OFFCURVE",
"302 540 CURVE SMOOTH"
);
},
{
closed = 1;
nodes = (
"242 148 OFFCURVE",
"268 122 OFFCURVE",
"300 122 CURVE SMOOTH",
"332 122 OFFCURVE",
"358 148 OFFCURVE",
"358 180 CURVE SMOOTH",
"358 212 OFFCURVE",
"332 238 OFFCURVE",
"300 238 CURVE SMOOTH",
"268 238 OFFCURVE",
"242 212 OFFCURVE",
"242 180 CURVE SMOOTH"
);
},
{
closed = 1;
nodes = (
"302 28 OFFCURVE",
"328 2 OFFCURVE",
"360 2 CURVE SMOOTH",
"392 2 OFFCURVE",
"418 28 OFFCURVE",
"418 60 CURVE SMOOTH",
"418 92 OFFCURVE",
"392 118 OFFCURVE",
"360 118 CURVE SMOOTH",
"328 118 OFFCURVE",
"302 92 OFFCURVE",
"302 60 CURVE SMOOTH"
);
}
);
width = 480;
}
);
leftKerningGroup = E;
unicode = 004B;
},
{
glyphname = L;
layers = (
{
hints = (
{
horizontal = 1;
origin = "{0, 2}";
target = "{0, 8}";
type = Stem;
},
{
horizontal = 1;
origin = "{4, 8}";
target = down;
type = TopGhost;
},
{
origin = "{0, 11}";
target = "{0, 5}";
type = Stem;
}
);
layerId = master01;
paths = (
{
closed = 1;
nodes = (
"62 28 OFFCURVE",
"88 2 OFFCURVE",
"120 2 CURVE SMOOTH",
"152 2 OFFCURVE",
"178 28 OFFCURVE",
"178 60 CURVE SMOOTH",
"178 92 OFFCURVE",
"152 118 OFFCURVE",
"120 118 CURVE SMOOTH",
"88 118 OFFCURVE",
"62 92 OFFCURVE",
"62 60 CURVE SMOOTH {name = hr00;}"
);
},
{
closed = 1;
nodes = (
"62 148 OFFCURVE",
"88 122 OFFCURVE",
"120 122 CURVE SMOOTH",
"152 122 OFFCURVE",
"178 148 OFFCURVE",
"178 180 CURVE SMOOTH",
"178 212 OFFCURVE",
"152 238 OFFCURVE",
"120 238 CURVE SMOOTH",
"88 238 OFFCURVE",
"62 212 OFFCURVE",
"62 180 CURVE SMOOTH"
);
},
{
closed = 1;
nodes = (
"62 268 OFFCURVE",
"88 242 OFFCURVE",
"120 242 CURVE SMOOTH",
"152 242 OFFCURVE",
"178 268 OFFCURVE",
"178 300 CURVE SMOOTH",
"178 332 OFFCURVE",
"152 358 OFFCURVE",
"120 358 CURVE SMOOTH",
"88 358 OFFCURVE",
"62 332 OFFCURVE",
"62 300 CURVE SMOOTH"
);
},
{
closed = 1;
nodes = (
"62 388 OFFCURVE",
"88 362 OFFCURVE",
"120 362 CURVE SMOOTH",
"152 362 OFFCURVE",
"178 388 OFFCURVE",
"178 420 CURVE SMOOTH",
"178 452 OFFCURVE",
"152 478 OFFCURVE",
"120 478 CURVE SMOOTH",
"88 478 OFFCURVE",
"62 452 OFFCURVE",
"62 420 CURVE SMOOTH"
);
},
{
closed = 1;
nodes = (
"62 508 OFFCURVE",
"88 482 OFFCURVE",
"120 482 CURVE SMOOTH",
"152 482 OFFCURVE",
"178 508 OFFCURVE",
"178 540 CURVE SMOOTH",
"178 572 OFFCURVE",
"152 598 OFFCURVE",
"120 598 CURVE SMOOTH",
"88 598 OFFCURVE",
"62 572 OFFCURVE",
"62 540 CURVE SMOOTH"
);
},
{
closed = 1;
nodes = (
"182 28 OFFCURVE",
"208 2 OFFCURVE",
"240 2 CURVE SMOOTH",
"272 2 OFFCURVE",
"298 28 OFFCURVE",
"298 60 CURVE SMOOTH",
"298 92 OFFCURVE",
"272 118 OFFCURVE",
"240 118 CURVE SMOOTH",
"208 118 OFFCURVE",
"182 92 OFFCURVE",
"182 60 CURVE SMOOTH"
);
},
{
closed = 1;
nodes = (
"302 28 OFFCURVE",
"328 2 OFFCURVE",
"360 2 CURVE SMOOTH",
"392 2 OFFCURVE",
"418 28 OFFCURVE",
"418 60 CURVE SMOOTH",
"418 92 OFFCURVE",
"392 118 OFFCURVE",
"360 118 CURVE SMOOTH",
"328 118 OFFCURVE",
"302 92 OFFCURVE",
"302 60 CURVE SMOOTH"
);
}
);
width = 480;
}
);
leftKerningGroup = E;
rightKerningGroup = L;
unicode = 004C;
},
{
glyphname = Lslash;
layers = (
{
hints = (
{
horizontal = 1;
origin = "{0, 2}";
target = "{0, 8}";
type = Stem;
},
{
horizontal = 1;
origin = "{4, 8}";
target = down;
type = TopGhost;
},
{
origin = "{0, 11}";
target = "{0, 5}";
type = Stem;
}
);
layerId = master01;
paths = (
{
closed = 1;
nodes = (
"122 28 OFFCURVE",
"148 2 OFFCURVE",
"180 2 CURVE SMOOTH",
"212 2 OFFCURVE",
"238 28 OFFCURVE",
"238 60 CURVE SMOOTH",
"238 92 OFFCURVE",
"212 118 OFFCURVE",
"180 118 CURVE SMOOTH",
"148 118 OFFCURVE",
"122 92 OFFCURVE",
"122 60 CURVE SMOOTH {name = hr00;}"
);
},
{
closed = 1;
nodes = (
"122 148 OFFCURVE",
"148 122 OFFCURVE",
"180 122 CURVE SMOOTH",
"212 122 OFFCURVE",
"238 148 OFFCURVE",
"238 180 CURVE SMOOTH",
"238 212 OFFCURVE",
"212 238 OFFCURVE",
"180 238 CURVE SMOOTH",
"148 238 OFFCURVE",
"122 212 OFFCURVE",
"122 180 CURVE SMOOTH"
);
},
{
closed = 1;
nodes = (
"122 268 OFFCURVE",
"148 242 OFFCURVE",
"180 242 CURVE SMOOTH",
"212 242 OFFCURVE",
"238 268 OFFCURVE",
"238 300 CURVE SMOOTH",
"238 332 OFFCURVE",
"212 358 OFFCURVE",
"180 358 CURVE SMOOTH",
"148 358 OFFCURVE",
"122 332 OFFCURVE",
"122 300 CURVE SMOOTH"
);
},
{
closed = 1;
nodes = (
"122 388 OFFCURVE",
"148 362 OFFCURVE",
"180 362 CURVE SMOOTH",
"212 362 OFFCURVE",
"238 388 OFFCURVE",
"238 420 CURVE SMOOTH",
"238 452 OFFCURVE",
"212 478 OFFCURVE",
"180 478 CURVE SMOOTH",
"148 478 OFFCURVE",
"122 452 OFFCURVE",
"122 420 CURVE SMOOTH"
);
},
{
closed = 1;
nodes = (
"122 508 OFFCURVE",
"148 482 OFFCURVE",
"180 482 CURVE SMOOTH",
"212 482 OFFCURVE",
"238 508 OFFCURVE",
"238 540 CURVE SMOOTH",
"238 572 OFFCURVE",
"212 598 OFFCURVE",
"180 598 CURVE SMOOTH",
"148 598 OFFCURVE",
"122 572 OFFCURVE",
"122 540 CURVE SMOOTH"
);
},
{
closed = 1;
nodes = (
"242 28 OFFCURVE",
"268 2 OFFCURVE",
"300 2 CURVE SMOOTH",
"332 2 OFFCURVE",
"358 28 OFFCURVE",
"358 60 CURVE SMOOTH",
"358 92 OFFCURVE",
"332 118 OFFCURVE",
"300 118 CURVE SMOOTH",
"268 118 OFFCURVE",
"242 92 OFFCURVE",
"242 60 CURVE SMOOTH"
);
},
{
closed = 1;
nodes = (
"362 28 OFFCURVE",
"388 2 OFFCURVE",
"420 2 CURVE SMOOTH",
"452 2 OFFCURVE",
"478 28 OFFCURVE",
"478 60 CURVE SMOOTH",
"478 92 OFFCURVE",
"452 118 OFFCURVE",
"420 118 CURVE SMOOTH",
"388 118 OFFCURVE",
"362 92 OFFCURVE",
"362 60 CURVE SMOOTH"
);
},
{
closed = 1;
nodes = (
"242 328 OFFCURVE",
"268 302 OFFCURVE",
"300 302 CURVE SMOOTH",
"332 302 OFFCURVE",
"358 328 OFFCURVE",
"358 360 CURVE SMOOTH",
"358 392 OFFCURVE",
"332 418 OFFCURVE",
"300 418 CURVE SMOOTH",
"268 418 OFFCURVE",
"242 392 OFFCURVE",
"242 360 CURVE SMOOTH"
);
},
{
closed = 1;
nodes = (
"2 208 OFFCURVE",
"28 182 OFFCURVE",
"60 182 CURVE SMOOTH",
"92 182 OFFCURVE",
"118 208 OFFCURVE",
"118 240 CURVE SMOOTH",
"118 272 OFFCURVE",
"92 298 OFFCURVE",
"60 298 CURVE SMOOTH",
"28 298 OFFCURVE",
"2 272 OFFCURVE",
"2 240 CURVE SMOOTH"
);
}
);
width = 540;
}
);
rightKerningGroup = L;
unicode = 0141;
},
{
glyphname = M;
layers = (
{
hints = (
{
horizontal = 1;
origin = "{0, 2}";
target = up;
type = BottomGhost;
},
{
horizontal = 1;
origin = "{4, 8}";
target = down;
type = TopGhost;
},
{
origin = "{0, 11}";
target = "{0, 5}";
type = Stem;
},
{
origin = "{6, 5}";
target = "{6, 11}";
type = Stem;
}
);
layerId = master01;
paths = (
{
closed = 1;
nodes = (
"62 28 OFFCURVE",
"88 2 OFFCURVE",
"120 2 CURVE SMOOTH",
"152 2 OFFCURVE",
"178 28 OFFCURVE",
"178 60 CURVE SMOOTH",
"178 92 OFFCURVE",
"152 118 OFFCURVE",
"120 118 CURVE SMOOTH",
"88 118 OFFCURVE",
"62 92 OFFCURVE",
"62 60 CURVE SMOOTH {name = hr00;}"
);
},
{
closed = 1;
nodes = (
"62 148 OFFCURVE",
"88 122 OFFCURVE",
"120 122 CURVE SMOOTH",
"152 122 OFFCURVE",
"178 148 OFFCURVE",
"178 180 CURVE SMOOTH",
"178 212 OFFCURVE",
"152 238 OFFCURVE",
"120 238 CURVE SMOOTH",
"88 238 OFFCURVE",
"62 212 OFFCURVE",
"62 180 CURVE SMOOTH"
);
},
{
closed = 1;
nodes = (
"62 268 OFFCURVE",
"88 242 OFFCURVE",
"120 242 CURVE SMOOTH",
"152 242 OFFCURVE",
"178 268 OFFCURVE",
"178 300 CURVE SMOOTH",
"178 332 OFFCURVE",
"152 358 OFFCURVE",
"120 358 CURVE SMOOTH",
"88 358 OFFCURVE",
"62 332 OFFCURVE",
"62 300 CURVE SMOOTH"
);
},
{
closed = 1;
nodes = (
"62 388 OFFCURVE",
"88 362 OFFCURVE",
"120 362 CURVE SMOOTH",
"152 362 OFFCURVE",
"178 388 OFFCURVE",
"178 420 CURVE SMOOTH",
"178 452 OFFCURVE",
"152 478 OFFCURVE",
"120 478 CURVE SMOOTH",
"88 478 OFFCURVE",
"62 452 OFFCURVE",
"62 420 CURVE SMOOTH"
);
},
{
closed = 1;
nodes = (
"62 508 OFFCURVE",
"88 482 OFFCURVE",
"120 482 CURVE SMOOTH",
"152 482 OFFCURVE",
"178 508 OFFCURVE",
"178 540 CURVE SMOOTH",
"178 572 OFFCURVE",
"152 598 OFFCURVE",
"120 598 CURVE SMOOTH",
"88 598 OFFCURVE",
"62 572 OFFCURVE",
"62 540 CURVE SMOOTH"
);
},
{
closed = 1;
nodes = (
"182 388 OFFCURVE",
"208 362 OFFCURVE",
"240 362 CURVE SMOOTH",
"272 362 OFFCURVE",
"298 388 OFFCURVE",
"298 420 CURVE SMOOTH",
"298 452 OFFCURVE",
"272 478 OFFCURVE",
"240 478 CURVE SMOOTH",
"208 478 OFFCURVE",
"182 452 OFFCURVE",
"182 420 CURVE SMOOTH"
);
},
{
closed = 1;
nodes = (
"542 28 OFFCURVE",
"568 2 OFFCURVE",
"600 2 CURVE SMOOTH",
"632 2 OFFCURVE",
"658 28 OFFCURVE",
"658 60 CURVE SMOOTH",
"658 92 OFFCURVE",
"632 118 OFFCURVE",
"600 118 CURVE SMOOTH",
"568 118 OFFCURVE",
"542 92 OFFCURVE",
"542 60 CURVE SMOOTH"
);
},
{
closed = 1;
nodes = (
"542 268 OFFCURVE",
"568 242 OFFCURVE",
"600 242 CURVE SMOOTH",
"632 242 OFFCURVE",
"658 268 OFFCURVE",
"658 300 CURVE SMOOTH",
"658 332 OFFCURVE",
"632 358 OFFCURVE",
"600 358 CURVE SMOOTH",
"568 358 OFFCURVE",
"542 332 OFFCURVE",
"542 300 CURVE SMOOTH"
);
},
{
closed = 1;
nodes = (
"542 508 OFFCURVE",
"568 482 OFFCURVE",
"600 482 CURVE SMOOTH",
"632 482 OFFCURVE",
"658 508 OFFCURVE",
"658 540 CURVE SMOOTH",
"658 572 OFFCURVE",
"632 598 OFFCURVE",
"600 598 CURVE SMOOTH",
"568 598 OFFCURVE",
"542 572 OFFCURVE",
"542 540 CURVE SMOOTH"
);
},
{
closed = 1;
nodes = (
"542 388 OFFCURVE",
"568 362 OFFCURVE",
"600 362 CURVE SMOOTH",
"632 362 OFFCURVE",
"658 388 OFFCURVE",
"658 420 CURVE SMOOTH",
"658 452 OFFCURVE",
"632 478 OFFCURVE",
"600 478 CURVE SMOOTH",
"568 478 OFFCURVE",
"542 452 OFFCURVE",
"542 420 CURVE SMOOTH"
);
},
{
closed = 1;
nodes = (
"542 148 OFFCURVE",
"568 122 OFFCURVE",
"600 122 CURVE SMOOTH",
"632 122 OFFCURVE",
"658 148 OFFCURVE",
"658 180 CURVE SMOOTH",
"658 212 OFFCURVE",
"632 238 OFFCURVE",
"600 238 CURVE SMOOTH",
"568 238 OFFCURVE",
"542 212 OFFCURVE",
"542 180 CURVE SMOOTH"
);
},
{
closed = 1;
nodes = (
"242 268 OFFCURVE",
"268 242 OFFCURVE",
"300 242 CURVE SMOOTH",
"332 242 OFFCURVE",
"358 268 OFFCURVE",
"358 300 CURVE SMOOTH",
"358 332 OFFCURVE",
"332 358 OFFCURVE",
"300 358 CURVE SMOOTH",
"268 358 OFFCURVE",
"242 332 OFFCURVE",
"242 300 CURVE SMOOTH"
);
},
{
closed = 1;
nodes = (
"302 148 OFFCURVE",
"328 122 OFFCURVE",
"360 122 CURVE SMOOTH",
"392 122 OFFCURVE",
"418 148 OFFCURVE",
"418 180 CURVE SMOOTH",
"418 212 OFFCURVE",
"392 238 OFFCURVE",
"360 238 CURVE SMOOTH",
"328 238 OFFCURVE",
"302 212 OFFCURVE",
"302 180 CURVE SMOOTH"
);
},
{
closed = 1;
nodes = (
"362 268 OFFCURVE",
"388 242 OFFCURVE",
"420 242 CURVE SMOOTH",
"452 242 OFFCURVE",
"478 268 OFFCURVE",
"478 300 CURVE SMOOTH",
"478 332 OFFCURVE",
"452 358 OFFCURVE",
"420 358 CURVE SMOOTH",
"388 358 OFFCURVE",
"362 332 OFFCURVE",
"362 300 CURVE SMOOTH"
);
},
{
closed = 1;
nodes = (
"422 388 OFFCURVE",
"448 362 OFFCURVE",
"480 362 CURVE SMOOTH",
"512 362 OFFCURVE",
"538 388 OFFCURVE",
"538 420 CURVE SMOOTH",
"538 452 OFFCURVE",
"512 478 OFFCURVE",
"480 478 CURVE SMOOTH",
"448 478 OFFCURVE",
"422 452 OFFCURVE",
"422 420 CURVE SMOOTH"
);
}
);
width = 720;
}
);
leftKerningGroup = E;
rightKerningGroup = H;
unicode = 004D;
},
{
glyphname = N;
layers = (
{
anchors = (
{
name = top;
position = "{300, 600}";
}
);
hints = (
{
horizontal = 1;
origin = "{0, 2}";
target = up;
type = BottomGhost;
},
{
horizontal = 1;
origin = "{4, 8}";
target = down;
type = TopGhost;
},
{
origin = "{0, 11}";
target = "{0, 5}";
type = Stem;
},
{
origin = "{6, 5}";
target = "{6, 11}";
type = Stem;
}
);
layerId = master01;
paths = (
{
closed = 1;
nodes = (
"62 28 OFFCURVE",
"88 2 OFFCURVE",
"120 2 CURVE SMOOTH",
"152 2 OFFCURVE",
"178 28 OFFCURVE",
"178 60 CURVE SMOOTH",
"178 92 OFFCURVE",
"152 118 OFFCURVE",
"120 118 CURVE SMOOTH",
"88 118 OFFCURVE",
"62 92 OFFCURVE",
"62 60 CURVE SMOOTH {name = hr00;}"
);
},
{
closed = 1;
nodes = (
"62 148 OFFCURVE",
"88 122 OFFCURVE",
"120 122 CURVE SMOOTH",
"152 122 OFFCURVE",
"178 148 OFFCURVE",
"178 180 CURVE SMOOTH",
"178 212 OFFCURVE",
"152 238 OFFCURVE",
"120 238 CURVE SMOOTH",
"88 238 OFFCURVE",
"62 212 OFFCURVE",
"62 180 CURVE SMOOTH"
);
},
{
closed = 1;
nodes = (
"62 268 OFFCURVE",
"88 242 OFFCURVE",
"120 242 CURVE SMOOTH",
"152 242 OFFCURVE",
"178 268 OFFCURVE",
"178 300 CURVE SMOOTH",
"178 332 OFFCURVE",
"152 358 OFFCURVE",
"120 358 CURVE SMOOTH",
"88 358 OFFCURVE",
"62 332 OFFCURVE",
"62 300 CURVE SMOOTH"
);
},
{
closed = 1;
nodes = (
"62 388 OFFCURVE",
"88 362 OFFCURVE",
"120 362 CURVE SMOOTH",
"152 362 OFFCURVE",
"178 388 OFFCURVE",
"178 420 CURVE SMOOTH",
"178 452 OFFCURVE",
"152 478 OFFCURVE",
"120 478 CURVE SMOOTH",
"88 478 OFFCURVE",
"62 452 OFFCURVE",
"62 420 CURVE SMOOTH"
);
},
{
closed = 1;
nodes = (
"62 508 OFFCURVE",
"88 482 OFFCURVE",
"120 482 CURVE SMOOTH",
"152 482 OFFCURVE",
"178 508 OFFCURVE",
"178 540 CURVE SMOOTH",
"178 572 OFFCURVE",
"152 598 OFFCURVE",
"120 598 CURVE SMOOTH",
"88 598 OFFCURVE",
"62 572 OFFCURVE",
"62 540 CURVE SMOOTH"
);
},
{
closed = 1;
nodes = (
"182 388 OFFCURVE",
"208 362 OFFCURVE",
"240 362 CURVE SMOOTH",
"272 362 OFFCURVE",
"298 388 OFFCURVE",
"298 420 CURVE SMOOTH",
"298 452 OFFCURVE",
"272 478 OFFCURVE",
"240 478 CURVE SMOOTH",
"208 478 OFFCURVE",
"182 452 OFFCURVE",
"182 420 CURVE SMOOTH"
);
},
{
closed = 1;
nodes = (
"422 28 OFFCURVE",
"448 2 OFFCURVE",
"480 2 CURVE SMOOTH",
"512 2 OFFCURVE",
"538 28 OFFCURVE",
"538 60 CURVE SMOOTH",
"538 92 OFFCURVE",
"512 118 OFFCURVE",
"480 118 CURVE SMOOTH",
"448 118 OFFCURVE",
"422 92 OFFCURVE",
"422 60 CURVE SMOOTH"
);
},
{
closed = 1;
nodes = (
"422 268 OFFCURVE",
"448 242 OFFCURVE",
"480 242 CURVE SMOOTH",
"512 242 OFFCURVE",
"538 268 OFFCURVE",
"538 300 CURVE SMOOTH",
"538 332 OFFCURVE",
"512 358 OFFCURVE",
"480 358 CURVE SMOOTH",
"448 358 OFFCURVE",
"422 332 OFFCURVE",
"422 300 CURVE SMOOTH"
);
},
{
closed = 1;
nodes = (
"422 508 OFFCURVE",
"448 482 OFFCURVE",
"480 482 CURVE SMOOTH",
"512 482 OFFCURVE",
"538 508 OFFCURVE",
"538 540 CURVE SMOOTH",
"538 572 OFFCURVE",
"512 598 OFFCURVE",
"480 598 CURVE SMOOTH",
"448 598 OFFCURVE",
"422 572 OFFCURVE",
"422 540 CURVE SMOOTH"
);
},
{
closed = 1;
nodes = (
"422 388 OFFCURVE",
"448 362 OFFCURVE",
"480 362 CURVE SMOOTH",
"512 362 OFFCURVE",
"538 388 OFFCURVE",
"538 420 CURVE SMOOTH",
"538 452 OFFCURVE",
"512 478 OFFCURVE",
"480 478 CURVE SMOOTH",
"448 478 OFFCURVE",
"422 452 OFFCURVE",
"422 420 CURVE SMOOTH"
);
},
{
closed = 1;
nodes = (
"422 148 OFFCURVE",
"448 122 OFFCURVE",
"480 122 CURVE SMOOTH",
"512 122 OFFCURVE",
"538 148 OFFCURVE",
"538 180 CURVE SMOOTH",
"538 212 OFFCURVE",
"512 238 OFFCURVE",
"480 238 CURVE SMOOTH",
"448 238 OFFCURVE",
"422 212 OFFCURVE",
"422 180 CURVE SMOOTH"
);
},
{
closed = 1;
nodes = (
"242 268 OFFCURVE",
"268 242 OFFCURVE",
"300 242 CURVE SMOOTH",
"332 242 OFFCURVE",
"358 268 OFFCURVE",
"358 300 CURVE SMOOTH",
"358 332 OFFCURVE",
"332 358 OFFCURVE",
"300 358 CURVE SMOOTH",
"268 358 OFFCURVE",
"242 332 OFFCURVE",
"242 300 CURVE SMOOTH"
);
},
{
closed = 1;
nodes = (
"302 148 OFFCURVE",
"328 122 OFFCURVE",
"360 122 CURVE SMOOTH",
"392 122 OFFCURVE",
"418 148 OFFCURVE",
"418 180 CURVE SMOOTH",
"418 212 OFFCURVE",
"392 238 OFFCURVE",
"360 238 CURVE SMOOTH",
"328 238 OFFCURVE",
"302 212 OFFCURVE",
"302 180 CURVE SMOOTH"
);
}
);
width = 600;
}
);
leftKerningGroup = E;
rightKerningGroup = H;
unicode = 004E;
},
{
glyphname = O;
layers = (
{
anchors = (
{
name = top;
position = "{360, 600}";
}
);
hints = (
{
horizontal = 1;
origin = "{0, 2}";
target = "{0, 8}";
type = Stem;
},
{
horizontal = 1;
origin = "{4, 8}";
target = "{4, 2}";
type = Stem;
},
{
origin = "{11, 11}";
target = "{11, 5}";
type = Stem;
},
{
origin = "{10, 5}";
target = "{10, 11}";
type = Stem;
}
);
layerId = master01;
paths = (
{
closed = 1;
nodes = (
"242 28 OFFCURVE",
"268 2 OFFCURVE",
"300 2 CURVE SMOOTH",
"332 2 OFFCURVE",
"358 28 OFFCURVE",
"358 60 CURVE SMOOTH",
"358 92 OFFCURVE",
"332 118 OFFCURVE",
"300 118 CURVE SMOOTH",
"268 118 OFFCURVE",
"242 92 OFFCURVE",
"242 60 CURVE SMOOTH {name = hr00;}"
);
},
{
closed = 1;
nodes = (
"122 88 OFFCURVE",
"148 62 OFFCURVE",
"180 62 CURVE SMOOTH",
"212 62 OFFCURVE",
"238 88 OFFCURVE",
"238 120 CURVE SMOOTH",
"238 152 OFFCURVE",
"212 178 OFFCURVE",
"180 178 CURVE SMOOTH",
"148 178 OFFCURVE",
"122 152 OFFCURVE",
"122 120 CURVE SMOOTH"
);
},
{
closed = 1;
nodes = (
"62 328 OFFCURVE",
"88 302 OFFCURVE",
"120 302 CURVE SMOOTH",
"152 302 OFFCURVE",
"178 328 OFFCURVE",
"178 360 CURVE SMOOTH",
"178 392 OFFCURVE",
"152 418 OFFCURVE",
"120 418 CURVE SMOOTH",
"88 418 OFFCURVE",
"62 392 OFFCURVE",
"62 360 CURVE SMOOTH"
);
},
{
closed = 1;
nodes = (
"122 448 OFFCURVE",
"148 422 OFFCURVE",
"180 422 CURVE SMOOTH",
"212 422 OFFCURVE",
"238 448 OFFCURVE",
"238 480 CURVE SMOOTH",
"238 512 OFFCURVE",
"212 538 OFFCURVE",
"180 538 CURVE SMOOTH",
"148 538 OFFCURVE",
"122 512 OFFCURVE",
"122 480 CURVE SMOOTH"
);
},
{
closed = 1;
nodes = (
"242 508 OFFCURVE",
"268 482 OFFCURVE",
"300 482 CURVE SMOOTH",
"332 482 OFFCURVE",
"358 508 OFFCURVE",
"358 540 CURVE SMOOTH",
"358 572 OFFCURVE",
"332 598 OFFCURVE",
"300 598 CURVE SMOOTH",
"268 598 OFFCURVE",
"242 572 OFFCURVE",
"242 540 CURVE SMOOTH"
);
},
{
closed = 1;
nodes = (
"362 508 OFFCURVE",
"388 482 OFFCURVE",
"420 482 CURVE SMOOTH",
"452 482 OFFCURVE",
"478 508 OFFCURVE",
"478 540 CURVE SMOOTH",
"478 572 OFFCURVE",
"452 598 OFFCURVE",
"420 598 CURVE SMOOTH",
"388 598 OFFCURVE",
"362 572 OFFCURVE",
"362 540 CURVE SMOOTH"
);
},
{
closed = 1;
nodes = (
"362 28 OFFCURVE",
"388 2 OFFCURVE",
"420 2 CURVE SMOOTH",
"452 2 OFFCURVE",
"478 28 OFFCURVE",
"478 60 CURVE SMOOTH",
"478 92 OFFCURVE",
"452 118 OFFCURVE",
"420 118 CURVE SMOOTH",
"388 118 OFFCURVE",
"362 92 OFFCURVE",
"362 60 CURVE SMOOTH"
);
},
{
closed = 1;
nodes = (
"482 88 OFFCURVE",
"508 62 OFFCURVE",
"540 62 CURVE SMOOTH",
"572 62 OFFCURVE",
"598 88 OFFCURVE",
"598 120 CURVE SMOOTH",
"598 152 OFFCURVE",
"572 178 OFFCURVE",
"540 178 CURVE SMOOTH",
"508 178 OFFCURVE",
"482 152 OFFCURVE",
"482 120 CURVE SMOOTH"
);
},
{
closed = 1;
nodes = (
"482 448 OFFCURVE",
"508 422 OFFCURVE",
"540 422 CURVE SMOOTH",
"572 422 OFFCURVE",
"598 448 OFFCURVE",
"598 480 CURVE SMOOTH",
"598 512 OFFCURVE",
"572 538 OFFCURVE",
"540 538 CURVE SMOOTH",
"508 538 OFFCURVE",
"482 512 OFFCURVE",
"482 480 CURVE SMOOTH"
);
},
{
closed = 1;
nodes = (
"542 328 OFFCURVE",
"568 302 OFFCURVE",
"600 302 CURVE SMOOTH",
"632 302 OFFCURVE",
"658 328 OFFCURVE",
"658 360 CURVE SMOOTH",
"658 392 OFFCURVE",
"632 418 OFFCURVE",
"600 418 CURVE SMOOTH",
"568 418 OFFCURVE",
"542 392 OFFCURVE",
"542 360 CURVE SMOOTH"
);
},
{
closed = 1;
nodes = (
"542 208 OFFCURVE",
"568 182 OFFCURVE",
"600 182 CURVE SMOOTH",
"632 182 OFFCURVE",
"658 208 OFFCURVE",
"658 240 CURVE SMOOTH",
"658 272 OFFCURVE",
"632 298 OFFCURVE",
"600 298 CURVE SMOOTH",
"568 298 OFFCURVE",
"542 272 OFFCURVE",
"542 240 CURVE SMOOTH"
);
},
{
closed = 1;
nodes = (
"62 208 OFFCURVE",
"88 182 OFFCURVE",
"120 182 CURVE SMOOTH",
"152 182 OFFCURVE",
"178 208 OFFCURVE",
"178 240 CURVE SMOOTH",
"178 272 OFFCURVE",
"152 298 OFFCURVE",
"120 298 CURVE SMOOTH",
"88 298 OFFCURVE",
"62 272 OFFCURVE",
"62 240 CURVE SMOOTH"
);
}
);
width = 720;
}
);
leftKerningGroup = O;
rightKerningGroup = O;
unicode = 004F;
},
{
glyphname = Oslash;
layers = (
{
hints = (
{
horizontal = 1;
origin = "{13, 2}";
target = up;
type = BottomGhost;
},
{
horizontal = 1;
origin = "{0, 2}";
target = "{0, 8}";
type = Stem;
},
{
horizontal = 1;
origin = "{4, 8}";
target = "{4, 2}";
type = Stem;
},
{
horizontal = 1;
origin = "{12, 8}";
target = up;
type = BottomGhost;
},
{
origin = "{13, 11}";
target = "{13, 5}";
type = Stem;
},
{
origin = "{10, 5}";
target = "{10, 11}";
type = Stem;
}
);
layerId = master01;
paths = (
{
closed = 1;
nodes = (
"242 28 OFFCURVE",
"268 2 OFFCURVE",
"300 2 CURVE SMOOTH",
"332 2 OFFCURVE",
"358 28 OFFCURVE",
"358 60 CURVE SMOOTH",
"358 92 OFFCURVE",
"332 118 OFFCURVE",
"300 118 CURVE SMOOTH",
"268 118 OFFCURVE",
"242 92 OFFCURVE",
"242 60 CURVE SMOOTH {name = hr00;}"
);
},
{
closed = 1;
nodes = (
"122 88 OFFCURVE",
"148 62 OFFCURVE",
"180 62 CURVE SMOOTH",
"212 62 OFFCURVE",
"238 88 OFFCURVE",
"238 120 CURVE SMOOTH",
"238 152 OFFCURVE",
"212 178 OFFCURVE",
"180 178 CURVE SMOOTH",
"148 178 OFFCURVE",
"122 152 OFFCURVE",
"122 120 CURVE SMOOTH"
);
},
{
closed = 1;
nodes = (
"62 328 OFFCURVE",
"88 302 OFFCURVE",
"120 302 CURVE SMOOTH",
"152 302 OFFCURVE",
"178 328 OFFCURVE",
"178 360 CURVE SMOOTH",
"178 392 OFFCURVE",
"152 418 OFFCURVE",
"120 418 CURVE SMOOTH",
"88 418 OFFCURVE",
"62 392 OFFCURVE",
"62 360 CURVE SMOOTH"
);
},
{
closed = 1;
nodes = (
"122 448 OFFCURVE",
"148 422 OFFCURVE",
"180 422 CURVE SMOOTH",
"212 422 OFFCURVE",
"238 448 OFFCURVE",
"238 480 CURVE SMOOTH",
"238 512 OFFCURVE",
"212 538 OFFCURVE",
"180 538 CURVE SMOOTH",
"148 538 OFFCURVE",
"122 512 OFFCURVE",
"122 480 CURVE SMOOTH"
);
},
{
closed = 1;
nodes = (
"242 508 OFFCURVE",
"268 482 OFFCURVE",
"300 482 CURVE SMOOTH",
"332 482 OFFCURVE",
"358 508 OFFCURVE",
"358 540 CURVE SMOOTH",
"358 572 OFFCURVE",
"332 598 OFFCURVE",
"300 598 CURVE SMOOTH",
"268 598 OFFCURVE",
"242 572 OFFCURVE",
"242 540 CURVE SMOOTH"
);
},
{
closed = 1;
nodes = (
"362 508 OFFCURVE",
"388 482 OFFCURVE",
"420 482 CURVE SMOOTH",
"452 482 OFFCURVE",
"478 508 OFFCURVE",
"478 540 CURVE SMOOTH",
"478 572 OFFCURVE",
"452 598 OFFCURVE",
"420 598 CURVE SMOOTH",
"388 598 OFFCURVE",
"362 572 OFFCURVE",
"362 540 CURVE SMOOTH"
);
},
{
closed = 1;
nodes = (
"362 28 OFFCURVE",
"388 2 OFFCURVE",
"420 2 CURVE SMOOTH",
"452 2 OFFCURVE",
"478 28 OFFCURVE",
"478 60 CURVE SMOOTH",
"478 92 OFFCURVE",
"452 118 OFFCURVE",
"420 118 CURVE SMOOTH",
"388 118 OFFCURVE",
"362 92 OFFCURVE",
"362 60 CURVE SMOOTH"
);
},
{
closed = 1;
nodes = (
"482 88 OFFCURVE",
"508 62 OFFCURVE",
"540 62 CURVE SMOOTH",
"572 62 OFFCURVE",
"598 88 OFFCURVE",
"598 120 CURVE SMOOTH",
"598 152 OFFCURVE",
"572 178 OFFCURVE",
"540 178 CURVE SMOOTH",
"508 178 OFFCURVE",
"482 152 OFFCURVE",
"482 120 CURVE SMOOTH"
);
},
{
closed = 1;
nodes = (
"482 448 OFFCURVE",
"508 422 OFFCURVE",
"540 422 CURVE SMOOTH",
"572 422 OFFCURVE",
"598 448 OFFCURVE",
"598 480 CURVE SMOOTH",
"598 512 OFFCURVE",
"572 538 OFFCURVE",
"540 538 CURVE SMOOTH",
"508 538 OFFCURVE",
"482 512 OFFCURVE",
"482 480 CURVE SMOOTH"
);
},
{
closed = 1;
nodes = (
"542 328 OFFCURVE",
"568 302 OFFCURVE",
"600 302 CURVE SMOOTH",
"632 302 OFFCURVE",
"658 328 OFFCURVE",
"658 360 CURVE SMOOTH",
"658 392 OFFCURVE",
"632 418 OFFCURVE",
"600 418 CURVE SMOOTH",
"568 418 OFFCURVE",
"542 392 OFFCURVE",
"542 360 CURVE SMOOTH"
);
},
{
closed = 1;
nodes = (
"542 208 OFFCURVE",
"568 182 OFFCURVE",
"600 182 CURVE SMOOTH",
"632 182 OFFCURVE",
"658 208 OFFCURVE",
"658 240 CURVE SMOOTH",
"658 272 OFFCURVE",
"632 298 OFFCURVE",
"600 298 CURVE SMOOTH",
"568 298 OFFCURVE",
"542 272 OFFCURVE",
"542 240 CURVE SMOOTH"
);
},
{
closed = 1;
nodes = (
"62 208 OFFCURVE",
"88 182 OFFCURVE",
"120 182 CURVE SMOOTH",
"152 182 OFFCURVE",
"178 208 OFFCURVE",
"178 240 CURVE SMOOTH",
"178 272 OFFCURVE",
"152 298 OFFCURVE",
"120 298 CURVE SMOOTH",
"88 298 OFFCURVE",
"62 272 OFFCURVE",
"62 240 CURVE SMOOTH"
);
},
{
closed = 1;
nodes = (
"542 568 OFFCURVE",
"568 542 OFFCURVE",
"600 542 CURVE SMOOTH",
"632 542 OFFCURVE",
"658 568 OFFCURVE",
"658 600 CURVE SMOOTH",
"658 632 OFFCURVE",
"632 658 OFFCURVE",
"600 658 CURVE SMOOTH",
"568 658 OFFCURVE",
"542 632 OFFCURVE",
"542 600 CURVE SMOOTH"
);
},
{
closed = 1;
nodes = (
"62 -32 OFFCURVE",
"88 -58 OFFCURVE",
"120 -58 CURVE SMOOTH",
"152 -58 OFFCURVE",
"178 -32 OFFCURVE",
"178 0 CURVE SMOOTH",
"178 32 OFFCURVE",
"152 58 OFFCURVE",
"120 58 CURVE SMOOTH",
"88 58 OFFCURVE",
"62 32 OFFCURVE",
"62 0 CURVE SMOOTH"
);
}
);
width = 720;
}
);
leftKerningGroup = O;
unicode = 00D8;
},
{
glyphname = OE;
layers = (
{
anchors = (
{
name = top;
position = "{420, 600}";
}
);
hints = (
{
horizontal = 1;
origin = "{0, 2}";
target = "{0, 8}";
type = Stem;
},
{
horizontal = 1;
origin = "{10, 2}";
target = "{10, 8}";
type = Stem;
},
{
horizontal = 1;
origin = "{4, 8}";
target = "{4, 2}";
type = Stem;
},
{
origin = "{11, 11}";
target = "{11, 5}";
type = Stem;
},
{
origin = "{6, 11}";
target = "{6, 5}";
type = Stem;
}
);
layerId = master01;
paths = (
{
closed = 1;
nodes = (
"242 28 OFFCURVE",
"268 2 OFFCURVE",
"300 2 CURVE SMOOTH",
"332 2 OFFCURVE",
"358 28 OFFCURVE",
"358 60 CURVE SMOOTH",
"358 92 OFFCURVE",
"332 118 OFFCURVE",
"300 118 CURVE SMOOTH",
"268 118 OFFCURVE",
"242 92 OFFCURVE",
"242 60 CURVE SMOOTH {name = hr00;}"
);
},
{
closed = 1;
nodes = (
"122 88 OFFCURVE",
"148 62 OFFCURVE",
"180 62 CURVE SMOOTH",
"212 62 OFFCURVE",
"238 88 OFFCURVE",
"238 120 CURVE SMOOTH",
"238 152 OFFCURVE",
"212 178 OFFCURVE",
"180 178 CURVE SMOOTH",
"148 178 OFFCURVE",
"122 152 OFFCURVE",
"122 120 CURVE SMOOTH"
);
},
{
closed = 1;
nodes = (
"62 328 OFFCURVE",
"88 302 OFFCURVE",
"120 302 CURVE SMOOTH",
"152 302 OFFCURVE",
"178 328 OFFCURVE",
"178 360 CURVE SMOOTH",
"178 392 OFFCURVE",
"152 418 OFFCURVE",
"120 418 CURVE SMOOTH",
"88 418 OFFCURVE",
"62 392 OFFCURVE",
"62 360 CURVE SMOOTH"
);
},
{
closed = 1;
nodes = (
"122 448 OFFCURVE",
"148 422 OFFCURVE",
"180 422 CURVE SMOOTH",
"212 422 OFFCURVE",
"238 448 OFFCURVE",
"238 480 CURVE SMOOTH",
"238 512 OFFCURVE",
"212 538 OFFCURVE",
"180 538 CURVE SMOOTH",
"148 538 OFFCURVE",
"122 512 OFFCURVE",
"122 480 CURVE SMOOTH"
);
},
{
closed = 1;
nodes = (
"242 508 OFFCURVE",
"268 482 OFFCURVE",
"300 482 CURVE SMOOTH",
"332 482 OFFCURVE",
"358 508 OFFCURVE",
"358 540 CURVE SMOOTH",
"358 572 OFFCURVE",
"332 598 OFFCURVE",
"300 598 CURVE SMOOTH",
"268 598 OFFCURVE",
"242 572 OFFCURVE",
"242 540 CURVE SMOOTH"
);
},
{
closed = 1;
nodes = (
"362 508 OFFCURVE",
"388 482 OFFCURVE",
"420 482 CURVE SMOOTH",
"452 482 OFFCURVE",
"478 508 OFFCURVE",
"478 540 CURVE SMOOTH",
"478 572 OFFCURVE",
"452 598 OFFCURVE",
"420 598 CURVE SMOOTH",
"388 598 OFFCURVE",
"362 572 OFFCURVE",
"362 540 CURVE SMOOTH"
);
},
{
closed = 1;
nodes = (
"362 28 OFFCURVE",
"388 2 OFFCURVE",
"420 2 CURVE SMOOTH",
"452 2 OFFCURVE",
"478 28 OFFCURVE",
"478 60 CURVE SMOOTH",
"478 92 OFFCURVE",
"452 118 OFFCURVE",
"420 118 CURVE SMOOTH",
"388 118 OFFCURVE",
"362 92 OFFCURVE",
"362 60 CURVE SMOOTH"
);
},
{
closed = 1;
nodes = (
"482 27 OFFCURVE",
"508 1 OFFCURVE",
"540 1 CURVE SMOOTH",
"572 1 OFFCURVE",
"598 27 OFFCURVE",
"598 59 CURVE SMOOTH",
"598 91 OFFCURVE",
"572 117 OFFCURVE",
"540 117 CURVE SMOOTH",
"508 117 OFFCURVE",
"482 91 OFFCURVE",
"482 59 CURVE SMOOTH"
);
},
{
closed = 1;
nodes = (
"482 508 OFFCURVE",
"508 482 OFFCURVE",
"540 482 CURVE SMOOTH",
"572 482 OFFCURVE",
"598 508 OFFCURVE",
"598 540 CURVE SMOOTH",
"598 572 OFFCURVE",
"572 598 OFFCURVE",
"540 598 CURVE SMOOTH",
"508 598 OFFCURVE",
"482 572 OFFCURVE",
"482 540 CURVE SMOOTH"
);
},
{
closed = 1;
nodes = (
"361 388 OFFCURVE",
"387 362 OFFCURVE",
"419 362 CURVE SMOOTH",
"451 362 OFFCURVE",
"477 388 OFFCURVE",
"477 420 CURVE SMOOTH",
"477 452 OFFCURVE",
"451 478 OFFCURVE",
"419 478 CURVE SMOOTH",
"387 478 OFFCURVE",
"361 452 OFFCURVE",
"361 420 CURVE SMOOTH"
);
},
{
closed = 1;
nodes = (
"362 268 OFFCURVE",
"388 242 OFFCURVE",
"420 242 CURVE SMOOTH",
"452 242 OFFCURVE",
"478 268 OFFCURVE",
"478 300 CURVE SMOOTH",
"478 332 OFFCURVE",
"452 358 OFFCURVE",
"420 358 CURVE SMOOTH",
"388 358 OFFCURVE",
"362 332 OFFCURVE",
"362 300 CURVE SMOOTH"
);
},
{
closed = 1;
nodes = (
"62 208 OFFCURVE",
"88 182 OFFCURVE",
"120 182 CURVE SMOOTH",
"152 182 OFFCURVE",
"178 208 OFFCURVE",
"178 240 CURVE SMOOTH",
"178 272 OFFCURVE",
"152 298 OFFCURVE",
"120 298 CURVE SMOOTH",
"88 298 OFFCURVE",
"62 272 OFFCURVE",
"62 240 CURVE SMOOTH"
);
},
{
closed = 1;
nodes = (
"362 148 OFFCURVE",
"388 122 OFFCURVE",
"420 122 CURVE SMOOTH",
"452 122 OFFCURVE",
"478 148 OFFCURVE",
"478 180 CURVE SMOOTH",
"478 212 OFFCURVE",
"452 238 OFFCURVE",
"420 238 CURVE SMOOTH",
"388 238 OFFCURVE",
"362 212 OFFCURVE",
"362 180 CURVE SMOOTH"
);
},
{
closed = 1;
nodes = (
"482 268 OFFCURVE",
"508 242 OFFCURVE",
"540 242 CURVE SMOOTH",
"572 242 OFFCURVE",
"598 268 OFFCURVE",
"598 300 CURVE SMOOTH",
"598 332 OFFCURVE",
"572 358 OFFCURVE",
"540 358 CURVE SMOOTH",
"508 358 OFFCURVE",
"482 332 OFFCURVE",
"482 300 CURVE SMOOTH"
);
},
{
closed = 1;
nodes = (
"602 508 OFFCURVE",
"628 482 OFFCURVE",
"660 482 CURVE SMOOTH",
"692 482 OFFCURVE",
"718 508 OFFCURVE",
"718 540 CURVE SMOOTH",
"718 572 OFFCURVE",
"692 598 OFFCURVE",
"660 598 CURVE SMOOTH",
"628 598 OFFCURVE",
"602 572 OFFCURVE",
"602 540 CURVE SMOOTH"
);
},
{
closed = 1;
nodes = (
"604 28 OFFCURVE",
"630 2 OFFCURVE",
"662 2 CURVE SMOOTH",
"694 2 OFFCURVE",
"720 28 OFFCURVE",
"720 60 CURVE SMOOTH",
"720 92 OFFCURVE",
"694 118 OFFCURVE",
"662 118 CURVE SMOOTH",
"630 118 OFFCURVE",
"604 92 OFFCURVE",
"604 60 CURVE SMOOTH"
);
}
);
width = 780;
}
);
leftKerningGroup = O;
rightKerningGroup = E;
unicode = 0152;
},
{
glyphname = P;
layers = (
{
hints = (
{
horizontal = 1;
origin = "{0, 2}";
target = up;
type = BottomGhost;
},
{
horizontal = 1;
origin = "{2, 2}";
target = "{2, 8}";
type = Stem;
},
{
horizontal = 1;
origin = "{4, 8}";
target = "{4, 2}";
type = Stem;
},
{
origin = "{0, 11}";
target = "{0, 5}";
type = Stem;
},
{
origin = "{7, 5}";
target = "{7, 11}";
type = Stem;
}
);
layerId = master01;
paths = (
{
closed = 1;
nodes = (
"62 28 OFFCURVE",
"88 2 OFFCURVE",
"120 2 CURVE SMOOTH",
"152 2 OFFCURVE",
"178 28 OFFCURVE",
"178 60 CURVE SMOOTH",
"178 92 OFFCURVE",
"152 118 OFFCURVE",
"120 118 CURVE SMOOTH",
"88 118 OFFCURVE",
"62 92 OFFCURVE",
"62 60 CURVE SMOOTH {name = hr00;}"
);
},
{
closed = 1;
nodes = (
"62 148 OFFCURVE",
"88 122 OFFCURVE",
"120 122 CURVE SMOOTH",
"152 122 OFFCURVE",
"178 148 OFFCURVE",
"178 180 CURVE SMOOTH",
"178 212 OFFCURVE",
"152 238 OFFCURVE",
"120 238 CURVE SMOOTH",
"88 238 OFFCURVE",
"62 212 OFFCURVE",
"62 180 CURVE SMOOTH"
);
},
{
closed = 1;
nodes = (
"62 268 OFFCURVE",
"88 242 OFFCURVE",
"120 242 CURVE SMOOTH",
"152 242 OFFCURVE",
"178 268 OFFCURVE",
"178 300 CURVE SMOOTH",
"178 332 OFFCURVE",
"152 358 OFFCURVE",
"120 358 CURVE SMOOTH",
"88 358 OFFCURVE",
"62 332 OFFCURVE",
"62 300 CURVE SMOOTH"
);
},
{
closed = 1;
nodes = (
"62 388 OFFCURVE",
"88 362 OFFCURVE",
"120 362 CURVE SMOOTH",
"152 362 OFFCURVE",
"178 388 OFFCURVE",
"178 420 CURVE SMOOTH",
"178 452 OFFCURVE",
"152 478 OFFCURVE",
"120 478 CURVE SMOOTH",
"88 478 OFFCURVE",
"62 452 OFFCURVE",
"62 420 CURVE SMOOTH"
);
},
{
closed = 1;
nodes = (
"62 508 OFFCURVE",
"88 482 OFFCURVE",
"120 482 CURVE SMOOTH",
"152 482 OFFCURVE",
"178 508 OFFCURVE",
"178 540 CURVE SMOOTH",
"178 572 OFFCURVE",
"152 598 OFFCURVE",
"120 598 CURVE SMOOTH",
"88 598 OFFCURVE",
"62 572 OFFCURVE",
"62 540 CURVE SMOOTH"
);
},
{
closed = 1;
nodes = (
"182 268 OFFCURVE",
"208 242 OFFCURVE",
"240 242 CURVE SMOOTH",
"272 242 OFFCURVE",
"298 268 OFFCURVE",
"298 300 CURVE SMOOTH",
"298 332 OFFCURVE",
"272 358 OFFCURVE",
"240 358 CURVE SMOOTH",
"208 358 OFFCURVE",
"182 332 OFFCURVE",
"182 300 CURVE SMOOTH"
);
},
{
closed = 1;
nodes = (
"182 508 OFFCURVE",
"208 482 OFFCURVE",
"240 482 CURVE SMOOTH",
"272 482 OFFCURVE",
"298 508 OFFCURVE",
"298 540 CURVE SMOOTH",
"298 572 OFFCURVE",
"272 598 OFFCURVE",
"240 598 CURVE SMOOTH",
"208 598 OFFCURVE",
"182 572 OFFCURVE",
"182 540 CURVE SMOOTH"
);
},
{
closed = 1;
nodes = (
"302 328 OFFCURVE",
"328 302 OFFCURVE",
"360 302 CURVE SMOOTH",
"392 302 OFFCURVE",
"418 328 OFFCURVE",
"418 360 CURVE SMOOTH",
"418 392 OFFCURVE",
"392 418 OFFCURVE",
"360 418 CURVE SMOOTH",
"328 418 OFFCURVE",
"302 392 OFFCURVE",
"302 360 CURVE SMOOTH"
);
},
{
closed = 1;
nodes = (
"302 448 OFFCURVE",
"328 422 OFFCURVE",
"360 422 CURVE SMOOTH",
"392 422 OFFCURVE",
"418 448 OFFCURVE",
"418 480 CURVE SMOOTH",
"418 512 OFFCURVE",
"392 538 OFFCURVE",
"360 538 CURVE SMOOTH",
"328 538 OFFCURVE",
"302 512 OFFCURVE",
"302 480 CURVE SMOOTH"
);
}
);
width = 480;
}
);
leftKerningGroup = E;
unicode = 0050;
},
{
glyphname = Thorn;
layers = (
{
hints = (
{
horizontal = 1;
origin = "{0, 2}";
target = up;
type = BottomGhost;
},
{
horizontal = 1;
origin = "{1, 2}";
target = "{1, 8}";
type = Stem;
},
{
horizontal = 1;
origin = "{3, 8}";
target = "{3, 2}";
type = Stem;
},
{
horizontal = 1;
origin = "{4, 8}";
target = down;
type = TopGhost;
},
{
origin = "{0, 11}";
target = "{0, 5}";
type = Stem;
},
{
origin = "{7, 5}";
target = "{7, 11}";
type = Stem;
}
);
layerId = master01;
paths = (
{
closed = 1;
nodes = (
"62 28 OFFCURVE",
"88 2 OFFCURVE",
"120 2 CURVE SMOOTH",
"152 2 OFFCURVE",
"178 28 OFFCURVE",
"178 60 CURVE SMOOTH",
"178 92 OFFCURVE",
"152 118 OFFCURVE",
"120 118 CURVE SMOOTH",
"88 118 OFFCURVE",
"62 92 OFFCURVE",
"62 60 CURVE SMOOTH {name = hr00;}"
);
},
{
closed = 1;
nodes = (
"62 148 OFFCURVE",
"88 122 OFFCURVE",
"120 122 CURVE SMOOTH",
"152 122 OFFCURVE",
"178 148 OFFCURVE",
"178 180 CURVE SMOOTH",
"178 212 OFFCURVE",
"152 238 OFFCURVE",
"120 238 CURVE SMOOTH",
"88 238 OFFCURVE",
"62 212 OFFCURVE",
"62 180 CURVE SMOOTH"
);
},
{
closed = 1;
nodes = (
"62 268 OFFCURVE",
"88 242 OFFCURVE",
"120 242 CURVE SMOOTH",
"152 242 OFFCURVE",
"178 268 OFFCURVE",
"178 300 CURVE SMOOTH",
"178 332 OFFCURVE",
"152 358 OFFCURVE",
"120 358 CURVE SMOOTH",
"88 358 OFFCURVE",
"62 332 OFFCURVE",
"62 300 CURVE SMOOTH"
);
},
{
closed = 1;
nodes = (
"62 388 OFFCURVE",
"88 362 OFFCURVE",
"120 362 CURVE SMOOTH",
"152 362 OFFCURVE",
"178 388 OFFCURVE",
"178 420 CURVE SMOOTH",
"178 452 OFFCURVE",
"152 478 OFFCURVE",
"120 478 CURVE SMOOTH",
"88 478 OFFCURVE",
"62 452 OFFCURVE",
"62 420 CURVE SMOOTH"
);
},
{
closed = 1;
nodes = (
"62 508 OFFCURVE",
"88 482 OFFCURVE",
"120 482 CURVE SMOOTH",
"152 482 OFFCURVE",
"178 508 OFFCURVE",
"178 540 CURVE SMOOTH",
"178 572 OFFCURVE",
"152 598 OFFCURVE",
"120 598 CURVE SMOOTH",
"88 598 OFFCURVE",
"62 572 OFFCURVE",
"62 540 CURVE SMOOTH"
);
},
{
closed = 1;
nodes = (
"182 148 OFFCURVE",
"208 122 OFFCURVE",
"240 122 CURVE SMOOTH",
"272 122 OFFCURVE",
"298 148 OFFCURVE",
"298 180 CURVE SMOOTH",
"298 212 OFFCURVE",
"272 238 OFFCURVE",
"240 238 CURVE SMOOTH",
"208 238 OFFCURVE",
"182 212 OFFCURVE",
"182 180 CURVE SMOOTH"
);
},
{
closed = 1;
nodes = (
"182 388 OFFCURVE",
"208 362 OFFCURVE",
"240 362 CURVE SMOOTH",
"272 362 OFFCURVE",
"298 388 OFFCURVE",
"298 420 CURVE SMOOTH",
"298 452 OFFCURVE",
"272 478 OFFCURVE",
"240 478 CURVE SMOOTH",
"208 478 OFFCURVE",
"182 452 OFFCURVE",
"182 420 CURVE SMOOTH"
);
},
{
closed = 1;
nodes = (
"302 208 OFFCURVE",
"328 182 OFFCURVE",
"360 182 CURVE SMOOTH",
"392 182 OFFCURVE",
"418 208 OFFCURVE",
"418 240 CURVE SMOOTH",
"418 272 OFFCURVE",
"392 298 OFFCURVE",
"360 298 CURVE SMOOTH",
"328 298 OFFCURVE",
"302 272 OFFCURVE",
"302 240 CURVE SMOOTH"
);
},
{
closed = 1;
nodes = (
"302 328 OFFCURVE",
"328 302 OFFCURVE",
"360 302 CURVE SMOOTH",
"392 302 OFFCURVE",
"418 328 OFFCURVE",
"418 360 CURVE SMOOTH",
"418 392 OFFCURVE",
"392 418 OFFCURVE",
"360 418 CURVE SMOOTH",
"328 418 OFFCURVE",
"302 392 OFFCURVE",
"302 360 CURVE SMOOTH"
);
}
);
width = 480;
}
);
leftKerningGroup = E;
rightKerningGroup = Thorn;
unicode = 00DE;
},
{
glyphname = Q;
layers = (
{
hints = (
{
horizontal = 1;
origin = "{0, 2}";
target = "{0, 8}";
type = Stem;
},
{
horizontal = 1;
origin = "{4, 8}";
target = "{4, 2}";
type = Stem;
},
{
origin = "{11, 11}";
target = "{11, 5}";
type = Stem;
},
{
origin = "{10, 5}";
target = "{10, 11}";
type = Stem;
}
);
layerId = master01;
paths = (
{
closed = 1;
nodes = (
"242 28 OFFCURVE",
"268 2 OFFCURVE",
"300 2 CURVE SMOOTH",
"332 2 OFFCURVE",
"358 28 OFFCURVE",
"358 60 CURVE SMOOTH",
"358 92 OFFCURVE",
"332 118 OFFCURVE",
"300 118 CURVE SMOOTH",
"268 118 OFFCURVE",
"242 92 OFFCURVE",
"242 60 CURVE SMOOTH {name = hr00;}"
);
},
{
closed = 1;
nodes = (
"122 88 OFFCURVE",
"148 62 OFFCURVE",
"180 62 CURVE SMOOTH",
"212 62 OFFCURVE",
"238 88 OFFCURVE",
"238 120 CURVE SMOOTH",
"238 152 OFFCURVE",
"212 178 OFFCURVE",
"180 178 CURVE SMOOTH",
"148 178 OFFCURVE",
"122 152 OFFCURVE",
"122 120 CURVE SMOOTH"
);
},
{
closed = 1;
nodes = (
"62 328 OFFCURVE",
"88 302 OFFCURVE",
"120 302 CURVE SMOOTH",
"152 302 OFFCURVE",
"178 328 OFFCURVE",
"178 360 CURVE SMOOTH",
"178 392 OFFCURVE",
"152 418 OFFCURVE",
"120 418 CURVE SMOOTH",
"88 418 OFFCURVE",
"62 392 OFFCURVE",
"62 360 CURVE SMOOTH"
);
},
{
closed = 1;
nodes = (
"122 448 OFFCURVE",
"148 422 OFFCURVE",
"180 422 CURVE SMOOTH",
"212 422 OFFCURVE",
"238 448 OFFCURVE",
"238 480 CURVE SMOOTH",
"238 512 OFFCURVE",
"212 538 OFFCURVE",
"180 538 CURVE SMOOTH",
"148 538 OFFCURVE",
"122 512 OFFCURVE",
"122 480 CURVE SMOOTH"
);
},
{
closed = 1;
nodes = (
"242 508 OFFCURVE",
"268 482 OFFCURVE",
"300 482 CURVE SMOOTH",
"332 482 OFFCURVE",
"358 508 OFFCURVE",
"358 540 CURVE SMOOTH",
"358 572 OFFCURVE",
"332 598 OFFCURVE",
"300 598 CURVE SMOOTH",
"268 598 OFFCURVE",
"242 572 OFFCURVE",
"242 540 CURVE SMOOTH"
);
},
{
closed = 1;
nodes = (
"362 508 OFFCURVE",
"388 482 OFFCURVE",
"420 482 CURVE SMOOTH",
"452 482 OFFCURVE",
"478 508 OFFCURVE",
"478 540 CURVE SMOOTH",
"478 572 OFFCURVE",
"452 598 OFFCURVE",
"420 598 CURVE SMOOTH",
"388 598 OFFCURVE",
"362 572 OFFCURVE",
"362 540 CURVE SMOOTH"
);
},
{
closed = 1;
nodes = (
"362 28 OFFCURVE",
"388 2 OFFCURVE",
"420 2 CURVE SMOOTH",
"452 2 OFFCURVE",
"478 28 OFFCURVE",
"478 60 CURVE SMOOTH",
"478 92 OFFCURVE",
"452 118 OFFCURVE",
"420 118 CURVE SMOOTH",
"388 118 OFFCURVE",
"362 92 OFFCURVE",
"362 60 CURVE SMOOTH"
);
},
{
closed = 1;
nodes = (
"482 88 OFFCURVE",
"508 62 OFFCURVE",
"540 62 CURVE SMOOTH",
"572 62 OFFCURVE",
"598 88 OFFCURVE",
"598 120 CURVE SMOOTH",
"598 152 OFFCURVE",
"572 178 OFFCURVE",
"540 178 CURVE SMOOTH",
"508 178 OFFCURVE",
"482 152 OFFCURVE",
"482 120 CURVE SMOOTH"
);
},
{
closed = 1;
nodes = (
"482 448 OFFCURVE",
"508 422 OFFCURVE",
"540 422 CURVE SMOOTH",
"572 422 OFFCURVE",
"598 448 OFFCURVE",
"598 480 CURVE SMOOTH",
"598 512 OFFCURVE",
"572 538 OFFCURVE",
"540 538 CURVE SMOOTH",
"508 538 OFFCURVE",
"482 512 OFFCURVE",
"482 480 CURVE SMOOTH"
);
},
{
closed = 1;
nodes = (
"542 328 OFFCURVE",
"568 302 OFFCURVE",
"600 302 CURVE SMOOTH",
"632 302 OFFCURVE",
"658 328 OFFCURVE",
"658 360 CURVE SMOOTH",
"658 392 OFFCURVE",
"632 418 OFFCURVE",
"600 418 CURVE SMOOTH",
"568 418 OFFCURVE",
"542 392 OFFCURVE",
"542 360 CURVE SMOOTH"
);
},
{
closed = 1;
nodes = (
"542 208 OFFCURVE",
"568 182 OFFCURVE",
"600 182 CURVE SMOOTH",
"632 182 OFFCURVE",
"658 208 OFFCURVE",
"658 240 CURVE SMOOTH",
"658 272 OFFCURVE",
"632 298 OFFCURVE",
"600 298 CURVE SMOOTH",
"568 298 OFFCURVE",
"542 272 OFFCURVE",
"542 240 CURVE SMOOTH"
);
},
{
closed = 1;
nodes = (
"62 208 OFFCURVE",
"88 182 OFFCURVE",
"120 182 CURVE SMOOTH",
"152 182 OFFCURVE",
"178 208 OFFCURVE",
"178 240 CURVE SMOOTH",
"178 272 OFFCURVE",
"152 298 OFFCURVE",
"120 298 CURVE SMOOTH",
"88 298 OFFCURVE",
"62 272 OFFCURVE",
"62 240 CURVE SMOOTH"
);
},
{
closed = 1;
nodes = (
"602 28 OFFCURVE",
"628 2 OFFCURVE",
"660 2 CURVE SMOOTH",
"692 2 OFFCURVE",
"718 28 OFFCURVE",
"718 60 CURVE SMOOTH",
"718 92 OFFCURVE",
"692 118 OFFCURVE",
"660 118 CURVE SMOOTH",
"628 118 OFFCURVE",
"602 92 OFFCURVE",
"602 60 CURVE SMOOTH"
);
},
{
closed = 1;
nodes = (
"362 148 OFFCURVE",
"388 122 OFFCURVE",
"420 122 CURVE SMOOTH",
"452 122 OFFCURVE",
"478 148 OFFCURVE",
"478 180 CURVE SMOOTH",
"478 212 OFFCURVE",
"452 238 OFFCURVE",
"420 238 CURVE SMOOTH",
"388 238 OFFCURVE",
"362 212 OFFCURVE",
"362 180 CURVE SMOOTH"
);
}
);
width = 720;
}
);
leftKerningGroup = O;
unicode = 0051;
},
{
glyphname = R;
layers = (
{
hints = (
{
horizontal = 1;
origin = "{0, 2}";
target = up;
type = BottomGhost;
},
{
horizontal = 1;
origin = "{2, 2}";
target = "{2, 8}";
type = Stem;
},
{
horizontal = 1;
origin = "{4, 8}";
target = "{4, 2}";
type = Stem;
},
{
origin = "{0, 11}";
target = "{0, 5}";
type = Stem;
},
{
origin = "{10, 5}";
target = "{10, 11}";
type = Stem;
}
);
layerId = master01;
paths = (
{
closed = 1;
nodes = (
"62 28 OFFCURVE",
"88 2 OFFCURVE",
"120 2 CURVE SMOOTH",
"152 2 OFFCURVE",
"178 28 OFFCURVE",
"178 60 CURVE SMOOTH",
"178 92 OFFCURVE",
"152 118 OFFCURVE",
"120 118 CURVE SMOOTH",
"88 118 OFFCURVE",
"62 92 OFFCURVE",
"62 60 CURVE SMOOTH {name = hr00;}"
);
},
{
closed = 1;
nodes = (
"62 148 OFFCURVE",
"88 122 OFFCURVE",
"120 122 CURVE SMOOTH",
"152 122 OFFCURVE",
"178 148 OFFCURVE",
"178 180 CURVE SMOOTH",
"178 212 OFFCURVE",
"152 238 OFFCURVE",
"120 238 CURVE SMOOTH",
"88 238 OFFCURVE",
"62 212 OFFCURVE",
"62 180 CURVE SMOOTH"
);
},
{
closed = 1;
nodes = (
"62 268 OFFCURVE",
"88 242 OFFCURVE",
"120 242 CURVE SMOOTH",
"152 242 OFFCURVE",
"178 268 OFFCURVE",
"178 300 CURVE SMOOTH",
"178 332 OFFCURVE",
"152 358 OFFCURVE",
"120 358 CURVE SMOOTH",
"88 358 OFFCURVE",
"62 332 OFFCURVE",
"62 300 CURVE SMOOTH"
);
},
{
closed = 1;
nodes = (
"62 388 OFFCURVE",
"88 362 OFFCURVE",
"120 362 CURVE SMOOTH",
"152 362 OFFCURVE",
"178 388 OFFCURVE",
"178 420 CURVE SMOOTH",
"178 452 OFFCURVE",
"152 478 OFFCURVE",
"120 478 CURVE SMOOTH",
"88 478 OFFCURVE",
"62 452 OFFCURVE",
"62 420 CURVE SMOOTH"
);
},
{
closed = 1;
nodes = (
"62 508 OFFCURVE",
"88 482 OFFCURVE",
"120 482 CURVE SMOOTH",
"152 482 OFFCURVE",
"178 508 OFFCURVE",
"178 540 CURVE SMOOTH",
"178 572 OFFCURVE",
"152 598 OFFCURVE",
"120 598 CURVE SMOOTH",
"88 598 OFFCURVE",
"62 572 OFFCURVE",
"62 540 CURVE SMOOTH"
);
},
{
closed = 1;
nodes = (
"182 268 OFFCURVE",
"208 242 OFFCURVE",
"240 242 CURVE SMOOTH",
"272 242 OFFCURVE",
"298 268 OFFCURVE",
"298 300 CURVE SMOOTH",
"298 332 OFFCURVE",
"272 358 OFFCURVE",
"240 358 CURVE SMOOTH",
"208 358 OFFCURVE",
"182 332 OFFCURVE",
"182 300 CURVE SMOOTH"
);
},
{
closed = 1;
nodes = (
"182 508 OFFCURVE",
"208 482 OFFCURVE",
"240 482 CURVE SMOOTH",
"272 482 OFFCURVE",
"298 508 OFFCURVE",
"298 540 CURVE SMOOTH",
"298 572 OFFCURVE",
"272 598 OFFCURVE",
"240 598 CURVE SMOOTH",
"208 598 OFFCURVE",
"182 572 OFFCURVE",
"182 540 CURVE SMOOTH"
);
},
{
closed = 1;
nodes = (
"302 328 OFFCURVE",
"328 302 OFFCURVE",
"360 302 CURVE SMOOTH",
"392 302 OFFCURVE",
"418 328 OFFCURVE",
"418 360 CURVE SMOOTH",
"418 392 OFFCURVE",
"392 418 OFFCURVE",
"360 418 CURVE SMOOTH",
"328 418 OFFCURVE",
"302 392 OFFCURVE",
"302 360 CURVE SMOOTH"
);
},
{
closed = 1;
nodes = (
"302 448 OFFCURVE",
"328 422 OFFCURVE",
"360 422 CURVE SMOOTH",
"392 422 OFFCURVE",
"418 448 OFFCURVE",
"418 480 CURVE SMOOTH",
"418 512 OFFCURVE",
"392 538 OFFCURVE",
"360 538 CURVE SMOOTH",
"328 538 OFFCURVE",
"302 512 OFFCURVE",
"302 480 CURVE SMOOTH"
);
},
{
closed = 1;
nodes = (
"242 148 OFFCURVE",
"268 122 OFFCURVE",
"300 122 CURVE SMOOTH",
"332 122 OFFCURVE",
"358 148 OFFCURVE",
"358 180 CURVE SMOOTH",
"358 212 OFFCURVE",
"332 238 OFFCURVE",
"300 238 CURVE SMOOTH",
"268 238 OFFCURVE",
"242 212 OFFCURVE",
"242 180 CURVE SMOOTH"
);
},
{
closed = 1;
nodes = (
"302 28 OFFCURVE",
"328 2 OFFCURVE",
"360 2 CURVE SMOOTH",
"392 2 OFFCURVE",
"418 28 OFFCURVE",
"418 60 CURVE SMOOTH",
"418 92 OFFCURVE",
"392 118 OFFCURVE",
"360 118 CURVE SMOOTH",
"328 118 OFFCURVE",
"302 92 OFFCURVE",
"302 60 CURVE SMOOTH"
);
}
);
width = 480;
}
);
leftKerningGroup = E;
rightKerningGroup = R;
unicode = 0052;
},
{
glyphname = S;
layers = (
{
anchors = (
{
name = top;
position = "{240, 600}";
}
);
hints = (
{
horizontal = 1;
origin = "{0, 2}";
target = "{0, 8}";
type = Stem;
},
{
horizontal = 1;
origin = "{3, 8}";
target = "{3, 2}";
type = Stem;
},
{
origin = "{5, 11}";
target = "{5, 5}";
type = Stem;
},
{
origin = "{2, 5}";
target = "{2, 11}";
type = Stem;
}
);
layerId = master01;
paths = (
{
closed = 1;
nodes = (
"122 28 OFFCURVE",
"148 2 OFFCURVE",
"180 2 CURVE SMOOTH",
"212 2 OFFCURVE",
"238 28 OFFCURVE",
"238 60 CURVE SMOOTH",
"238 92 OFFCURVE",
"212 118 OFFCURVE",
"180 118 CURVE SMOOTH",
"148 118 OFFCURVE",
"122 92 OFFCURVE",
"122 60 CURVE SMOOTH {name = hr00;}"
);
},
{
closed = 1;
nodes = (
"242 28 OFFCURVE",
"268 2 OFFCURVE",
"300 2 CURVE SMOOTH",
"332 2 OFFCURVE",
"358 28 OFFCURVE",
"358 60 CURVE SMOOTH",
"358 92 OFFCURVE",
"332 118 OFFCURVE",
"300 118 CURVE SMOOTH",
"268 118 OFFCURVE",
"242 92 OFFCURVE",
"242 60 CURVE SMOOTH"
);
},
{
closed = 1;
nodes = (
"302 148 OFFCURVE",
"328 122 OFFCURVE",
"360 122 CURVE SMOOTH",
"392 122 OFFCURVE",
"418 148 OFFCURVE",
"418 180 CURVE SMOOTH",
"418 212 OFFCURVE",
"392 238 OFFCURVE",
"360 238 CURVE SMOOTH",
"328 238 OFFCURVE",
"302 212 OFFCURVE",
"302 180 CURVE SMOOTH"
);
},
{
closed = 1;
nodes = (
"122 508 OFFCURVE",
"148 482 OFFCURVE",
"180 482 CURVE SMOOTH",
"212 482 OFFCURVE",
"238 508 OFFCURVE",
"238 540 CURVE SMOOTH",
"238 572 OFFCURVE",
"212 598 OFFCURVE",
"180 598 CURVE SMOOTH",
"148 598 OFFCURVE",
"122 572 OFFCURVE",
"122 540 CURVE SMOOTH"
);
},
{
closed = 1;
nodes = (
"242 508 OFFCURVE",
"268 482 OFFCURVE",
"300 482 CURVE SMOOTH",
"332 482 OFFCURVE",
"358 508 OFFCURVE",
"358 540 CURVE SMOOTH",
"358 572 OFFCURVE",
"332 598 OFFCURVE",
"300 598 CURVE SMOOTH",
"268 598 OFFCURVE",
"242 572 OFFCURVE",
"242 540 CURVE SMOOTH"
);
},
{
closed = 1;
nodes = (
"62 388 OFFCURVE",
"88 362 OFFCURVE",
"120 362 CURVE SMOOTH",
"152 362 OFFCURVE",
"178 388 OFFCURVE",
"178 420 CURVE SMOOTH",
"178 452 OFFCURVE",
"152 478 OFFCURVE",
"120 478 CURVE SMOOTH",
"88 478 OFFCURVE",
"62 452 OFFCURVE",
"62 420 CURVE SMOOTH"
);
},
{
closed = 1;
nodes = (
"122 268 OFFCURVE",
"148 242 OFFCURVE",
"180 242 CURVE SMOOTH",
"212 242 OFFCURVE",
"238 268 OFFCURVE",
"238 300 CURVE SMOOTH",
"238 332 OFFCURVE",
"212 358 OFFCURVE",
"180 358 CURVE SMOOTH",
"148 358 OFFCURVE",
"122 332 OFFCURVE",
"122 300 CURVE SMOOTH"
);
},
{
closed = 1;
nodes = (
"242 268 OFFCURVE",
"268 242 OFFCURVE",
"300 242 CURVE SMOOTH",
"332 242 OFFCURVE",
"358 268 OFFCURVE",
"358 300 CURVE SMOOTH",
"358 332 OFFCURVE",
"332 358 OFFCURVE",
"300 358 CURVE SMOOTH",
"268 358 OFFCURVE",
"242 332 OFFCURVE",
"242 300 CURVE SMOOTH"
);
}
);
width = 480;
}
);
leftKerningGroup = S;
rightKerningGroup = S;
unicode = 0053;
},
{
glyphname = T;
layers = (
{
hints = (
{
horizontal = 1;
origin = "{0, 2}";
target = up;
type = BottomGhost;
},
{
horizontal = 1;
origin = "{4, 8}";
target = "{4, 2}";
type = Stem;
},
{
origin = "{0, 11}";
target = "{0, 5}";
type = Stem;
}
);
layerId = master01;
paths = (
{
closed = 1;
nodes = (
"242 28 OFFCURVE",
"268 2 OFFCURVE",
"300 2 CURVE SMOOTH",
"332 2 OFFCURVE",
"358 28 OFFCURVE",
"358 60 CURVE SMOOTH",
"358 92 OFFCURVE",
"332 118 OFFCURVE",
"300 118 CURVE SMOOTH",
"268 118 OFFCURVE",
"242 92 OFFCURVE",
"242 60 CURVE SMOOTH {name = hr00;}"
);
},
{
closed = 1;
nodes = (
"242 148 OFFCURVE",
"268 122 OFFCURVE",
"300 122 CURVE SMOOTH",
"332 122 OFFCURVE",
"358 148 OFFCURVE",
"358 180 CURVE SMOOTH",
"358 212 OFFCURVE",
"332 238 OFFCURVE",
"300 238 CURVE SMOOTH",
"268 238 OFFCURVE",
"242 212 OFFCURVE",
"242 180 CURVE SMOOTH"
);
},
{
closed = 1;
nodes = (
"242 268 OFFCURVE",
"268 242 OFFCURVE",
"300 242 CURVE SMOOTH",
"332 242 OFFCURVE",
"358 268 OFFCURVE",
"358 300 CURVE SMOOTH",
"358 332 OFFCURVE",
"332 358 OFFCURVE",
"300 358 CURVE SMOOTH",
"268 358 OFFCURVE",
"242 332 OFFCURVE",
"242 300 CURVE SMOOTH"
);
},
{
closed = 1;
nodes = (
"242 388 OFFCURVE",
"268 362 OFFCURVE",
"300 362 CURVE SMOOTH",
"332 362 OFFCURVE",
"358 388 OFFCURVE",
"358 420 CURVE SMOOTH",
"358 452 OFFCURVE",
"332 478 OFFCURVE",
"300 478 CURVE SMOOTH",
"268 478 OFFCURVE",
"242 452 OFFCURVE",
"242 420 CURVE SMOOTH"
);
},
{
closed = 1;
nodes = (
"62 508 OFFCURVE",
"88 482 OFFCURVE",
"120 482 CURVE SMOOTH",
"152 482 OFFCURVE",
"178 508 OFFCURVE",
"178 540 CURVE SMOOTH",
"178 572 OFFCURVE",
"152 598 OFFCURVE",
"120 598 CURVE SMOOTH",
"88 598 OFFCURVE",
"62 572 OFFCURVE",
"62 540 CURVE SMOOTH"
);
},
{
closed = 1;
nodes = (
"182 508 OFFCURVE",
"208 482 OFFCURVE",
"240 482 CURVE SMOOTH",
"272 482 OFFCURVE",
"298 508 OFFCURVE",
"298 540 CURVE SMOOTH",
"298 572 OFFCURVE",
"272 598 OFFCURVE",
"240 598 CURVE SMOOTH",
"208 598 OFFCURVE",
"182 572 OFFCURVE",
"182 540 CURVE SMOOTH"
);
},
{
closed = 1;
nodes = (
"302 508 OFFCURVE",
"328 482 OFFCURVE",
"360 482 CURVE SMOOTH",
"392 482 OFFCURVE",
"418 508 OFFCURVE",
"418 540 CURVE SMOOTH",
"418 572 OFFCURVE",
"392 598 OFFCURVE",
"360 598 CURVE SMOOTH",
"328 598 OFFCURVE",
"302 572 OFFCURVE",
"302 540 CURVE SMOOTH"
);
},
{
closed = 1;
nodes = (
"422 508 OFFCURVE",
"448 482 OFFCURVE",
"480 482 CURVE SMOOTH",
"512 482 OFFCURVE",
"538 508 OFFCURVE",
"538 540 CURVE SMOOTH",
"538 572 OFFCURVE",
"512 598 OFFCURVE",
"480 598 CURVE SMOOTH",
"448 598 OFFCURVE",
"422 572 OFFCURVE",
"422 540 CURVE SMOOTH"
);
}
);
width = 600;
}
);
unicode = 0054;
},
{
glyphname = U;
layers = (
{
anchors = (
{
name = top;
position = "{300, 600}";
}
);
hints = (
{
horizontal = 1;
origin = "{5, 2}";
target = "{5, 8}";
type = Stem;
},
{
horizontal = 1;
origin = "{9, 8}";
target = down;
type = TopGhost;
},
{
origin = "{6, 11}";
target = "{6, 5}";
type = Stem;
},
{
origin = "{3, 5}";
target = "{3, 11}";
type = Stem;
}
);
layerId = master01;
paths = (
{
closed = 1;
nodes = (
"422 508 OFFCURVE",
"448 482 OFFCURVE",
"480 482 CURVE SMOOTH",
"512 482 OFFCURVE",
"538 508 OFFCURVE",
"538 540 CURVE SMOOTH",
"538 572 OFFCURVE",
"512 598 OFFCURVE",
"480 598 CURVE SMOOTH",
"448 598 OFFCURVE",
"422 572 OFFCURVE",
"422 540 CURVE SMOOTH {name = hr00;}"
);
},
{
closed = 1;
nodes = (
"422 388 OFFCURVE",
"448 362 OFFCURVE",
"480 362 CURVE SMOOTH",
"512 362 OFFCURVE",
"538 388 OFFCURVE",
"538 420 CURVE SMOOTH",
"538 452 OFFCURVE",
"512 478 OFFCURVE",
"480 478 CURVE SMOOTH",
"448 478 OFFCURVE",
"422 452 OFFCURVE",
"422 420 CURVE SMOOTH"
);
},
{
closed = 1;
nodes = (
"422 268 OFFCURVE",
"448 242 OFFCURVE",
"480 242 CURVE SMOOTH",
"512 242 OFFCURVE",
"538 268 OFFCURVE",
"538 300 CURVE SMOOTH",
"538 332 OFFCURVE",
"512 358 OFFCURVE",
"480 358 CURVE SMOOTH",
"448 358 OFFCURVE",
"422 332 OFFCURVE",
"422 300 CURVE SMOOTH"
);
},
{
closed = 1;
nodes = (
"422 148 OFFCURVE",
"448 122 OFFCURVE",
"480 122 CURVE SMOOTH",
"512 122 OFFCURVE",
"538 148 OFFCURVE",
"538 180 CURVE SMOOTH",
"538 212 OFFCURVE",
"512 238 OFFCURVE",
"480 238 CURVE SMOOTH",
"448 238 OFFCURVE",
"422 212 OFFCURVE",
"422 180 CURVE SMOOTH"
);
},
{
closed = 1;
nodes = (
"242 28 OFFCURVE",
"268 2 OFFCURVE",
"300 2 CURVE SMOOTH",
"332 2 OFFCURVE",
"358 28 OFFCURVE",
"358 60 CURVE SMOOTH",
"358 92 OFFCURVE",
"332 118 OFFCURVE",
"300 118 CURVE SMOOTH",
"268 118 OFFCURVE",
"242 92 OFFCURVE",
"242 60 CURVE SMOOTH"
);
},
{
closed = 1;
nodes = (
"122 28 OFFCURVE",
"148 2 OFFCURVE",
"180 2 CURVE SMOOTH",
"212 2 OFFCURVE",
"238 28 OFFCURVE",
"238 60 CURVE SMOOTH",
"238 92 OFFCURVE",
"212 118 OFFCURVE",
"180 118 CURVE SMOOTH",
"148 118 OFFCURVE",
"122 92 OFFCURVE",
"122 60 CURVE SMOOTH"
);
},
{
closed = 1;
nodes = (
"62 148 OFFCURVE",
"88 122 OFFCURVE",
"120 122 CURVE SMOOTH",
"152 122 OFFCURVE",
"178 148 OFFCURVE",
"178 180 CURVE SMOOTH",
"178 212 OFFCURVE",
"152 238 OFFCURVE",
"120 238 CURVE SMOOTH",
"88 238 OFFCURVE",
"62 212 OFFCURVE",
"62 180 CURVE SMOOTH"
);
},
{
closed = 1;
nodes = (
"62 268 OFFCURVE",
"88 242 OFFCURVE",
"120 242 CURVE SMOOTH",
"152 242 OFFCURVE",
"178 268 OFFCURVE",
"178 300 CURVE SMOOTH",
"178 332 OFFCURVE",
"152 358 OFFCURVE",
"120 358 CURVE SMOOTH",
"88 358 OFFCURVE",
"62 332 OFFCURVE",
"62 300 CURVE SMOOTH"
);
},
{
closed = 1;
nodes = (
"62 388 OFFCURVE",
"88 362 OFFCURVE",
"120 362 CURVE SMOOTH",
"152 362 OFFCURVE",
"178 388 OFFCURVE",
"178 420 CURVE SMOOTH",
"178 452 OFFCURVE",
"152 478 OFFCURVE",
"120 478 CURVE SMOOTH",
"88 478 OFFCURVE",
"62 452 OFFCURVE",
"62 420 CURVE SMOOTH"
);
},
{
closed = 1;
nodes = (
"62 508 OFFCURVE",
"88 482 OFFCURVE",
"120 482 CURVE SMOOTH",
"152 482 OFFCURVE",
"178 508 OFFCURVE",
"178 540 CURVE SMOOTH",
"178 572 OFFCURVE",
"152 598 OFFCURVE",
"120 598 CURVE SMOOTH",
"88 598 OFFCURVE",
"62 572 OFFCURVE",
"62 540 CURVE SMOOTH"
);
},
{
closed = 1;
nodes = (
"362 28 OFFCURVE",
"388 2 OFFCURVE",
"420 2 CURVE SMOOTH",
"452 2 OFFCURVE",
"478 28 OFFCURVE",
"478 60 CURVE SMOOTH",
"478 92 OFFCURVE",
"452 118 OFFCURVE",
"420 118 CURVE SMOOTH",
"388 118 OFFCURVE",
"362 92 OFFCURVE",
"362 60 CURVE SMOOTH"
);
}
);
width = 600;
}
);
leftKerningGroup = U;
rightKerningGroup = U;
unicode = 0055;
},
{
glyphname = Udieresis;
layers = (
{
hints = (
{
horizontal = 1;
origin = "{5, 2}";
target = "{5, 8}";
type = Stem;
},
{
horizontal = 1;
origin = "{8, 8}";
target = up;
type = BottomGhost;
},
{
horizontal = 1;
origin = "{9, 8}";
target = "{9, 2}";
type = Stem;
},
{
origin = "{6, 11}";
target = "{6, 5}";
type = Stem;
},
{
origin = "{3, 5}";
target = "{3, 11}";
type = Stem;
}
);
layerId = master01;
paths = (
{
closed = 1;
nodes = (
"422 628 OFFCURVE",
"448 602 OFFCURVE",
"480 602 CURVE SMOOTH",
"512 602 OFFCURVE",
"538 628 OFFCURVE",
"538 660 CURVE SMOOTH",
"538 692 OFFCURVE",
"512 718 OFFCURVE",
"480 718 CURVE SMOOTH",
"448 718 OFFCURVE",
"422 692 OFFCURVE",
"422 660 CURVE SMOOTH {name = hr00;}"
);
},
{
closed = 1;
nodes = (
"422 388 OFFCURVE",
"448 362 OFFCURVE",
"480 362 CURVE SMOOTH",
"512 362 OFFCURVE",
"538 388 OFFCURVE",
"538 420 CURVE SMOOTH",
"538 452 OFFCURVE",
"512 478 OFFCURVE",
"480 478 CURVE SMOOTH",
"448 478 OFFCURVE",
"422 452 OFFCURVE",
"422 420 CURVE SMOOTH"
);
},
{
closed = 1;
nodes = (
"422 268 OFFCURVE",
"448 242 OFFCURVE",
"480 242 CURVE SMOOTH",
"512 242 OFFCURVE",
"538 268 OFFCURVE",
"538 300 CURVE SMOOTH",
"538 332 OFFCURVE",
"512 358 OFFCURVE",
"480 358 CURVE SMOOTH",
"448 358 OFFCURVE",
"422 332 OFFCURVE",
"422 300 CURVE SMOOTH"
);
},
{
closed = 1;
nodes = (
"422 148 OFFCURVE",
"448 122 OFFCURVE",
"480 122 CURVE SMOOTH",
"512 122 OFFCURVE",
"538 148 OFFCURVE",
"538 180 CURVE SMOOTH",
"538 212 OFFCURVE",
"512 238 OFFCURVE",
"480 238 CURVE SMOOTH",
"448 238 OFFCURVE",
"422 212 OFFCURVE",
"422 180 CURVE SMOOTH"
);
},
{
closed = 1;
nodes = (
"242 28 OFFCURVE",
"268 2 OFFCURVE",
"300 2 CURVE SMOOTH",
"332 2 OFFCURVE",
"358 28 OFFCURVE",
"358 60 CURVE SMOOTH",
"358 92 OFFCURVE",
"332 118 OFFCURVE",
"300 118 CURVE SMOOTH",
"268 118 OFFCURVE",
"242 92 OFFCURVE",
"242 60 CURVE SMOOTH"
);
},
{
closed = 1;
nodes = (
"122 28 OFFCURVE",
"148 2 OFFCURVE",
"180 2 CURVE SMOOTH",
"212 2 OFFCURVE",
"238 28 OFFCURVE",
"238 60 CURVE SMOOTH",
"238 92 OFFCURVE",
"212 118 OFFCURVE",
"180 118 CURVE SMOOTH",
"148 118 OFFCURVE",
"122 92 OFFCURVE",
"122 60 CURVE SMOOTH"
);
},
{
closed = 1;
nodes = (
"62 148 OFFCURVE",
"88 122 OFFCURVE",
"120 122 CURVE SMOOTH",
"152 122 OFFCURVE",
"178 148 OFFCURVE",
"178 180 CURVE SMOOTH",
"178 212 OFFCURVE",
"152 238 OFFCURVE",
"120 238 CURVE SMOOTH",
"88 238 OFFCURVE",
"62 212 OFFCURVE",
"62 180 CURVE SMOOTH"
);
},
{
closed = 1;
nodes = (
"62 268 OFFCURVE",
"88 242 OFFCURVE",
"120 242 CURVE SMOOTH",
"152 242 OFFCURVE",
"178 268 OFFCURVE",
"178 300 CURVE SMOOTH",
"178 332 OFFCURVE",
"152 358 OFFCURVE",
"120 358 CURVE SMOOTH",
"88 358 OFFCURVE",
"62 332 OFFCURVE",
"62 300 CURVE SMOOTH"
);
},
{
closed = 1;
nodes = (
"62 388 OFFCURVE",
"88 362 OFFCURVE",
"120 362 CURVE SMOOTH",
"152 362 OFFCURVE",
"178 388 OFFCURVE",
"178 420 CURVE SMOOTH",
"178 452 OFFCURVE",
"152 478 OFFCURVE",
"120 478 CURVE SMOOTH",
"88 478 OFFCURVE",
"62 452 OFFCURVE",
"62 420 CURVE SMOOTH"
);
},
{
closed = 1;
nodes = (
"62 628 OFFCURVE",
"88 602 OFFCURVE",
"120 602 CURVE SMOOTH",
"152 602 OFFCURVE",
"178 628 OFFCURVE",
"178 660 CURVE SMOOTH",
"178 692 OFFCURVE",
"152 718 OFFCURVE",
"120 718 CURVE SMOOTH",
"88 718 OFFCURVE",
"62 692 OFFCURVE",
"62 660 CURVE SMOOTH"
);
},
{
closed = 1;
nodes = (
"362 28 OFFCURVE",
"388 2 OFFCURVE",
"420 2 CURVE SMOOTH",
"452 2 OFFCURVE",
"478 28 OFFCURVE",
"478 60 CURVE SMOOTH",
"478 92 OFFCURVE",
"452 118 OFFCURVE",
"420 118 CURVE SMOOTH",
"388 118 OFFCURVE",
"362 92 OFFCURVE",
"362 60 CURVE SMOOTH"
);
}
);
width = 600;
}
);
leftKerningGroup = U;
rightKerningGroup = U;
unicode = 00DC;
},
{
glyphname = V;
layers = (
{
hints = (
{
horizontal = 1;
origin = "{0, 2}";
target = up;
type = BottomGhost;
},
{
horizontal = 1;
origin = "{8, 8}";
target = down;
type = TopGhost;
}
);
layerId = master01;
paths = (
{
closed = 1;
nodes = (
"242 28 OFFCURVE",
"268 2 OFFCURVE",
"300 2 CURVE SMOOTH",
"332 2 OFFCURVE",
"358 28 OFFCURVE",
"358 60 CURVE SMOOTH",
"358 92 OFFCURVE",
"332 118 OFFCURVE",
"300 118 CURVE SMOOTH",
"268 118 OFFCURVE",
"242 92 OFFCURVE",
"242 60 CURVE SMOOTH {name = hr00;}"
);
},
{
closed = 1;
nodes = (
"302 148 OFFCURVE",
"328 122 OFFCURVE",
"360 122 CURVE SMOOTH",
"392 122 OFFCURVE",
"418 148 OFFCURVE",
"418 180 CURVE SMOOTH",
"418 212 OFFCURVE",
"392 238 OFFCURVE",
"360 238 CURVE SMOOTH",
"328 238 OFFCURVE",
"302 212 OFFCURVE",
"302 180 CURVE SMOOTH"
);
},
{
closed = 1;
nodes = (
"362 268 OFFCURVE",
"388 242 OFFCURVE",
"420 242 CURVE SMOOTH",
"452 242 OFFCURVE",
"478 268 OFFCURVE",
"478 300 CURVE SMOOTH",
"478 332 OFFCURVE",
"452 358 OFFCURVE",
"420 358 CURVE SMOOTH",
"388 358 OFFCURVE",
"362 332 OFFCURVE",
"362 300 CURVE SMOOTH"
);
},
{
closed = 1;
nodes = (
"422 388 OFFCURVE",
"448 362 OFFCURVE",
"480 362 CURVE SMOOTH",
"512 362 OFFCURVE",
"538 388 OFFCURVE",
"538 420 CURVE SMOOTH",
"538 452 OFFCURVE",
"512 478 OFFCURVE",
"480 478 CURVE SMOOTH",
"448 478 OFFCURVE",
"422 452 OFFCURVE",
"422 420 CURVE SMOOTH"
);
},
{
closed = 1;
nodes = (
"482 508 OFFCURVE",
"508 482 OFFCURVE",
"540 482 CURVE SMOOTH",
"572 482 OFFCURVE",
"598 508 OFFCURVE",
"598 540 CURVE SMOOTH",
"598 572 OFFCURVE",
"572 598 OFFCURVE",
"540 598 CURVE SMOOTH",
"508 598 OFFCURVE",
"482 572 OFFCURVE",
"482 540 CURVE SMOOTH"
);
},
{
closed = 1;
nodes = (
"182 148 OFFCURVE",
"208 122 OFFCURVE",
"240 122 CURVE SMOOTH",
"272 122 OFFCURVE",
"298 148 OFFCURVE",
"298 180 CURVE SMOOTH",
"298 212 OFFCURVE",
"272 238 OFFCURVE",
"240 238 CURVE SMOOTH",
"208 238 OFFCURVE",
"182 212 OFFCURVE",
"182 180 CURVE SMOOTH"
);
},
{
closed = 1;
nodes = (
"122 268 OFFCURVE",
"148 242 OFFCURVE",
"180 242 CURVE SMOOTH",
"212 242 OFFCURVE",
"238 268 OFFCURVE",
"238 300 CURVE SMOOTH",
"238 332 OFFCURVE",
"212 358 OFFCURVE",
"180 358 CURVE SMOOTH",
"148 358 OFFCURVE",
"122 332 OFFCURVE",
"122 300 CURVE SMOOTH"
);
},
{
closed = 1;
nodes = (
"62 388 OFFCURVE",
"88 362 OFFCURVE",
"120 362 CURVE SMOOTH",
"152 362 OFFCURVE",
"178 388 OFFCURVE",
"178 420 CURVE SMOOTH",
"178 452 OFFCURVE",
"152 478 OFFCURVE",
"120 478 CURVE SMOOTH",
"88 478 OFFCURVE",
"62 452 OFFCURVE",
"62 420 CURVE SMOOTH"
);
},
{
closed = 1;
nodes = (
"2 508 OFFCURVE",
"28 482 OFFCURVE",
"60 482 CURVE SMOOTH",
"92 482 OFFCURVE",
"118 508 OFFCURVE",
"118 540 CURVE SMOOTH",
"118 572 OFFCURVE",
"92 598 OFFCURVE",
"60 598 CURVE SMOOTH",
"28 598 OFFCURVE",
"2 572 OFFCURVE",
"2 540 CURVE SMOOTH"
);
}
);
width = 600;
}
);
leftKerningGroup = V;
rightKerningGroup = V;
unicode = 0056;
},
{
glyphname = W;
layers = (
{
hints = (
{
horizontal = 1;
origin = "{0, 2}";
target = up;
type = BottomGhost;
},
{
horizontal = 1;
origin = "{7, 8}";
target = down;
type = TopGhost;
}
);
layerId = master01;
paths = (
{
closed = 1;
nodes = (
"242 28 OFFCURVE",
"268 2 OFFCURVE",
"300 2 CURVE SMOOTH",
"332 2 OFFCURVE",
"358 28 OFFCURVE",
"358 60 CURVE SMOOTH",
"358 92 OFFCURVE",
"332 118 OFFCURVE",
"300 118 CURVE SMOOTH",
"268 118 OFFCURVE",
"242 92 OFFCURVE",
"242 60 CURVE SMOOTH {name = hr00;}"
);
},
{
closed = 1;
nodes = (
"302 148 OFFCURVE",
"328 122 OFFCURVE",
"360 122 CURVE SMOOTH",
"392 122 OFFCURVE",
"418 148 OFFCURVE",
"418 180 CURVE SMOOTH",
"418 212 OFFCURVE",
"392 238 OFFCURVE",
"360 238 CURVE SMOOTH",
"328 238 OFFCURVE",
"302 212 OFFCURVE",
"302 180 CURVE SMOOTH"
);
},
{
closed = 1;
nodes = (
"362 268 OFFCURVE",
"388 242 OFFCURVE",
"420 242 CURVE SMOOTH",
"452 242 OFFCURVE",
"478 268 OFFCURVE",
"478 300 CURVE SMOOTH",
"478 332 OFFCURVE",
"452 358 OFFCURVE",
"420 358 CURVE SMOOTH",
"388 358 OFFCURVE",
"362 332 OFFCURVE",
"362 300 CURVE SMOOTH"
);
},
{
closed = 1;
nodes = (
"422 388 OFFCURVE",
"448 362 OFFCURVE",
"480 362 CURVE SMOOTH",
"512 362 OFFCURVE",
"538 388 OFFCURVE",
"538 420 CURVE SMOOTH",
"538 452 OFFCURVE",
"512 478 OFFCURVE",
"480 478 CURVE SMOOTH",
"448 478 OFFCURVE",
"422 452 OFFCURVE",
"422 420 CURVE SMOOTH"
);
},
{
closed = 1;
nodes = (
"182 148 OFFCURVE",
"208 122 OFFCURVE",
"240 122 CURVE SMOOTH",
"272 122 OFFCURVE",
"298 148 OFFCURVE",
"298 180 CURVE SMOOTH",
"298 212 OFFCURVE",
"272 238 OFFCURVE",
"240 238 CURVE SMOOTH",
"208 238 OFFCURVE",
"182 212 OFFCURVE",
"182 180 CURVE SMOOTH"
);
},
{
closed = 1;
nodes = (
"122 268 OFFCURVE",
"148 242 OFFCURVE",
"180 242 CURVE SMOOTH",
"212 242 OFFCURVE",
"238 268 OFFCURVE",
"238 300 CURVE SMOOTH",
"238 332 OFFCURVE",
"212 358 OFFCURVE",
"180 358 CURVE SMOOTH",
"148 358 OFFCURVE",
"122 332 OFFCURVE",
"122 300 CURVE SMOOTH"
);
},
{
closed = 1;
nodes = (
"62 388 OFFCURVE",
"88 362 OFFCURVE",
"120 362 CURVE SMOOTH",
"152 362 OFFCURVE",
"178 388 OFFCURVE",
"178 420 CURVE SMOOTH",
"178 452 OFFCURVE",
"152 478 OFFCURVE",
"120 478 CURVE SMOOTH",
"88 478 OFFCURVE",
"62 452 OFFCURVE",
"62 420 CURVE SMOOTH"
);
},
{
closed = 1;
nodes = (
"2 508 OFFCURVE",
"28 482 OFFCURVE",
"60 482 CURVE SMOOTH",
"92 482 OFFCURVE",
"118 508 OFFCURVE",
"118 540 CURVE SMOOTH",
"118 572 OFFCURVE",
"92 598 OFFCURVE",
"60 598 CURVE SMOOTH",
"28 598 OFFCURVE",
"2 572 OFFCURVE",
"2 540 CURVE SMOOTH"
);
},
{
closed = 1;
nodes = (
"482 268 OFFCURVE",
"508 242 OFFCURVE",
"540 242 CURVE SMOOTH",
"572 242 OFFCURVE",
"598 268 OFFCURVE",
"598 300 CURVE SMOOTH",
"598 332 OFFCURVE",
"572 358 OFFCURVE",
"540 358 CURVE SMOOTH",
"508 358 OFFCURVE",
"482 332 OFFCURVE",
"482 300 CURVE SMOOTH"
);
},
{
closed = 1;
nodes = (
"542 148 OFFCURVE",
"568 122 OFFCURVE",
"600 122 CURVE SMOOTH",
"632 122 OFFCURVE",
"658 148 OFFCURVE",
"658 180 CURVE SMOOTH",
"658 212 OFFCURVE",
"632 238 OFFCURVE",
"600 238 CURVE SMOOTH",
"568 238 OFFCURVE",
"542 212 OFFCURVE",
"542 180 CURVE SMOOTH"
);
},
{
closed = 1;
nodes = (
"602 28 OFFCURVE",
"628 2 OFFCURVE",
"660 2 CURVE SMOOTH",
"692 2 OFFCURVE",
"718 28 OFFCURVE",
"718 60 CURVE SMOOTH",
"718 92 OFFCURVE",
"692 118 OFFCURVE",
"660 118 CURVE SMOOTH",
"628 118 OFFCURVE",
"602 92 OFFCURVE",
"602 60 CURVE SMOOTH"
);
},
{
closed = 1;
nodes = (
"662 148 OFFCURVE",
"688 122 OFFCURVE",
"720 122 CURVE SMOOTH",
"752 122 OFFCURVE",
"778 148 OFFCURVE",
"778 180 CURVE SMOOTH",
"778 212 OFFCURVE",
"752 238 OFFCURVE",
"720 238 CURVE SMOOTH",
"688 238 OFFCURVE",
"662 212 OFFCURVE",
"662 180 CURVE SMOOTH"
);
},
{
closed = 1;
nodes = (
"722 268 OFFCURVE",
"748 242 OFFCURVE",
"780 242 CURVE SMOOTH",
"812 242 OFFCURVE",
"838 268 OFFCURVE",
"838 300 CURVE SMOOTH",
"838 332 OFFCURVE",
"812 358 OFFCURVE",
"780 358 CURVE SMOOTH",
"748 358 OFFCURVE",
"722 332 OFFCURVE",
"722 300 CURVE SMOOTH"
);
},
{
closed = 1;
nodes = (
"782 388 OFFCURVE",
"808 362 OFFCURVE",
"840 362 CURVE SMOOTH",
"872 362 OFFCURVE",
"898 388 OFFCURVE",
"898 420 CURVE SMOOTH",
"898 452 OFFCURVE",
"872 478 OFFCURVE",
"840 478 CURVE SMOOTH",
"808 478 OFFCURVE",
"782 452 OFFCURVE",
"782 420 CURVE SMOOTH"
);
},
{
closed = 1;
nodes = (
"842 508 OFFCURVE",
"868 482 OFFCURVE",
"900 482 CURVE SMOOTH",
"932 482 OFFCURVE",
"958 508 OFFCURVE",
"958 540 CURVE SMOOTH",
"958 572 OFFCURVE",
"932 598 OFFCURVE",
"900 598 CURVE SMOOTH",
"868 598 OFFCURVE",
"842 572 OFFCURVE",
"842 540 CURVE SMOOTH"
);
}
);
width = 960;
}
);
leftKerningGroup = V;
rightKerningGroup = V;
unicode = 0057;
},
{
glyphname = X;
layers = (
{
hints = (
{
horizontal = 1;
origin = "{0, 2}";
target = up;
type = BottomGhost;
},
{
horizontal = 1;
origin = "{2, 2}";
target = "{2, 8}";
type = Stem;
},
{
horizontal = 1;
origin = "{8, 8}";
target = down;
type = TopGhost;
}
);
layerId = master01;
paths = (
{
closed = 1;
nodes = (
"2 28 OFFCURVE",
"28 2 OFFCURVE",
"60 2 CURVE SMOOTH",
"92 2 OFFCURVE",
"118 28 OFFCURVE",
"118 60 CURVE SMOOTH",
"118 92 OFFCURVE",
"92 118 OFFCURVE",
"60 118 CURVE SMOOTH",
"28 118 OFFCURVE",
"2 92 OFFCURVE",
"2 60 CURVE SMOOTH {name = hr00;}"
);
},
{
closed = 1;
nodes = (
"62 148 OFFCURVE",
"88 122 OFFCURVE",
"120 122 CURVE SMOOTH",
"152 122 OFFCURVE",
"178 148 OFFCURVE",
"178 180 CURVE SMOOTH",
"178 212 OFFCURVE",
"152 238 OFFCURVE",
"120 238 CURVE SMOOTH",
"88 238 OFFCURVE",
"62 212 OFFCURVE",
"62 180 CURVE SMOOTH"
);
},
{
closed = 1;
nodes = (
"122 268 OFFCURVE",
"148 242 OFFCURVE",
"180 242 CURVE SMOOTH",
"212 242 OFFCURVE",
"238 268 OFFCURVE",
"238 300 CURVE SMOOTH",
"238 332 OFFCURVE",
"212 358 OFFCURVE",
"180 358 CURVE SMOOTH",
"148 358 OFFCURVE",
"122 332 OFFCURVE",
"122 300 CURVE SMOOTH"
);
},
{
closed = 1;
nodes = (
"302 388 OFFCURVE",
"328 362 OFFCURVE",
"360 362 CURVE SMOOTH",
"392 362 OFFCURVE",
"418 388 OFFCURVE",
"418 420 CURVE SMOOTH",
"418 452 OFFCURVE",
"392 478 OFFCURVE",
"360 478 CURVE SMOOTH",
"328 478 OFFCURVE",
"302 452 OFFCURVE",
"302 420 CURVE SMOOTH"
);
},
{
closed = 1;
nodes = (
"362 508 OFFCURVE",
"388 482 OFFCURVE",
"420 482 CURVE SMOOTH",
"452 482 OFFCURVE",
"478 508 OFFCURVE",
"478 540 CURVE SMOOTH",
"478 572 OFFCURVE",
"452 598 OFFCURVE",
"420 598 CURVE SMOOTH",
"388 598 OFFCURVE",
"362 572 OFFCURVE",
"362 540 CURVE SMOOTH"
);
},
{
closed = 1;
nodes = (
"302 148 OFFCURVE",
"328 122 OFFCURVE",
"360 122 CURVE SMOOTH",
"392 122 OFFCURVE",
"418 148 OFFCURVE",
"418 180 CURVE SMOOTH",
"418 212 OFFCURVE",
"392 238 OFFCURVE",
"360 238 CURVE SMOOTH",
"328 238 OFFCURVE",
"302 212 OFFCURVE",
"302 180 CURVE SMOOTH"
);
},
{
closed = 1;
nodes = (
"362 28 OFFCURVE",
"388 2 OFFCURVE",
"420 2 CURVE SMOOTH",
"452 2 OFFCURVE",
"478 28 OFFCURVE",
"478 60 CURVE SMOOTH",
"478 92 OFFCURVE",
"452 118 OFFCURVE",
"420 118 CURVE SMOOTH",
"388 118 OFFCURVE",
"362 92 OFFCURVE",
"362 60 CURVE SMOOTH"
);
},
{
closed = 1;
nodes = (
"62 388 OFFCURVE",
"88 362 OFFCURVE",
"120 362 CURVE SMOOTH",
"152 362 OFFCURVE",
"178 388 OFFCURVE",
"178 420 CURVE SMOOTH",
"178 452 OFFCURVE",
"152 478 OFFCURVE",
"120 478 CURVE SMOOTH",
"88 478 OFFCURVE",
"62 452 OFFCURVE",
"62 420 CURVE SMOOTH"
);
},
{
closed = 1;
nodes = (
"2 508 OFFCURVE",
"28 482 OFFCURVE",
"60 482 CURVE SMOOTH",
"92 482 OFFCURVE",
"118 508 OFFCURVE",
"118 540 CURVE SMOOTH",
"118 572 OFFCURVE",
"92 598 OFFCURVE",
"60 598 CURVE SMOOTH",
"28 598 OFFCURVE",
"2 572 OFFCURVE",
"2 540 CURVE SMOOTH"
);
},
{
closed = 1;
nodes = (
"242 268 OFFCURVE",
"268 242 OFFCURVE",
"300 242 CURVE SMOOTH",
"332 242 OFFCURVE",
"358 268 OFFCURVE",
"358 300 CURVE SMOOTH",
"358 332 OFFCURVE",
"332 358 OFFCURVE",
"300 358 CURVE SMOOTH",
"268 358 OFFCURVE",
"242 332 OFFCURVE",
"242 300 CURVE SMOOTH"
);
}
);
width = 480;
}
);
unicode = 0058;
},
{
glyphname = Y;
layers = (
{
anchors = (
{
name = top;
position = "{240, 600}";
}
);
hints = (
{
horizontal = 1;
origin = "{0, 2}";
target = up;
type = BottomGhost;
},
{
horizontal = 1;
origin = "{6, 8}";
target = down;
type = TopGhost;
}
);
layerId = master01;
paths = (
{
closed = 1;
nodes = (
"182 28 OFFCURVE",
"208 2 OFFCURVE",
"240 2 CURVE SMOOTH",
"272 2 OFFCURVE",
"298 28 OFFCURVE",
"298 60 CURVE SMOOTH",
"298 92 OFFCURVE",
"272 118 OFFCURVE",
"240 118 CURVE SMOOTH",
"208 118 OFFCURVE",
"182 92 OFFCURVE",
"182 60 CURVE SMOOTH {name = hr00;}"
);
},
{
closed = 1;
nodes = (
"182 148 OFFCURVE",
"208 122 OFFCURVE",
"240 122 CURVE SMOOTH",
"272 122 OFFCURVE",
"298 148 OFFCURVE",
"298 180 CURVE SMOOTH",
"298 212 OFFCURVE",
"272 238 OFFCURVE",
"240 238 CURVE SMOOTH",
"208 238 OFFCURVE",
"182 212 OFFCURVE",
"182 180 CURVE SMOOTH"
);
},
{
closed = 1;
nodes = (
"122 268 OFFCURVE",
"148 242 OFFCURVE",
"180 242 CURVE SMOOTH",
"212 242 OFFCURVE",
"238 268 OFFCURVE",
"238 300 CURVE SMOOTH",
"238 332 OFFCURVE",
"212 358 OFFCURVE",
"180 358 CURVE SMOOTH",
"148 358 OFFCURVE",
"122 332 OFFCURVE",
"122 300 CURVE SMOOTH"
);
},
{
closed = 1;
nodes = (
"242 268 OFFCURVE",
"268 242 OFFCURVE",
"300 242 CURVE SMOOTH",
"332 242 OFFCURVE",
"358 268 OFFCURVE",
"358 300 CURVE SMOOTH",
"358 332 OFFCURVE",
"332 358 OFFCURVE",
"300 358 CURVE SMOOTH",
"268 358 OFFCURVE",
"242 332 OFFCURVE",
"242 300 CURVE SMOOTH"
);
},
{
closed = 1;
nodes = (
"362 508 OFFCURVE",
"388 482 OFFCURVE",
"420 482 CURVE SMOOTH",
"452 482 OFFCURVE",
"478 508 OFFCURVE",
"478 540 CURVE SMOOTH",
"478 572 OFFCURVE",
"452 598 OFFCURVE",
"420 598 CURVE SMOOTH",
"388 598 OFFCURVE",
"362 572 OFFCURVE",
"362 540 CURVE SMOOTH"
);
},
{
closed = 1;
nodes = (
"62 388 OFFCURVE",
"88 362 OFFCURVE",
"120 362 CURVE SMOOTH",
"152 362 OFFCURVE",
"178 388 OFFCURVE",
"178 420 CURVE SMOOTH",
"178 452 OFFCURVE",
"152 478 OFFCURVE",
"120 478 CURVE SMOOTH",
"88 478 OFFCURVE",
"62 452 OFFCURVE",
"62 420 CURVE SMOOTH"
);
},
{
closed = 1;
nodes = (
"2 508 OFFCURVE",
"28 482 OFFCURVE",
"60 482 CURVE SMOOTH",
"92 482 OFFCURVE",
"118 508 OFFCURVE",
"118 540 CURVE SMOOTH",
"118 572 OFFCURVE",
"92 598 OFFCURVE",
"60 598 CURVE SMOOTH",
"28 598 OFFCURVE",
"2 572 OFFCURVE",
"2 540 CURVE SMOOTH"
);
},
{
closed = 1;
nodes = (
"302 388 OFFCURVE",
"328 362 OFFCURVE",
"360 362 CURVE SMOOTH",
"392 362 OFFCURVE",
"418 388 OFFCURVE",
"418 420 CURVE SMOOTH",
"418 452 OFFCURVE",
"392 478 OFFCURVE",
"360 478 CURVE SMOOTH",
"328 478 OFFCURVE",
"302 452 OFFCURVE",
"302 420 CURVE SMOOTH"
);
}
);
width = 480;
}
);
leftKerningGroup = Y;
rightKerningGroup = Y;
unicode = 0059;
},
{
glyphname = Ydieresis;
layers = (
{
hints = (
{
horizontal = 1;
origin = "{0, 2}";
target = up;
type = BottomGhost;
},
{
horizontal = 1;
origin = "{6, 8}";
target = down;
type = TopGhost;
},
{
horizontal = 1;
origin = "{8, 8}";
target = "{8, 2}";
type = Stem;
},
{
origin = "{0, 11}";
target = "{0, 5}";
type = Stem;
}
);
layerId = master01;
paths = (
{
closed = 1;
nodes = (
"182 28 OFFCURVE",
"208 2 OFFCURVE",
"240 2 CURVE SMOOTH",
"272 2 OFFCURVE",
"298 28 OFFCURVE",
"298 60 CURVE SMOOTH",
"298 92 OFFCURVE",
"272 118 OFFCURVE",
"240 118 CURVE SMOOTH",
"208 118 OFFCURVE",
"182 92 OFFCURVE",
"182 60 CURVE SMOOTH {name = hr00;}"
);
},
{
closed = 1;
nodes = (
"182 148 OFFCURVE",
"208 122 OFFCURVE",
"240 122 CURVE SMOOTH",
"272 122 OFFCURVE",
"298 148 OFFCURVE",
"298 180 CURVE SMOOTH",
"298 212 OFFCURVE",
"272 238 OFFCURVE",
"240 238 CURVE SMOOTH",
"208 238 OFFCURVE",
"182 212 OFFCURVE",
"182 180 CURVE SMOOTH"
);
},
{
closed = 1;
nodes = (
"122 268 OFFCURVE",
"148 242 OFFCURVE",
"180 242 CURVE SMOOTH",
"212 242 OFFCURVE",
"238 268 OFFCURVE",
"238 300 CURVE SMOOTH",
"238 332 OFFCURVE",
"212 358 OFFCURVE",
"180 358 CURVE SMOOTH",
"148 358 OFFCURVE",
"122 332 OFFCURVE",
"122 300 CURVE SMOOTH"
);
},
{
closed = 1;
nodes = (
"242 268 OFFCURVE",
"268 242 OFFCURVE",
"300 242 CURVE SMOOTH",
"332 242 OFFCURVE",
"358 268 OFFCURVE",
"358 300 CURVE SMOOTH",
"358 332 OFFCURVE",
"332 358 OFFCURVE",
"300 358 CURVE SMOOTH",
"268 358 OFFCURVE",
"242 332 OFFCURVE",
"242 300 CURVE SMOOTH"
);
},
{
closed = 1;
nodes = (
"362 508 OFFCURVE",
"388 482 OFFCURVE",
"420 482 CURVE SMOOTH",
"452 482 OFFCURVE",
"478 508 OFFCURVE",
"478 540 CURVE SMOOTH",
"478 572 OFFCURVE",
"452 598 OFFCURVE",
"420 598 CURVE SMOOTH",
"388 598 OFFCURVE",
"362 572 OFFCURVE",
"362 540 CURVE SMOOTH"
);
},
{
closed = 1;
nodes = (
"62 388 OFFCURVE",
"88 362 OFFCURVE",
"120 362 CURVE SMOOTH",
"152 362 OFFCURVE",
"178 388 OFFCURVE",
"178 420 CURVE SMOOTH",
"178 452 OFFCURVE",
"152 478 OFFCURVE",
"120 478 CURVE SMOOTH",
"88 478 OFFCURVE",
"62 452 OFFCURVE",
"62 420 CURVE SMOOTH"
);
},
{
closed = 1;
nodes = (
"2 508 OFFCURVE",
"28 482 OFFCURVE",
"60 482 CURVE SMOOTH",
"92 482 OFFCURVE",
"118 508 OFFCURVE",
"118 540 CURVE SMOOTH",
"118 572 OFFCURVE",
"92 598 OFFCURVE",
"60 598 CURVE SMOOTH",
"28 598 OFFCURVE",
"2 572 OFFCURVE",
"2 540 CURVE SMOOTH"
);
},
{
closed = 1;
nodes = (
"302 388 OFFCURVE",
"328 362 OFFCURVE",
"360 362 CURVE SMOOTH",
"392 362 OFFCURVE",
"418 388 OFFCURVE",
"418 420 CURVE SMOOTH",
"418 452 OFFCURVE",
"392 478 OFFCURVE",
"360 478 CURVE SMOOTH",
"328 478 OFFCURVE",
"302 452 OFFCURVE",
"302 420 CURVE SMOOTH"
);
},
{
closed = 1;
nodes = (
"62 628 OFFCURVE",
"88 602 OFFCURVE",
"120 602 CURVE SMOOTH",
"152 602 OFFCURVE",
"178 628 OFFCURVE",
"178 660 CURVE SMOOTH",
"178 692 OFFCURVE",
"152 718 OFFCURVE",
"120 718 CURVE SMOOTH",
"88 718 OFFCURVE",
"62 692 OFFCURVE",
"62 660 CURVE SMOOTH"
);
},
{
closed = 1;
nodes = (
"302 628 OFFCURVE",
"328 602 OFFCURVE",
"360 602 CURVE SMOOTH",
"392 602 OFFCURVE",
"418 628 OFFCURVE",
"418 660 CURVE SMOOTH",
"418 692 OFFCURVE",
"392 718 OFFCURVE",
"360 718 CURVE SMOOTH",
"328 718 OFFCURVE",
"302 692 OFFCURVE",
"302 660 CURVE SMOOTH"
);
}
);
width = 480;
}
);
leftKerningGroup = Y;
rightKerningGroup = Y;
unicode = 0178;
},
{
glyphname = Z;
layers = (
{
anchors = (
{
name = top;
position = "{240, 600}";
}
);
hints = (
{
horizontal = 1;
origin = "{0, 2}";
target = "{0, 8}";
type = Stem;
},
{
horizontal = 1;
origin = "{6, 8}";
target = "{6, 2}";
type = Stem;
}
);
layerId = master01;
paths = (
{
closed = 1;
nodes = (
"62 28 OFFCURVE",
"88 2 OFFCURVE",
"120 2 CURVE SMOOTH",
"152 2 OFFCURVE",
"178 28 OFFCURVE",
"178 60 CURVE SMOOTH",
"178 92 OFFCURVE",
"152 118 OFFCURVE",
"120 118 CURVE SMOOTH",
"88 118 OFFCURVE",
"62 92 OFFCURVE",
"62 60 CURVE SMOOTH {name = hr00;}"
);
},
{
closed = 1;
nodes = (
"122 148 OFFCURVE",
"148 122 OFFCURVE",
"180 122 CURVE SMOOTH",
"212 122 OFFCURVE",
"238 148 OFFCURVE",
"238 180 CURVE SMOOTH",
"238 212 OFFCURVE",
"212 238 OFFCURVE",
"180 238 CURVE SMOOTH",
"148 238 OFFCURVE",
"122 212 OFFCURVE",
"122 180 CURVE SMOOTH"
);
},
{
closed = 1;
nodes = (
"182 268 OFFCURVE",
"208 242 OFFCURVE",
"240 242 CURVE SMOOTH",
"272 242 OFFCURVE",
"298 268 OFFCURVE",
"298 300 CURVE SMOOTH",
"298 332 OFFCURVE",
"272 358 OFFCURVE",
"240 358 CURVE SMOOTH",
"208 358 OFFCURVE",
"182 332 OFFCURVE",
"182 300 CURVE SMOOTH"
);
},
{
closed = 1;
nodes = (
"242 388 OFFCURVE",
"268 362 OFFCURVE",
"300 362 CURVE SMOOTH",
"332 362 OFFCURVE",
"358 388 OFFCURVE",
"358 420 CURVE SMOOTH",
"358 452 OFFCURVE",
"332 478 OFFCURVE",
"300 478 CURVE SMOOTH",
"268 478 OFFCURVE",
"242 452 OFFCURVE",
"242 420 CURVE SMOOTH"
);
},
{
closed = 1;
nodes = (
"302 508 OFFCURVE",
"328 482 OFFCURVE",
"360 482 CURVE SMOOTH",
"392 482 OFFCURVE",
"418 508 OFFCURVE",
"418 540 CURVE SMOOTH",
"418 572 OFFCURVE",
"392 598 OFFCURVE",
"360 598 CURVE SMOOTH",
"328 598 OFFCURVE",
"302 572 OFFCURVE",
"302 540 CURVE SMOOTH"
);
},
{
closed = 1;
nodes = (
"182 508 OFFCURVE",
"208 482 OFFCURVE",
"240 482 CURVE SMOOTH",
"272 482 OFFCURVE",
"298 508 OFFCURVE",
"298 540 CURVE SMOOTH",
"298 572 OFFCURVE",
"272 598 OFFCURVE",
"240 598 CURVE SMOOTH",
"208 598 OFFCURVE",
"182 572 OFFCURVE",
"182 540 CURVE SMOOTH"
);
},
{
closed = 1;
nodes = (
"62 508 OFFCURVE",
"88 482 OFFCURVE",
"120 482 CURVE SMOOTH",
"152 482 OFFCURVE",
"178 508 OFFCURVE",
"178 540 CURVE SMOOTH",
"178 572 OFFCURVE",
"152 598 OFFCURVE",
"120 598 CURVE SMOOTH",
"88 598 OFFCURVE",
"62 572 OFFCURVE",
"62 540 CURVE SMOOTH"
);
},
{
closed = 1;
nodes = (
"182 28 OFFCURVE",
"208 2 OFFCURVE",
"240 2 CURVE SMOOTH",
"272 2 OFFCURVE",
"298 28 OFFCURVE",
"298 60 CURVE SMOOTH",
"298 92 OFFCURVE",
"272 118 OFFCURVE",
"240 118 CURVE SMOOTH",
"208 118 OFFCURVE",
"182 92 OFFCURVE",
"182 60 CURVE SMOOTH"
);
},
{
closed = 1;
nodes = (
"302 28 OFFCURVE",
"328 2 OFFCURVE",
"360 2 CURVE SMOOTH",
"392 2 OFFCURVE",
"418 28 OFFCURVE",
"418 60 CURVE SMOOTH",
"418 92 OFFCURVE",
"392 118 OFFCURVE",
"360 118 CURVE SMOOTH",
"328 118 OFFCURVE",
"302 92 OFFCURVE",
"302 60 CURVE SMOOTH"
);
}
);
width = 480;
}
);
leftKerningGroup = Z;
rightKerningGroup = Z;
unicode = 005A;
},
{
glyphname = a;
layers = (
{
hints = (
{
horizontal = 1;
origin = "{0, 2}";
target = up;
type = BottomGhost;
},
{
horizontal = 1;
origin = "{2, 2}";
target = "{2, 8}";
type = Stem;
},
{
horizontal = 1;
origin = "{4, 8}";
target = "{4, 2}";
type = Stem;
},
{
origin = "{0, 11}";
target = "{0, 5}";
type = Stem;
},
{
origin = "{7, 5}";
target = "{7, 11}";
type = Stem;
}
);
layerId = master01;
paths = (
{
closed = 1;
nodes = (
"62 28 OFFCURVE",
"88 2 OFFCURVE",
"120 2 CURVE SMOOTH",
"152 2 OFFCURVE",
"178 28 OFFCURVE",
"178 60 CURVE SMOOTH",
"178 92 OFFCURVE",
"152 118 OFFCURVE",
"120 118 CURVE SMOOTH",
"88 118 OFFCURVE",
"62 92 OFFCURVE",
"62 60 CURVE SMOOTH {name = hr00;}"
);
},
{
closed = 1;
nodes = (
"62 148 OFFCURVE",
"88 122 OFFCURVE",
"120 122 CURVE SMOOTH",
"152 122 OFFCURVE",
"178 148 OFFCURVE",
"178 180 CURVE SMOOTH",
"178 212 OFFCURVE",
"152 238 OFFCURVE",
"120 238 CURVE SMOOTH",
"88 238 OFFCURVE",
"62 212 OFFCURVE",
"62 180 CURVE SMOOTH"
);
},
{
closed = 1;
nodes = (
"62 268 OFFCURVE",
"88 242 OFFCURVE",
"120 242 CURVE SMOOTH",
"152 242 OFFCURVE",
"178 268 OFFCURVE",
"178 300 CURVE SMOOTH",
"178 332 OFFCURVE",
"152 358 OFFCURVE",
"120 358 CURVE SMOOTH",
"88 358 OFFCURVE",
"62 332 OFFCURVE",
"62 300 CURVE SMOOTH"
);
},
{
closed = 1;
nodes = (
"62 388 OFFCURVE",
"88 362 OFFCURVE",
"120 362 CURVE SMOOTH",
"152 362 OFFCURVE",
"178 388 OFFCURVE",
"178 420 CURVE SMOOTH",
"178 452 OFFCURVE",
"152 478 OFFCURVE",
"120 478 CURVE SMOOTH",
"88 478 OFFCURVE",
"62 452 OFFCURVE",
"62 420 CURVE SMOOTH"
);
},
{
closed = 1;
nodes = (
"122 508 OFFCURVE",
"148 482 OFFCURVE",
"180 482 CURVE SMOOTH",
"212 482 OFFCURVE",
"238 508 OFFCURVE",
"238 540 CURVE SMOOTH",
"238 572 OFFCURVE",
"212 598 OFFCURVE",
"180 598 CURVE SMOOTH",
"148 598 OFFCURVE",
"122 572 OFFCURVE",
"122 540 CURVE SMOOTH"
);
},
{
closed = 1;
nodes = (
"182 268 OFFCURVE",
"208 242 OFFCURVE",
"240 242 CURVE SMOOTH",
"272 242 OFFCURVE",
"298 268 OFFCURVE",
"298 300 CURVE SMOOTH",
"298 332 OFFCURVE",
"272 358 OFFCURVE",
"240 358 CURVE SMOOTH",
"208 358 OFFCURVE",
"182 332 OFFCURVE",
"182 300 CURVE SMOOTH"
);
},
{
closed = 1;
nodes = (
"242 508 OFFCURVE",
"268 482 OFFCURVE",
"300 482 CURVE SMOOTH",
"332 482 OFFCURVE",
"358 508 OFFCURVE",
"358 540 CURVE SMOOTH",
"358 572 OFFCURVE",
"332 598 OFFCURVE",
"300 598 CURVE SMOOTH",
"268 598 OFFCURVE",
"242 572 OFFCURVE",
"242 540 CURVE SMOOTH"
);
},
{
closed = 1;
nodes = (
"302 28 OFFCURVE",
"328 2 OFFCURVE",
"360 2 CURVE SMOOTH",
"392 2 OFFCURVE",
"418 28 OFFCURVE",
"418 60 CURVE SMOOTH",
"418 92 OFFCURVE",
"392 118 OFFCURVE",
"360 118 CURVE SMOOTH",
"328 118 OFFCURVE",
"302 92 OFFCURVE",
"302 60 CURVE SMOOTH"
);
},
{
closed = 1;
nodes = (
"302 148 OFFCURVE",
"328 122 OFFCURVE",
"360 122 CURVE SMOOTH",
"392 122 OFFCURVE",
"418 148 OFFCURVE",
"418 180 CURVE SMOOTH",
"418 212 OFFCURVE",
"392 238 OFFCURVE",
"360 238 CURVE SMOOTH",
"328 238 OFFCURVE",
"302 212 OFFCURVE",
"302 180 CURVE SMOOTH"
);
},
{
closed = 1;
nodes = (
"302 388 OFFCURVE",
"328 362 OFFCURVE",
"360 362 CURVE SMOOTH",
"392 362 OFFCURVE",
"418 388 OFFCURVE",
"418 420 CURVE SMOOTH",
"418 452 OFFCURVE",
"392 478 OFFCURVE",
"360 478 CURVE SMOOTH",
"328 478 OFFCURVE",
"302 452 OFFCURVE",
"302 420 CURVE SMOOTH"
);
},
{
closed = 1;
nodes = (
"302 268 OFFCURVE",
"328 242 OFFCURVE",
"360 242 CURVE SMOOTH",
"392 242 OFFCURVE",
"418 268 OFFCURVE",
"418 300 CURVE SMOOTH",
"418 332 OFFCURVE",
"392 358 OFFCURVE",
"360 358 CURVE SMOOTH",
"328 358 OFFCURVE",
"302 332 OFFCURVE",
"302 300 CURVE SMOOTH"
);
}
);
width = 480;
}
);
leftKerningGroup = a;
rightKerningGroup = a;
unicode = 0061;
},
{
glyphname = aring;
layers = (
{
hints = (
{
horizontal = 1;
origin = "{1, 2}";
target = up;
type = BottomGhost;
},
{
horizontal = 1;
origin = "{2, 2}";
target = "{2, 8}";
type = Stem;
},
{
horizontal = 1;
origin = "{4, 2}";
target = "{4, 8}";
type = Stem;
},
{
horizontal = 1;
origin = "{11, 8}";
target = "{11, 2}";
type = Stem;
},
{
origin = "{1, 11}";
target = "{1, 5}";
type = Stem;
},
{
origin = "{8, 5}";
target = "{8, 11}";
type = Stem;
}
);
layerId = master01;
paths = (
{
closed = 1;
nodes = (
"62 508 OFFCURVE",
"88 482 OFFCURVE",
"120 482 CURVE SMOOTH",
"152 482 OFFCURVE",
"178 508 OFFCURVE",
"178 540 CURVE SMOOTH",
"178 572 OFFCURVE",
"152 598 OFFCURVE",
"120 598 CURVE SMOOTH",
"88 598 OFFCURVE",
"62 572 OFFCURVE",
"62 540 CURVE SMOOTH {name = hr00;}"
);
},
{
closed = 1;
nodes = (
"62 28 OFFCURVE",
"88 2 OFFCURVE",
"120 2 CURVE SMOOTH",
"152 2 OFFCURVE",
"178 28 OFFCURVE",
"178 60 CURVE SMOOTH",
"178 92 OFFCURVE",
"152 118 OFFCURVE",
"120 118 CURVE SMOOTH",
"88 118 OFFCURVE",
"62 92 OFFCURVE",
"62 60 CURVE SMOOTH"
);
},
{
closed = 1;
nodes = (
"62 148 OFFCURVE",
"88 122 OFFCURVE",
"120 122 CURVE SMOOTH",
"152 122 OFFCURVE",
"178 148 OFFCURVE",
"178 180 CURVE SMOOTH",
"178 212 OFFCURVE",
"152 238 OFFCURVE",
"120 238 CURVE SMOOTH",
"88 238 OFFCURVE",
"62 212 OFFCURVE",
"62 180 CURVE SMOOTH"
);
},
{
closed = 1;
nodes = (
"62 268 OFFCURVE",
"88 242 OFFCURVE",
"120 242 CURVE SMOOTH",
"152 242 OFFCURVE",
"178 268 OFFCURVE",
"178 300 CURVE SMOOTH",
"178 332 OFFCURVE",
"152 358 OFFCURVE",
"120 358 CURVE SMOOTH",
"88 358 OFFCURVE",
"62 332 OFFCURVE",
"62 300 CURVE SMOOTH"
);
},
{
closed = 1;
nodes = (
"122 388 OFFCURVE",
"148 362 OFFCURVE",
"180 362 CURVE SMOOTH",
"212 362 OFFCURVE",
"238 388 OFFCURVE",
"238 420 CURVE SMOOTH",
"238 452 OFFCURVE",
"212 478 OFFCURVE",
"180 478 CURVE SMOOTH",
"148 478 OFFCURVE",
"122 452 OFFCURVE",
"122 420 CURVE SMOOTH"
);
},
{
closed = 1;
nodes = (
"182 148 OFFCURVE",
"208 122 OFFCURVE",
"240 122 CURVE SMOOTH",
"272 122 OFFCURVE",
"298 148 OFFCURVE",
"298 180 CURVE SMOOTH",
"298 212 OFFCURVE",
"272 238 OFFCURVE",
"240 238 CURVE SMOOTH",
"208 238 OFFCURVE",
"182 212 OFFCURVE",
"182 180 CURVE SMOOTH"
);
},
{
closed = 1;
nodes = (
"242 388 OFFCURVE",
"268 362 OFFCURVE",
"300 362 CURVE SMOOTH",
"332 362 OFFCURVE",
"358 388 OFFCURVE",
"358 420 CURVE SMOOTH",
"358 452 OFFCURVE",
"332 478 OFFCURVE",
"300 478 CURVE SMOOTH",
"268 478 OFFCURVE",
"242 452 OFFCURVE",
"242 420 CURVE SMOOTH"
);
},
{
closed = 1;
nodes = (
"302 508 OFFCURVE",
"328 482 OFFCURVE",
"360 482 CURVE SMOOTH",
"392 482 OFFCURVE",
"418 508 OFFCURVE",
"418 540 CURVE SMOOTH",
"418 572 OFFCURVE",
"392 598 OFFCURVE",
"360 598 CURVE SMOOTH",
"328 598 OFFCURVE",
"302 572 OFFCURVE",
"302 540 CURVE SMOOTH"
);
},
{
closed = 1;
nodes = (
"302 28 OFFCURVE",
"328 2 OFFCURVE",
"360 2 CURVE SMOOTH",
"392 2 OFFCURVE",
"418 28 OFFCURVE",
"418 60 CURVE SMOOTH",
"418 92 OFFCURVE",
"392 118 OFFCURVE",
"360 118 CURVE SMOOTH",
"328 118 OFFCURVE",
"302 92 OFFCURVE",
"302 60 CURVE SMOOTH"
);
},
{
closed = 1;
nodes = (
"302 268 OFFCURVE",
"328 242 OFFCURVE",
"360 242 CURVE SMOOTH",
"392 242 OFFCURVE",
"418 268 OFFCURVE",
"418 300 CURVE SMOOTH",
"418 332 OFFCURVE",
"392 358 OFFCURVE",
"360 358 CURVE SMOOTH",
"328 358 OFFCURVE",
"302 332 OFFCURVE",
"302 300 CURVE SMOOTH"
);
},
{
closed = 1;
nodes = (
"302 148 OFFCURVE",
"328 122 OFFCURVE",
"360 122 CURVE SMOOTH",
"392 122 OFFCURVE",
"418 148 OFFCURVE",
"418 180 CURVE SMOOTH",
"418 212 OFFCURVE",
"392 238 OFFCURVE",
"360 238 CURVE SMOOTH",
"328 238 OFFCURVE",
"302 212 OFFCURVE",
"302 180 CURVE SMOOTH"
);
},
{
closed = 1;
nodes = (
"122 628 OFFCURVE",
"148 602 OFFCURVE",
"180 602 CURVE SMOOTH",
"212 602 OFFCURVE",
"238 628 OFFCURVE",
"238 660 CURVE SMOOTH",
"238 692 OFFCURVE",
"212 718 OFFCURVE",
"180 718 CURVE SMOOTH",
"148 718 OFFCURVE",
"122 692 OFFCURVE",
"122 660 CURVE SMOOTH"
);
},
{
closed = 1;
nodes = (
"242 628 OFFCURVE",
"268 602 OFFCURVE",
"300 602 CURVE SMOOTH",
"332 602 OFFCURVE",
"358 628 OFFCURVE",
"358 660 CURVE SMOOTH",
"358 692 OFFCURVE",
"332 718 OFFCURVE",
"300 718 CURVE SMOOTH",
"268 718 OFFCURVE",
"242 692 OFFCURVE",
"242 660 CURVE SMOOTH"
);
}
);
width = 480;
}
);
leftKerningGroup = a;
rightKerningGroup = a;
unicode = 00E5;
},
{
glyphname = ae;
layers = (
{
hints = (
{
horizontal = 1;
origin = "{0, 2}";
target = "{0, 8}";
type = Stem;
},
{
horizontal = 1;
origin = "{2, 2}";
target = "{2, 8}";
type = Stem;
},
{
horizontal = 1;
origin = "{4, 8}";
target = "{4, 2}";
type = Stem;
},
{
origin = "{0, 11}";
target = "{0, 5}";
type = Stem;
},
{
origin = "{7, 5}";
target = "{7, 11}";
type = Stem;
}
);
layerId = master01;
paths = (
{
closed = 1;
nodes = (
"62 28 OFFCURVE",
"88 2 OFFCURVE",
"120 2 CURVE SMOOTH",
"152 2 OFFCURVE",
"178 28 OFFCURVE",
"178 60 CURVE SMOOTH",
"178 92 OFFCURVE",
"152 118 OFFCURVE",
"120 118 CURVE SMOOTH",
"88 118 OFFCURVE",
"62 92 OFFCURVE",
"62 60 CURVE SMOOTH {name = hr00;}"
);
},
{
closed = 1;
nodes = (
"62 148 OFFCURVE",
"88 122 OFFCURVE",
"120 122 CURVE SMOOTH",
"152 122 OFFCURVE",
"178 148 OFFCURVE",
"178 180 CURVE SMOOTH",
"178 212 OFFCURVE",
"152 238 OFFCURVE",
"120 238 CURVE SMOOTH",
"88 238 OFFCURVE",
"62 212 OFFCURVE",
"62 180 CURVE SMOOTH"
);
},
{
closed = 1;
nodes = (
"62 268 OFFCURVE",
"88 242 OFFCURVE",
"120 242 CURVE SMOOTH",
"152 242 OFFCURVE",
"178 268 OFFCURVE",
"178 300 CURVE SMOOTH",
"178 332 OFFCURVE",
"152 358 OFFCURVE",
"120 358 CURVE SMOOTH",
"88 358 OFFCURVE",
"62 332 OFFCURVE",
"62 300 CURVE SMOOTH"
);
},
{
closed = 1;
nodes = (
"62 388 OFFCURVE",
"88 362 OFFCURVE",
"120 362 CURVE SMOOTH",
"152 362 OFFCURVE",
"178 388 OFFCURVE",
"178 420 CURVE SMOOTH",
"178 452 OFFCURVE",
"152 478 OFFCURVE",
"120 478 CURVE SMOOTH",
"88 478 OFFCURVE",
"62 452 OFFCURVE",
"62 420 CURVE SMOOTH"
);
},
{
closed = 1;
nodes = (
"182 508 OFFCURVE",
"208 482 OFFCURVE",
"240 482 CURVE SMOOTH",
"272 482 OFFCURVE",
"298 508 OFFCURVE",
"298 540 CURVE SMOOTH",
"298 572 OFFCURVE",
"272 598 OFFCURVE",
"240 598 CURVE SMOOTH",
"208 598 OFFCURVE",
"182 572 OFFCURVE",
"182 540 CURVE SMOOTH"
);
},
{
closed = 1;
nodes = (
"182 268 OFFCURVE",
"208 242 OFFCURVE",
"240 242 CURVE SMOOTH",
"272 242 OFFCURVE",
"298 268 OFFCURVE",
"298 300 CURVE SMOOTH",
"298 332 OFFCURVE",
"272 358 OFFCURVE",
"240 358 CURVE SMOOTH",
"208 358 OFFCURVE",
"182 332 OFFCURVE",
"182 300 CURVE SMOOTH"
);
},
{
closed = 1;
nodes = (
"302 508 OFFCURVE",
"328 482 OFFCURVE",
"360 482 CURVE SMOOTH",
"392 482 OFFCURVE",
"418 508 OFFCURVE",
"418 540 CURVE SMOOTH",
"418 572 OFFCURVE",
"392 598 OFFCURVE",
"360 598 CURVE SMOOTH",
"328 598 OFFCURVE",
"302 572 OFFCURVE",
"302 540 CURVE SMOOTH"
);
},
{
closed = 1;
nodes = (
"302 28 OFFCURVE",
"328 2 OFFCURVE",
"360 2 CURVE SMOOTH",
"392 2 OFFCURVE",
"418 28 OFFCURVE",
"418 60 CURVE SMOOTH",
"418 92 OFFCURVE",
"392 118 OFFCURVE",
"360 118 CURVE SMOOTH",
"328 118 OFFCURVE",
"302 92 OFFCURVE",
"302 60 CURVE SMOOTH"
);
},
{
closed = 1;
nodes = (
"302 148 OFFCURVE",
"328 122 OFFCURVE",
"360 122 CURVE SMOOTH",
"392 122 OFFCURVE",
"418 148 OFFCURVE",
"418 180 CURVE SMOOTH",
"418 212 OFFCURVE",
"392 238 OFFCURVE",
"360 238 CURVE SMOOTH",
"328 238 OFFCURVE",
"302 212 OFFCURVE",
"302 180 CURVE SMOOTH"
);
},
{
closed = 1;
nodes = (
"302 388 OFFCURVE",
"328 362 OFFCURVE",
"360 362 CURVE SMOOTH",
"392 362 OFFCURVE",
"418 388 OFFCURVE",
"418 420 CURVE SMOOTH",
"418 452 OFFCURVE",
"392 478 OFFCURVE",
"360 478 CURVE SMOOTH",
"328 478 OFFCURVE",
"302 452 OFFCURVE",
"302 420 CURVE SMOOTH"
);
},
{
closed = 1;
nodes = (
"302 268 OFFCURVE",
"328 242 OFFCURVE",
"360 242 CURVE SMOOTH",
"392 242 OFFCURVE",
"418 268 OFFCURVE",
"418 300 CURVE SMOOTH",
"418 332 OFFCURVE",
"392 358 OFFCURVE",
"360 358 CURVE SMOOTH",
"328 358 OFFCURVE",
"302 332 OFFCURVE",
"302 300 CURVE SMOOTH"
);
},
{
closed = 1;
nodes = (
"422 28 OFFCURVE",
"448 2 OFFCURVE",
"480 2 CURVE SMOOTH",
"512 2 OFFCURVE",
"538 28 OFFCURVE",
"538 60 CURVE SMOOTH",
"538 92 OFFCURVE",
"512 118 OFFCURVE",
"480 118 CURVE SMOOTH",
"448 118 OFFCURVE",
"422 92 OFFCURVE",
"422 60 CURVE SMOOTH"
);
},
{
closed = 1;
nodes = (
"422 268 OFFCURVE",
"448 242 OFFCURVE",
"480 242 CURVE SMOOTH",
"512 242 OFFCURVE",
"538 268 OFFCURVE",
"538 300 CURVE SMOOTH",
"538 332 OFFCURVE",
"512 358 OFFCURVE",
"480 358 CURVE SMOOTH",
"448 358 OFFCURVE",
"422 332 OFFCURVE",
"422 300 CURVE SMOOTH"
);
},
{
closed = 1;
nodes = (
"422 508 OFFCURVE",
"448 482 OFFCURVE",
"480 482 CURVE SMOOTH",
"512 482 OFFCURVE",
"538 508 OFFCURVE",
"538 540 CURVE SMOOTH",
"538 572 OFFCURVE",
"512 598 OFFCURVE",
"480 598 CURVE SMOOTH",
"448 598 OFFCURVE",
"422 572 OFFCURVE",
"422 540 CURVE SMOOTH"
);
}
);
width = 600;
}
);
rightKerningGroup = e;
unicode = 00E6;
},
{
glyphname = b;
layers = (
{
hints = (
{
horizontal = 1;
origin = "{0, 2}";
target = "{0, 8}";
type = Stem;
},
{
horizontal = 1;
origin = "{4, 8}";
target = "{4, 2}";
type = Stem;
},
{
origin = "{0, 11}";
target = "{0, 5}";
type = Stem;
}
);
layerId = master01;
paths = (
{
closed = 1;
nodes = (
"62 28 OFFCURVE",
"88 2 OFFCURVE",
"120 2 CURVE SMOOTH",
"152 2 OFFCURVE",
"178 28 OFFCURVE",
"178 60 CURVE SMOOTH",
"178 92 OFFCURVE",
"152 118 OFFCURVE",
"120 118 CURVE SMOOTH",
"88 118 OFFCURVE",
"62 92 OFFCURVE",
"62 60 CURVE SMOOTH {name = hr00;}"
);
},
{
closed = 1;
nodes = (
"62 148 OFFCURVE",
"88 122 OFFCURVE",
"120 122 CURVE SMOOTH",
"152 122 OFFCURVE",
"178 148 OFFCURVE",
"178 180 CURVE SMOOTH",
"178 212 OFFCURVE",
"152 238 OFFCURVE",
"120 238 CURVE SMOOTH",
"88 238 OFFCURVE",
"62 212 OFFCURVE",
"62 180 CURVE SMOOTH"
);
},
{
closed = 1;
nodes = (
"62 268 OFFCURVE",
"88 242 OFFCURVE",
"120 242 CURVE SMOOTH",
"152 242 OFFCURVE",
"178 268 OFFCURVE",
"178 300 CURVE SMOOTH",
"178 332 OFFCURVE",
"152 358 OFFCURVE",
"120 358 CURVE SMOOTH",
"88 358 OFFCURVE",
"62 332 OFFCURVE",
"62 300 CURVE SMOOTH"
);
},
{
closed = 1;
nodes = (
"62 388 OFFCURVE",
"88 362 OFFCURVE",
"120 362 CURVE SMOOTH",
"152 362 OFFCURVE",
"178 388 OFFCURVE",
"178 420 CURVE SMOOTH",
"178 452 OFFCURVE",
"152 478 OFFCURVE",
"120 478 CURVE SMOOTH",
"88 478 OFFCURVE",
"62 452 OFFCURVE",
"62 420 CURVE SMOOTH"
);
},
{
closed = 1;
nodes = (
"62 508 OFFCURVE",
"88 482 OFFCURVE",
"120 482 CURVE SMOOTH",
"152 482 OFFCURVE",
"178 508 OFFCURVE",
"178 540 CURVE SMOOTH",
"178 572 OFFCURVE",
"152 598 OFFCURVE",
"120 598 CURVE SMOOTH",
"88 598 OFFCURVE",
"62 572 OFFCURVE",
"62 540 CURVE SMOOTH"
);
},
{
closed = 1;
nodes = (
"182 268 OFFCURVE",
"208 242 OFFCURVE",
"240 242 CURVE SMOOTH",
"272 242 OFFCURVE",
"298 268 OFFCURVE",
"298 300 CURVE SMOOTH",
"298 332 OFFCURVE",
"272 358 OFFCURVE",
"240 358 CURVE SMOOTH",
"208 358 OFFCURVE",
"182 332 OFFCURVE",
"182 300 CURVE SMOOTH"
);
},
{
closed = 1;
nodes = (
"182 508 OFFCURVE",
"208 482 OFFCURVE",
"240 482 CURVE SMOOTH",
"272 482 OFFCURVE",
"298 508 OFFCURVE",
"298 540 CURVE SMOOTH",
"298 572 OFFCURVE",
"272 598 OFFCURVE",
"240 598 CURVE SMOOTH",
"208 598 OFFCURVE",
"182 572 OFFCURVE",
"182 540 CURVE SMOOTH"
);
},
{
closed = 1;
nodes = (
"182 28 OFFCURVE",
"208 2 OFFCURVE",
"240 2 CURVE SMOOTH",
"272 2 OFFCURVE",
"298 28 OFFCURVE",
"298 60 CURVE SMOOTH",
"298 92 OFFCURVE",
"272 118 OFFCURVE",
"240 118 CURVE SMOOTH",
"208 118 OFFCURVE",
"182 92 OFFCURVE",
"182 60 CURVE SMOOTH"
);
},
{
closed = 1;
nodes = (
"242 148 OFFCURVE",
"268 122 OFFCURVE",
"300 122 CURVE SMOOTH",
"332 122 OFFCURVE",
"358 148 OFFCURVE",
"358 180 CURVE SMOOTH",
"358 212 OFFCURVE",
"332 238 OFFCURVE",
"300 238 CURVE SMOOTH",
"268 238 OFFCURVE",
"242 212 OFFCURVE",
"242 180 CURVE SMOOTH"
);
},
{
closed = 1;
nodes = (
"242 388 OFFCURVE",
"268 362 OFFCURVE",
"300 362 CURVE SMOOTH",
"332 362 OFFCURVE",
"358 388 OFFCURVE",
"358 420 CURVE SMOOTH",
"358 452 OFFCURVE",
"332 478 OFFCURVE",
"300 478 CURVE SMOOTH",
"268 478 OFFCURVE",
"242 452 OFFCURVE",
"242 420 CURVE SMOOTH"
);
}
);
width = 420;
}
);
leftKerningGroup = E;
unicode = 0062;
},
{
glyphname = c;
layers = (
{
anchors = (
{
name = bottom;
position = "{240, 0}";
}
);
hints = (
{
horizontal = 1;
origin = "{1, 2}";
target = "{1, 8}";
type = Stem;
},
{
horizontal = 1;
origin = "{4, 8}";
target = "{4, 2}";
type = Stem;
},
{
origin = "{0, 11}";
target = "{0, 5}";
type = Stem;
}
);
layerId = master01;
paths = (
{
closed = 1;
nodes = (
"62 148 OFFCURVE",
"88 122 OFFCURVE",
"120 122 CURVE SMOOTH",
"152 122 OFFCURVE",
"178 148 OFFCURVE",
"178 180 CURVE SMOOTH",
"178 212 OFFCURVE",
"152 238 OFFCURVE",
"120 238 CURVE SMOOTH",
"88 238 OFFCURVE",
"62 212 OFFCURVE",
"62 180 CURVE SMOOTH {name = hr00;}"
);
},
{
closed = 1;
nodes = (
"122 28 OFFCURVE",
"148 2 OFFCURVE",
"180 2 CURVE SMOOTH",
"212 2 OFFCURVE",
"238 28 OFFCURVE",
"238 60 CURVE SMOOTH",
"238 92 OFFCURVE",
"212 118 OFFCURVE",
"180 118 CURVE SMOOTH",
"148 118 OFFCURVE",
"122 92 OFFCURVE",
"122 60 CURVE SMOOTH"
);
},
{
closed = 1;
nodes = (
"242 28 OFFCURVE",
"268 2 OFFCURVE",
"300 2 CURVE SMOOTH",
"332 2 OFFCURVE",
"358 28 OFFCURVE",
"358 60 CURVE SMOOTH",
"358 92 OFFCURVE",
"332 118 OFFCURVE",
"300 118 CURVE SMOOTH",
"268 118 OFFCURVE",
"242 92 OFFCURVE",
"242 60 CURVE SMOOTH"
);
},
{
closed = 1;
nodes = (
"242 508 OFFCURVE",
"268 482 OFFCURVE",
"300 482 CURVE SMOOTH",
"332 482 OFFCURVE",
"358 508 OFFCURVE",
"358 540 CURVE SMOOTH",
"358 572 OFFCURVE",
"332 598 OFFCURVE",
"300 598 CURVE SMOOTH",
"268 598 OFFCURVE",
"242 572 OFFCURVE",
"242 540 CURVE SMOOTH"
);
},
{
closed = 1;
nodes = (
"122 508 OFFCURVE",
"148 482 OFFCURVE",
"180 482 CURVE SMOOTH",
"212 482 OFFCURVE",
"238 508 OFFCURVE",
"238 540 CURVE SMOOTH",
"238 572 OFFCURVE",
"212 598 OFFCURVE",
"180 598 CURVE SMOOTH",
"148 598 OFFCURVE",
"122 572 OFFCURVE",
"122 540 CURVE SMOOTH"
);
},
{
closed = 1;
nodes = (
"62 388 OFFCURVE",
"88 362 OFFCURVE",
"120 362 CURVE SMOOTH",
"152 362 OFFCURVE",
"178 388 OFFCURVE",
"178 420 CURVE SMOOTH",
"178 452 OFFCURVE",
"152 478 OFFCURVE",
"120 478 CURVE SMOOTH",
"88 478 OFFCURVE",
"62 452 OFFCURVE",
"62 420 CURVE SMOOTH"
);
},
{
closed = 1;
nodes = (
"62 268 OFFCURVE",
"88 242 OFFCURVE",
"120 242 CURVE SMOOTH",
"152 242 OFFCURVE",
"178 268 OFFCURVE",
"178 300 CURVE SMOOTH",
"178 332 OFFCURVE",
"152 358 OFFCURVE",
"120 358 CURVE SMOOTH",
"88 358 OFFCURVE",
"62 332 OFFCURVE",
"62 300 CURVE SMOOTH"
);
}
);
width = 420;
}
);
leftKerningGroup = o;
rightKerningGroup = c;
unicode = 0063;
},
{
glyphname = d;
layers = (
{
hints = (
{
horizontal = 1;
origin = "{0, 2}";
target = "{0, 8}";
type = Stem;
},
{
horizontal = 1;
origin = "{4, 8}";
target = "{4, 2}";
type = Stem;
},
{
origin = "{0, 11}";
target = "{0, 5}";
type = Stem;
},
{
origin = "{10, 5}";
target = "{10, 11}";
type = Stem;
}
);
layerId = master01;
paths = (
{
closed = 1;
nodes = (
"62 28 OFFCURVE",
"88 2 OFFCURVE",
"120 2 CURVE SMOOTH",
"152 2 OFFCURVE",
"178 28 OFFCURVE",
"178 60 CURVE SMOOTH",
"178 92 OFFCURVE",
"152 118 OFFCURVE",
"120 118 CURVE SMOOTH",
"88 118 OFFCURVE",
"62 92 OFFCURVE",
"62 60 CURVE SMOOTH {name = hr00;}"
);
},
{
closed = 1;
nodes = (
"62 148 OFFCURVE",
"88 122 OFFCURVE",
"120 122 CURVE SMOOTH",
"152 122 OFFCURVE",
"178 148 OFFCURVE",
"178 180 CURVE SMOOTH",
"178 212 OFFCURVE",
"152 238 OFFCURVE",
"120 238 CURVE SMOOTH",
"88 238 OFFCURVE",
"62 212 OFFCURVE",
"62 180 CURVE SMOOTH"
);
},
{
closed = 1;
nodes = (
"62 268 OFFCURVE",
"88 242 OFFCURVE",
"120 242 CURVE SMOOTH",
"152 242 OFFCURVE",
"178 268 OFFCURVE",
"178 300 CURVE SMOOTH",
"178 332 OFFCURVE",
"152 358 OFFCURVE",
"120 358 CURVE SMOOTH",
"88 358 OFFCURVE",
"62 332 OFFCURVE",
"62 300 CURVE SMOOTH"
);
},
{
closed = 1;
nodes = (
"62 388 OFFCURVE",
"88 362 OFFCURVE",
"120 362 CURVE SMOOTH",
"152 362 OFFCURVE",
"178 388 OFFCURVE",
"178 420 CURVE SMOOTH",
"178 452 OFFCURVE",
"152 478 OFFCURVE",
"120 478 CURVE SMOOTH",
"88 478 OFFCURVE",
"62 452 OFFCURVE",
"62 420 CURVE SMOOTH"
);
},
{
closed = 1;
nodes = (
"62 508 OFFCURVE",
"88 482 OFFCURVE",
"120 482 CURVE SMOOTH",
"152 482 OFFCURVE",
"178 508 OFFCURVE",
"178 540 CURVE SMOOTH",
"178 572 OFFCURVE",
"152 598 OFFCURVE",
"120 598 CURVE SMOOTH",
"88 598 OFFCURVE",
"62 572 OFFCURVE",
"62 540 CURVE SMOOTH"
);
},
{
closed = 1;
nodes = (
"182 508 OFFCURVE",
"208 482 OFFCURVE",
"240 482 CURVE SMOOTH",
"272 482 OFFCURVE",
"298 508 OFFCURVE",
"298 540 CURVE SMOOTH",
"298 572 OFFCURVE",
"272 598 OFFCURVE",
"240 598 CURVE SMOOTH",
"208 598 OFFCURVE",
"182 572 OFFCURVE",
"182 540 CURVE SMOOTH"
);
},
{
closed = 1;
nodes = (
"182 28 OFFCURVE",
"208 2 OFFCURVE",
"240 2 CURVE SMOOTH",
"272 2 OFFCURVE",
"298 28 OFFCURVE",
"298 60 CURVE SMOOTH",
"298 92 OFFCURVE",
"272 118 OFFCURVE",
"240 118 CURVE SMOOTH",
"208 118 OFFCURVE",
"182 92 OFFCURVE",
"182 60 CURVE SMOOTH"
);
},
{
closed = 1;
nodes = (
"302 448 OFFCURVE",
"328 422 OFFCURVE",
"360 422 CURVE SMOOTH",
"392 422 OFFCURVE",
"418 448 OFFCURVE",
"418 480 CURVE SMOOTH",
"418 512 OFFCURVE",
"392 538 OFFCURVE",
"360 538 CURVE SMOOTH",
"328 538 OFFCURVE",
"302 512 OFFCURVE",
"302 480 CURVE SMOOTH"
);
},
{
closed = 1;
nodes = (
"302 328 OFFCURVE",
"328 302 OFFCURVE",
"360 302 CURVE SMOOTH",
"392 302 OFFCURVE",
"418 328 OFFCURVE",
"418 360 CURVE SMOOTH",
"418 392 OFFCURVE",
"392 418 OFFCURVE",
"360 418 CURVE SMOOTH",
"328 418 OFFCURVE",
"302 392 OFFCURVE",
"302 360 CURVE SMOOTH"
);
},
{
closed = 1;
nodes = (
"302 208 OFFCURVE",
"328 182 OFFCURVE",
"360 182 CURVE SMOOTH",
"392 182 OFFCURVE",
"418 208 OFFCURVE",
"418 240 CURVE SMOOTH",
"418 272 OFFCURVE",
"392 298 OFFCURVE",
"360 298 CURVE SMOOTH",
"328 298 OFFCURVE",
"302 272 OFFCURVE",
"302 240 CURVE SMOOTH"
);
},
{
closed = 1;
nodes = (
"302 88 OFFCURVE",
"328 62 OFFCURVE",
"360 62 CURVE SMOOTH",
"392 62 OFFCURVE",
"418 88 OFFCURVE",
"418 120 CURVE SMOOTH",
"418 152 OFFCURVE",
"392 178 OFFCURVE",
"360 178 CURVE SMOOTH",
"328 178 OFFCURVE",
"302 152 OFFCURVE",
"302 120 CURVE SMOOTH"
);
}
);
width = 480;
}
);
leftKerningGroup = E;
rightKerningGroup = o;
unicode = 0064;
},
{
glyphname = eth;
layers = (
{
hints = (
{
horizontal = 1;
origin = "{0, 2}";
target = "{0, 8}";
type = Stem;
},
{
horizontal = 1;
origin = "{11, 2}";
target = "{11, 8}";
type = Stem;
},
{
horizontal = 1;
origin = "{4, 8}";
target = "{4, 2}";
type = Stem;
},
{
origin = "{0, 11}";
target = "{0, 5}";
type = Stem;
},
{
origin = "{10, 5}";
target = "{10, 11}";
type = Stem;
}
);
layerId = master01;
paths = (
{
closed = 1;
nodes = (
"62 28 OFFCURVE",
"88 2 OFFCURVE",
"120 2 CURVE SMOOTH",
"152 2 OFFCURVE",
"178 28 OFFCURVE",
"178 60 CURVE SMOOTH",
"178 92 OFFCURVE",
"152 118 OFFCURVE",
"120 118 CURVE SMOOTH",
"88 118 OFFCURVE",
"62 92 OFFCURVE",
"62 60 CURVE SMOOTH {name = hr00;}"
);
},
{
closed = 1;
nodes = (
"62 148 OFFCURVE",
"88 122 OFFCURVE",
"120 122 CURVE SMOOTH",
"152 122 OFFCURVE",
"178 148 OFFCURVE",
"178 180 CURVE SMOOTH",
"178 212 OFFCURVE",
"152 238 OFFCURVE",
"120 238 CURVE SMOOTH",
"88 238 OFFCURVE",
"62 212 OFFCURVE",
"62 180 CURVE SMOOTH"
);
},
{
closed = 1;
nodes = (
"122 268 OFFCURVE",
"148 242 OFFCURVE",
"180 242 CURVE SMOOTH",
"212 242 OFFCURVE",
"238 268 OFFCURVE",
"238 300 CURVE SMOOTH",
"238 332 OFFCURVE",
"212 358 OFFCURVE",
"180 358 CURVE SMOOTH",
"148 358 OFFCURVE",
"122 332 OFFCURVE",
"122 300 CURVE SMOOTH"
);
},
{
closed = 1;
nodes = (
"62 388 OFFCURVE",
"88 362 OFFCURVE",
"120 362 CURVE SMOOTH",
"152 362 OFFCURVE",
"178 388 OFFCURVE",
"178 420 CURVE SMOOTH",
"178 452 OFFCURVE",
"152 478 OFFCURVE",
"120 478 CURVE SMOOTH",
"88 478 OFFCURVE",
"62 452 OFFCURVE",
"62 420 CURVE SMOOTH"
);
},
{
closed = 1;
nodes = (
"62 508 OFFCURVE",
"88 482 OFFCURVE",
"120 482 CURVE SMOOTH",
"152 482 OFFCURVE",
"178 508 OFFCURVE",
"178 540 CURVE SMOOTH",
"178 572 OFFCURVE",
"152 598 OFFCURVE",
"120 598 CURVE SMOOTH",
"88 598 OFFCURVE",
"62 572 OFFCURVE",
"62 540 CURVE SMOOTH"
);
},
{
closed = 1;
nodes = (
"182 508 OFFCURVE",
"208 482 OFFCURVE",
"240 482 CURVE SMOOTH",
"272 482 OFFCURVE",
"298 508 OFFCURVE",
"298 540 CURVE SMOOTH",
"298 572 OFFCURVE",
"272 598 OFFCURVE",
"240 598 CURVE SMOOTH",
"208 598 OFFCURVE",
"182 572 OFFCURVE",
"182 540 CURVE SMOOTH"
);
},
{
closed = 1;
nodes = (
"182 28 OFFCURVE",
"208 2 OFFCURVE",
"240 2 CURVE SMOOTH",
"272 2 OFFCURVE",
"298 28 OFFCURVE",
"298 60 CURVE SMOOTH",
"298 92 OFFCURVE",
"272 118 OFFCURVE",
"240 118 CURVE SMOOTH",
"208 118 OFFCURVE",
"182 92 OFFCURVE",
"182 60 CURVE SMOOTH"
);
},
{
closed = 1;
nodes = (
"302 448 OFFCURVE",
"328 422 OFFCURVE",
"360 422 CURVE SMOOTH",
"392 422 OFFCURVE",
"418 448 OFFCURVE",
"418 480 CURVE SMOOTH",
"418 512 OFFCURVE",
"392 538 OFFCURVE",
"360 538 CURVE SMOOTH",
"328 538 OFFCURVE",
"302 512 OFFCURVE",
"302 480 CURVE SMOOTH"
);
},
{
closed = 1;
nodes = (
"302 328 OFFCURVE",
"328 302 OFFCURVE",
"360 302 CURVE SMOOTH",
"392 302 OFFCURVE",
"418 328 OFFCURVE",
"418 360 CURVE SMOOTH",
"418 392 OFFCURVE",
"392 418 OFFCURVE",
"360 418 CURVE SMOOTH",
"328 418 OFFCURVE",
"302 392 OFFCURVE",
"302 360 CURVE SMOOTH"
);
},
{
closed = 1;
nodes = (
"302 208 OFFCURVE",
"328 182 OFFCURVE",
"360 182 CURVE SMOOTH",
"392 182 OFFCURVE",
"418 208 OFFCURVE",
"418 240 CURVE SMOOTH",
"418 272 OFFCURVE",
"392 298 OFFCURVE",
"360 298 CURVE SMOOTH",
"328 298 OFFCURVE",
"302 272 OFFCURVE",
"302 240 CURVE SMOOTH"
);
},
{
closed = 1;
nodes = (
"302 88 OFFCURVE",
"328 62 OFFCURVE",
"360 62 CURVE SMOOTH",
"392 62 OFFCURVE",
"418 88 OFFCURVE",
"418 120 CURVE SMOOTH",
"418 152 OFFCURVE",
"392 178 OFFCURVE",
"360 178 CURVE SMOOTH",
"328 178 OFFCURVE",
"302 152 OFFCURVE",
"302 120 CURVE SMOOTH"
);
},
{
closed = 1;
nodes = (
"2 268 OFFCURVE",
"28 242 OFFCURVE",
"60 242 CURVE SMOOTH",
"92 242 OFFCURVE",
"118 268 OFFCURVE",
"118 300 CURVE SMOOTH",
"118 332 OFFCURVE",
"92 358 OFFCURVE",
"60 358 CURVE SMOOTH",
"28 358 OFFCURVE",
"2 332 OFFCURVE",
"2 300 CURVE SMOOTH"
);
}
);
width = 480;
}
);
rightKerningGroup = o;
unicode = 00F0;
},
{
glyphname = e;
layers = (
{
hints = (
{
horizontal = 1;
origin = "{0, 2}";
target = "{0, 8}";
type = Stem;
},
{
horizontal = 1;
origin = "{4, 8}";
target = "{4, 2}";
type = Stem;
},
{
origin = "{0, 11}";
target = "{0, 5}";
type = Stem;
}
);
layerId = master01;
paths = (
{
closed = 1;
nodes = (
"62 28 OFFCURVE",
"88 2 OFFCURVE",
"120 2 CURVE SMOOTH",
"152 2 OFFCURVE",
"178 28 OFFCURVE",
"178 60 CURVE SMOOTH",
"178 92 OFFCURVE",
"152 118 OFFCURVE",
"120 118 CURVE SMOOTH",
"88 118 OFFCURVE",
"62 92 OFFCURVE",
"62 60 CURVE SMOOTH {name = hr00;}"
);
},
{
closed = 1;
nodes = (
"62 148 OFFCURVE",
"88 122 OFFCURVE",
"120 122 CURVE SMOOTH",
"152 122 OFFCURVE",
"178 148 OFFCURVE",
"178 180 CURVE SMOOTH",
"178 212 OFFCURVE",
"152 238 OFFCURVE",
"120 238 CURVE SMOOTH",
"88 238 OFFCURVE",
"62 212 OFFCURVE",
"62 180 CURVE SMOOTH"
);
},
{
closed = 1;
nodes = (
"62 268 OFFCURVE",
"88 242 OFFCURVE",
"120 242 CURVE SMOOTH",
"152 242 OFFCURVE",
"178 268 OFFCURVE",
"178 300 CURVE SMOOTH",
"178 332 OFFCURVE",
"152 358 OFFCURVE",
"120 358 CURVE SMOOTH",
"88 358 OFFCURVE",
"62 332 OFFCURVE",
"62 300 CURVE SMOOTH"
);
},
{
closed = 1;
nodes = (
"62 388 OFFCURVE",
"88 362 OFFCURVE",
"120 362 CURVE SMOOTH",
"152 362 OFFCURVE",
"178 388 OFFCURVE",
"178 420 CURVE SMOOTH",
"178 452 OFFCURVE",
"152 478 OFFCURVE",
"120 478 CURVE SMOOTH",
"88 478 OFFCURVE",
"62 452 OFFCURVE",
"62 420 CURVE SMOOTH"
);
},
{
closed = 1;
nodes = (
"62 508 OFFCURVE",
"88 482 OFFCURVE",
"120 482 CURVE SMOOTH",
"152 482 OFFCURVE",
"178 508 OFFCURVE",
"178 540 CURVE SMOOTH",
"178 572 OFFCURVE",
"152 598 OFFCURVE",
"120 598 CURVE SMOOTH",
"88 598 OFFCURVE",
"62 572 OFFCURVE",
"62 540 CURVE SMOOTH"
);
},
{
closed = 1;
nodes = (
"182 268 OFFCURVE",
"208 242 OFFCURVE",
"240 242 CURVE SMOOTH",
"272 242 OFFCURVE",
"298 268 OFFCURVE",
"298 300 CURVE SMOOTH",
"298 332 OFFCURVE",
"272 358 OFFCURVE",
"240 358 CURVE SMOOTH",
"208 358 OFFCURVE",
"182 332 OFFCURVE",
"182 300 CURVE SMOOTH"
);
},
{
closed = 1;
nodes = (
"182 508 OFFCURVE",
"208 482 OFFCURVE",
"240 482 CURVE SMOOTH",
"272 482 OFFCURVE",
"298 508 OFFCURVE",
"298 540 CURVE SMOOTH",
"298 572 OFFCURVE",
"272 598 OFFCURVE",
"240 598 CURVE SMOOTH",
"208 598 OFFCURVE",
"182 572 OFFCURVE",
"182 540 CURVE SMOOTH"
);
},
{
closed = 1;
nodes = (
"182 28 OFFCURVE",
"208 2 OFFCURVE",
"240 2 CURVE SMOOTH",
"272 2 OFFCURVE",
"298 28 OFFCURVE",
"298 60 CURVE SMOOTH",
"298 92 OFFCURVE",
"272 118 OFFCURVE",
"240 118 CURVE SMOOTH",
"208 118 OFFCURVE",
"182 92 OFFCURVE",
"182 60 CURVE SMOOTH"
);
}
);
width = 360;
}
);
leftKerningGroup = E;
rightKerningGroup = e;
unicode = 0065;
},
{
glyphname = f;
layers = (
{
hints = (
{
horizontal = 1;
origin = "{0, 2}";
target = up;
type = BottomGhost;
},
{
horizontal = 1;
origin = "{2, 2}";
target = "{2, 8}";
type = Stem;
},
{
horizontal = 1;
origin = "{4, 8}";
target = "{4, 2}";
type = Stem;
},
{
origin = "{0, 11}";
target = "{0, 5}";
type = Stem;
}
);
layerId = master01;
paths = (
{
closed = 1;
nodes = (
"62 28 OFFCURVE",
"88 2 OFFCURVE",
"120 2 CURVE SMOOTH",
"152 2 OFFCURVE",
"178 28 OFFCURVE",
"178 60 CURVE SMOOTH",
"178 92 OFFCURVE",
"152 118 OFFCURVE",
"120 118 CURVE SMOOTH",
"88 118 OFFCURVE",
"62 92 OFFCURVE",
"62 60 CURVE SMOOTH {name = hr00;}"
);
},
{
closed = 1;
nodes = (
"62 148 OFFCURVE",
"88 122 OFFCURVE",
"120 122 CURVE SMOOTH",
"152 122 OFFCURVE",
"178 148 OFFCURVE",
"178 180 CURVE SMOOTH",
"178 212 OFFCURVE",
"152 238 OFFCURVE",
"120 238 CURVE SMOOTH",
"88 238 OFFCURVE",
"62 212 OFFCURVE",
"62 180 CURVE SMOOTH"
);
},
{
closed = 1;
nodes = (
"62 268 OFFCURVE",
"88 242 OFFCURVE",
"120 242 CURVE SMOOTH",
"152 242 OFFCURVE",
"178 268 OFFCURVE",
"178 300 CURVE SMOOTH",
"178 332 OFFCURVE",
"152 358 OFFCURVE",
"120 358 CURVE SMOOTH",
"88 358 OFFCURVE",
"62 332 OFFCURVE",
"62 300 CURVE SMOOTH"
);
},
{
closed = 1;
nodes = (
"62 388 OFFCURVE",
"88 362 OFFCURVE",
"120 362 CURVE SMOOTH",
"152 362 OFFCURVE",
"178 388 OFFCURVE",
"178 420 CURVE SMOOTH",
"178 452 OFFCURVE",
"152 478 OFFCURVE",
"120 478 CURVE SMOOTH",
"88 478 OFFCURVE",
"62 452 OFFCURVE",
"62 420 CURVE SMOOTH"
);
},
{
closed = 1;
nodes = (
"62 508 OFFCURVE",
"88 482 OFFCURVE",
"120 482 CURVE SMOOTH",
"152 482 OFFCURVE",
"178 508 OFFCURVE",
"178 540 CURVE SMOOTH",
"178 572 OFFCURVE",
"152 598 OFFCURVE",
"120 598 CURVE SMOOTH",
"88 598 OFFCURVE",
"62 572 OFFCURVE",
"62 540 CURVE SMOOTH"
);
},
{
closed = 1;
nodes = (
"182 268 OFFCURVE",
"208 242 OFFCURVE",
"240 242 CURVE SMOOTH",
"272 242 OFFCURVE",
"298 268 OFFCURVE",
"298 300 CURVE SMOOTH",
"298 332 OFFCURVE",
"272 358 OFFCURVE",
"240 358 CURVE SMOOTH",
"208 358 OFFCURVE",
"182 332 OFFCURVE",
"182 300 CURVE SMOOTH"
);
},
{
closed = 1;
nodes = (
"182 508 OFFCURVE",
"208 482 OFFCURVE",
"240 482 CURVE SMOOTH",
"272 482 OFFCURVE",
"298 508 OFFCURVE",
"298 540 CURVE SMOOTH",
"298 572 OFFCURVE",
"272 598 OFFCURVE",
"240 598 CURVE SMOOTH",
"208 598 OFFCURVE",
"182 572 OFFCURVE",
"182 540 CURVE SMOOTH"
);
}
);
width = 360;
}
);
leftKerningGroup = E;
unicode = 0066;
},
{
glyphname = g;
layers = (
{
hints = (
{
horizontal = 1;
origin = "{1, 2}";
target = "{1, 8}";
type = Stem;
},
{
horizontal = 1;
origin = "{4, 8}";
target = "{4, 2}";
type = Stem;
},
{
origin = "{0, 11}";
target = "{0, 5}";
type = Stem;
},
{
origin = "{7, 5}";
target = "{7, 11}";
type = Stem;
}
);
layerId = master01;
paths = (
{
closed = 1;
nodes = (
"62 148 OFFCURVE",
"88 122 OFFCURVE",
"120 122 CURVE SMOOTH",
"152 122 OFFCURVE",
"178 148 OFFCURVE",
"178 180 CURVE SMOOTH",
"178 212 OFFCURVE",
"152 238 OFFCURVE",
"120 238 CURVE SMOOTH",
"88 238 OFFCURVE",
"62 212 OFFCURVE",
"62 180 CURVE SMOOTH {name = hr00;}"
);
},
{
closed = 1;
nodes = (
"122 28 OFFCURVE",
"148 2 OFFCURVE",
"180 2 CURVE SMOOTH",
"212 2 OFFCURVE",
"238 28 OFFCURVE",
"238 60 CURVE SMOOTH",
"238 92 OFFCURVE",
"212 118 OFFCURVE",
"180 118 CURVE SMOOTH",
"148 118 OFFCURVE",
"122 92 OFFCURVE",
"122 60 CURVE SMOOTH"
);
},
{
closed = 1;
nodes = (
"242 28 OFFCURVE",
"268 2 OFFCURVE",
"300 2 CURVE SMOOTH",
"332 2 OFFCURVE",
"358 28 OFFCURVE",
"358 60 CURVE SMOOTH",
"358 92 OFFCURVE",
"332 118 OFFCURVE",
"300 118 CURVE SMOOTH",
"268 118 OFFCURVE",
"242 92 OFFCURVE",
"242 60 CURVE SMOOTH"
);
},
{
closed = 1;
nodes = (
"242 508 OFFCURVE",
"268 482 OFFCURVE",
"300 482 CURVE SMOOTH",
"332 482 OFFCURVE",
"358 508 OFFCURVE",
"358 540 CURVE SMOOTH",
"358 572 OFFCURVE",
"332 598 OFFCURVE",
"300 598 CURVE SMOOTH",
"268 598 OFFCURVE",
"242 572 OFFCURVE",
"242 540 CURVE SMOOTH"
);
},
{
closed = 1;
nodes = (
"122 508 OFFCURVE",
"148 482 OFFCURVE",
"180 482 CURVE SMOOTH",
"212 482 OFFCURVE",
"238 508 OFFCURVE",
"238 540 CURVE SMOOTH",
"238 572 OFFCURVE",
"212 598 OFFCURVE",
"180 598 CURVE SMOOTH",
"148 598 OFFCURVE",
"122 572 OFFCURVE",
"122 540 CURVE SMOOTH"
);
},
{
closed = 1;
nodes = (
"62 388 OFFCURVE",
"88 362 OFFCURVE",
"120 362 CURVE SMOOTH",
"152 362 OFFCURVE",
"178 388 OFFCURVE",
"178 420 CURVE SMOOTH",
"178 452 OFFCURVE",
"152 478 OFFCURVE",
"120 478 CURVE SMOOTH",
"88 478 OFFCURVE",
"62 452 OFFCURVE",
"62 420 CURVE SMOOTH"
);
},
{
closed = 1;
nodes = (
"62 268 OFFCURVE",
"88 242 OFFCURVE",
"120 242 CURVE SMOOTH",
"152 242 OFFCURVE",
"178 268 OFFCURVE",
"178 300 CURVE SMOOTH",
"178 332 OFFCURVE",
"152 358 OFFCURVE",
"120 358 CURVE SMOOTH",
"88 358 OFFCURVE",
"62 332 OFFCURVE",
"62 300 CURVE SMOOTH"
);
},
{
closed = 1;
nodes = (
"362 29 OFFCURVE",
"388 3 OFFCURVE",
"420 3 CURVE SMOOTH",
"452 3 OFFCURVE",
"478 29 OFFCURVE",
"478 61 CURVE SMOOTH",
"478 93 OFFCURVE",
"452 119 OFFCURVE",
"420 119 CURVE SMOOTH",
"388 119 OFFCURVE",
"362 93 OFFCURVE",
"362 61 CURVE SMOOTH"
);
},
{
closed = 1;
nodes = (
"362 149 OFFCURVE",
"388 123 OFFCURVE",
"420 123 CURVE SMOOTH",
"452 123 OFFCURVE",
"478 149 OFFCURVE",
"478 181 CURVE SMOOTH",
"478 213 OFFCURVE",
"452 239 OFFCURVE",
"420 239 CURVE SMOOTH",
"388 239 OFFCURVE",
"362 213 OFFCURVE",
"362 181 CURVE SMOOTH"
);
},
{
closed = 1;
nodes = (
"362 269 OFFCURVE",
"388 243 OFFCURVE",
"420 243 CURVE SMOOTH",
"452 243 OFFCURVE",
"478 269 OFFCURVE",
"478 301 CURVE SMOOTH",
"478 333 OFFCURVE",
"452 359 OFFCURVE",
"420 359 CURVE SMOOTH",
"388 359 OFFCURVE",
"362 333 OFFCURVE",
"362 301 CURVE SMOOTH"
);
}
);
width = 540;
}
);
leftKerningGroup = o;
rightKerningGroup = g;
unicode = 0067;
},
{
glyphname = h;
layers = (
{
hints = (
{
horizontal = 1;
origin = "{0, 2}";
target = up;
type = BottomGhost;
},
{
horizontal = 1;
origin = "{2, 2}";
target = "{2, 8}";
type = Stem;
},
{
horizontal = 1;
origin = "{4, 8}";
target = down;
type = TopGhost;
},
{
origin = "{0, 11}";
target = "{0, 5}";
type = Stem;
},
{
origin = "{6, 5}";
target = "{6, 11}";
type = Stem;
}
);
layerId = master01;
paths = (
{
closed = 1;
nodes = (
"62 28 OFFCURVE",
"88 2 OFFCURVE",
"120 2 CURVE SMOOTH",
"152 2 OFFCURVE",
"178 28 OFFCURVE",
"178 60 CURVE SMOOTH",
"178 92 OFFCURVE",
"152 118 OFFCURVE",
"120 118 CURVE SMOOTH",
"88 118 OFFCURVE",
"62 92 OFFCURVE",
"62 60 CURVE SMOOTH {name = hr00;}"
);
},
{
closed = 1;
nodes = (
"62 148 OFFCURVE",
"88 122 OFFCURVE",
"120 122 CURVE SMOOTH",
"152 122 OFFCURVE",
"178 148 OFFCURVE",
"178 180 CURVE SMOOTH",
"178 212 OFFCURVE",
"152 238 OFFCURVE",
"120 238 CURVE SMOOTH",
"88 238 OFFCURVE",
"62 212 OFFCURVE",
"62 180 CURVE SMOOTH"
);
},
{
closed = 1;
nodes = (
"62 268 OFFCURVE",
"88 242 OFFCURVE",
"120 242 CURVE SMOOTH",
"152 242 OFFCURVE",
"178 268 OFFCURVE",
"178 300 CURVE SMOOTH",
"178 332 OFFCURVE",
"152 358 OFFCURVE",
"120 358 CURVE SMOOTH",
"88 358 OFFCURVE",
"62 332 OFFCURVE",
"62 300 CURVE SMOOTH"
);
},
{
closed = 1;
nodes = (
"62 388 OFFCURVE",
"88 362 OFFCURVE",
"120 362 CURVE SMOOTH",
"152 362 OFFCURVE",
"178 388 OFFCURVE",
"178 420 CURVE SMOOTH",
"178 452 OFFCURVE",
"152 478 OFFCURVE",
"120 478 CURVE SMOOTH",
"88 478 OFFCURVE",
"62 452 OFFCURVE",
"62 420 CURVE SMOOTH"
);
},
{
closed = 1;
nodes = (
"62 508 OFFCURVE",
"88 482 OFFCURVE",
"120 482 CURVE SMOOTH",
"152 482 OFFCURVE",
"178 508 OFFCURVE",
"178 540 CURVE SMOOTH",
"178 572 OFFCURVE",
"152 598 OFFCURVE",
"120 598 CURVE SMOOTH",
"88 598 OFFCURVE",
"62 572 OFFCURVE",
"62 540 CURVE SMOOTH"
);
},
{
closed = 1;
nodes = (
"182 268 OFFCURVE",
"208 242 OFFCURVE",
"240 242 CURVE SMOOTH",
"272 242 OFFCURVE",
"298 268 OFFCURVE",
"298 300 CURVE SMOOTH",
"298 332 OFFCURVE",
"272 358 OFFCURVE",
"240 358 CURVE SMOOTH",
"208 358 OFFCURVE",
"182 332 OFFCURVE",
"182 300 CURVE SMOOTH"
);
},
{
closed = 1;
nodes = (
"302 28 OFFCURVE",
"328 2 OFFCURVE",
"360 2 CURVE SMOOTH",
"392 2 OFFCURVE",
"418 28 OFFCURVE",
"418 60 CURVE SMOOTH",
"418 92 OFFCURVE",
"392 118 OFFCURVE",
"360 118 CURVE SMOOTH",
"328 118 OFFCURVE",
"302 92 OFFCURVE",
"302 60 CURVE SMOOTH"
);
},
{
closed = 1;
nodes = (
"302 268 OFFCURVE",
"328 242 OFFCURVE",
"360 242 CURVE SMOOTH",
"392 242 OFFCURVE",
"418 268 OFFCURVE",
"418 300 CURVE SMOOTH",
"418 332 OFFCURVE",
"392 358 OFFCURVE",
"360 358 CURVE SMOOTH",
"328 358 OFFCURVE",
"302 332 OFFCURVE",
"302 300 CURVE SMOOTH"
);
},
{
closed = 1;
nodes = (
"302 508 OFFCURVE",
"328 482 OFFCURVE",
"360 482 CURVE SMOOTH",
"392 482 OFFCURVE",
"418 508 OFFCURVE",
"418 540 CURVE SMOOTH",
"418 572 OFFCURVE",
"392 598 OFFCURVE",
"360 598 CURVE SMOOTH",
"328 598 OFFCURVE",
"302 572 OFFCURVE",
"302 540 CURVE SMOOTH"
);
},
{
closed = 1;
nodes = (
"302 388 OFFCURVE",
"328 362 OFFCURVE",
"360 362 CURVE SMOOTH",
"392 362 OFFCURVE",
"418 388 OFFCURVE",
"418 420 CURVE SMOOTH",
"418 452 OFFCURVE",
"392 478 OFFCURVE",
"360 478 CURVE SMOOTH",
"328 478 OFFCURVE",
"302 452 OFFCURVE",
"302 420 CURVE SMOOTH"
);
},
{
closed = 1;
nodes = (
"302 148 OFFCURVE",
"328 122 OFFCURVE",
"360 122 CURVE SMOOTH",
"392 122 OFFCURVE",
"418 148 OFFCURVE",
"418 180 CURVE SMOOTH",
"418 212 OFFCURVE",
"392 238 OFFCURVE",
"360 238 CURVE SMOOTH",
"328 238 OFFCURVE",
"302 212 OFFCURVE",
"302 180 CURVE SMOOTH"
);
}
);
width = 480;
}
);
leftKerningGroup = E;
rightKerningGroup = H;
unicode = 0068;
},
{
glyphname = i;
layers = (
{
hints = (
{
horizontal = 1;
origin = "{0, 2}";
target = up;
type = BottomGhost;
},
{
horizontal = 1;
origin = "{4, 8}";
target = down;
type = TopGhost;
},
{
origin = "{0, 11}";
target = "{0, 5}";
type = Stem;
}
);
layerId = master01;
paths = (
{
closed = 1;
nodes = (
"62 28 OFFCURVE",
"88 2 OFFCURVE",
"120 2 CURVE SMOOTH",
"152 2 OFFCURVE",
"178 28 OFFCURVE",
"178 60 CURVE SMOOTH",
"178 92 OFFCURVE",
"152 118 OFFCURVE",
"120 118 CURVE SMOOTH",
"88 118 OFFCURVE",
"62 92 OFFCURVE",
"62 60 CURVE SMOOTH {name = hr00;}"
);
},
{
closed = 1;
nodes = (
"62 148 OFFCURVE",
"88 122 OFFCURVE",
"120 122 CURVE SMOOTH",
"152 122 OFFCURVE",
"178 148 OFFCURVE",
"178 180 CURVE SMOOTH",
"178 212 OFFCURVE",
"152 238 OFFCURVE",
"120 238 CURVE SMOOTH",
"88 238 OFFCURVE",
"62 212 OFFCURVE",
"62 180 CURVE SMOOTH"
);
},
{
closed = 1;
nodes = (
"62 268 OFFCURVE",
"88 242 OFFCURVE",
"120 242 CURVE SMOOTH",
"152 242 OFFCURVE",
"178 268 OFFCURVE",
"178 300 CURVE SMOOTH",
"178 332 OFFCURVE",
"152 358 OFFCURVE",
"120 358 CURVE SMOOTH",
"88 358 OFFCURVE",
"62 332 OFFCURVE",
"62 300 CURVE SMOOTH"
);
},
{
closed = 1;
nodes = (
"62 388 OFFCURVE",
"88 362 OFFCURVE",
"120 362 CURVE SMOOTH",
"152 362 OFFCURVE",
"178 388 OFFCURVE",
"178 420 CURVE SMOOTH",
"178 452 OFFCURVE",
"152 478 OFFCURVE",
"120 478 CURVE SMOOTH",
"88 478 OFFCURVE",
"62 452 OFFCURVE",
"62 420 CURVE SMOOTH"
);
},
{
closed = 1;
nodes = (
"62 508 OFFCURVE",
"88 482 OFFCURVE",
"120 482 CURVE SMOOTH",
"152 482 OFFCURVE",
"178 508 OFFCURVE",
"178 540 CURVE SMOOTH",
"178 572 OFFCURVE",
"152 598 OFFCURVE",
"120 598 CURVE SMOOTH",
"88 598 OFFCURVE",
"62 572 OFFCURVE",
"62 540 CURVE SMOOTH"
);
}
);
width = 240;
}
);
leftKerningGroup = E;
rightKerningGroup = H;
unicode = 0069;
},
{
glyphname = j;
layers = (
{
hints = (
{
horizontal = 1;
origin = "{5, 2}";
target = "{5, 8}";
type = Stem;
},
{
horizontal = 1;
origin = "{0, 8}";
target = down;
type = TopGhost;
},
{
origin = "{3, 5}";
target = "{3, 11}";
type = Stem;
}
);
layerId = master01;
paths = (
{
closed = 1;
nodes = (
"242 508 OFFCURVE",
"268 482 OFFCURVE",
"300 482 CURVE SMOOTH",
"332 482 OFFCURVE",
"358 508 OFFCURVE",
"358 540 CURVE SMOOTH",
"358 572 OFFCURVE",
"332 598 OFFCURVE",
"300 598 CURVE SMOOTH",
"268 598 OFFCURVE",
"242 572 OFFCURVE",
"242 540 CURVE SMOOTH {name = hr00;}"
);
},
{
closed = 1;
nodes = (
"242 388 OFFCURVE",
"268 362 OFFCURVE",
"300 362 CURVE SMOOTH",
"332 362 OFFCURVE",
"358 388 OFFCURVE",
"358 420 CURVE SMOOTH",
"358 452 OFFCURVE",
"332 478 OFFCURVE",
"300 478 CURVE SMOOTH",
"268 478 OFFCURVE",
"242 452 OFFCURVE",
"242 420 CURVE SMOOTH"
);
},
{
closed = 1;
nodes = (
"242 268 OFFCURVE",
"268 242 OFFCURVE",
"300 242 CURVE SMOOTH",
"332 242 OFFCURVE",
"358 268 OFFCURVE",
"358 300 CURVE SMOOTH",
"358 332 OFFCURVE",
"332 358 OFFCURVE",
"300 358 CURVE SMOOTH",
"268 358 OFFCURVE",
"242 332 OFFCURVE",
"242 300 CURVE SMOOTH"
);
},
{
closed = 1;
nodes = (
"242 148 OFFCURVE",
"268 122 OFFCURVE",
"300 122 CURVE SMOOTH",
"332 122 OFFCURVE",
"358 148 OFFCURVE",
"358 180 CURVE SMOOTH",
"358 212 OFFCURVE",
"332 238 OFFCURVE",
"300 238 CURVE SMOOTH",
"268 238 OFFCURVE",
"242 212 OFFCURVE",
"242 180 CURVE SMOOTH"
);
},
{
closed = 1;
nodes = (
"182 28 OFFCURVE",
"208 2 OFFCURVE",
"240 2 CURVE SMOOTH",
"272 2 OFFCURVE",
"298 28 OFFCURVE",
"298 60 CURVE SMOOTH",
"298 92 OFFCURVE",
"272 118 OFFCURVE",
"240 118 CURVE SMOOTH",
"208 118 OFFCURVE",
"182 92 OFFCURVE",
"182 60 CURVE SMOOTH"
);
},
{
closed = 1;
nodes = (
"62 28 OFFCURVE",
"88 2 OFFCURVE",
"120 2 CURVE SMOOTH",
"152 2 OFFCURVE",
"178 28 OFFCURVE",
"178 60 CURVE SMOOTH",
"178 92 OFFCURVE",
"152 118 OFFCURVE",
"120 118 CURVE SMOOTH",
"88 118 OFFCURVE",
"62 92 OFFCURVE",
"62 60 CURVE SMOOTH"
);
}
);
width = 420;
}
);
unicode = 006A;
},
{
glyphname = l;
layers = (
{
hints = (
{
horizontal = 1;
origin = "{0, 2}";
target = "{0, 8}";
type = Stem;
},
{
horizontal = 1;
origin = "{4, 8}";
target = down;
type = TopGhost;
},
{
origin = "{0, 11}";
target = "{0, 5}";
type = Stem;
}
);
layerId = master01;
paths = (
{
closed = 1;
nodes = (
"62 28 OFFCURVE",
"88 2 OFFCURVE",
"120 2 CURVE SMOOTH",
"152 2 OFFCURVE",
"178 28 OFFCURVE",
"178 60 CURVE SMOOTH",
"178 92 OFFCURVE",
"152 118 OFFCURVE",
"120 118 CURVE SMOOTH",
"88 118 OFFCURVE",
"62 92 OFFCURVE",
"62 60 CURVE SMOOTH {name = hr00;}"
);
},
{
closed = 1;
nodes = (
"62 148 OFFCURVE",
"88 122 OFFCURVE",
"120 122 CURVE SMOOTH",
"152 122 OFFCURVE",
"178 148 OFFCURVE",
"178 180 CURVE SMOOTH",
"178 212 OFFCURVE",
"152 238 OFFCURVE",
"120 238 CURVE SMOOTH",
"88 238 OFFCURVE",
"62 212 OFFCURVE",
"62 180 CURVE SMOOTH"
);
},
{
closed = 1;
nodes = (
"62 268 OFFCURVE",
"88 242 OFFCURVE",
"120 242 CURVE SMOOTH",
"152 242 OFFCURVE",
"178 268 OFFCURVE",
"178 300 CURVE SMOOTH",
"178 332 OFFCURVE",
"152 358 OFFCURVE",
"120 358 CURVE SMOOTH",
"88 358 OFFCURVE",
"62 332 OFFCURVE",
"62 300 CURVE SMOOTH"
);
},
{
closed = 1;
nodes = (
"62 388 OFFCURVE",
"88 362 OFFCURVE",
"120 362 CURVE SMOOTH",
"152 362 OFFCURVE",
"178 388 OFFCURVE",
"178 420 CURVE SMOOTH",
"178 452 OFFCURVE",
"152 478 OFFCURVE",
"120 478 CURVE SMOOTH",
"88 478 OFFCURVE",
"62 452 OFFCURVE",
"62 420 CURVE SMOOTH"
);
},
{
closed = 1;
nodes = (
"62 508 OFFCURVE",
"88 482 OFFCURVE",
"120 482 CURVE SMOOTH",
"152 482 OFFCURVE",
"178 508 OFFCURVE",
"178 540 CURVE SMOOTH",
"178 572 OFFCURVE",
"152 598 OFFCURVE",
"120 598 CURVE SMOOTH",
"88 598 OFFCURVE",
"62 572 OFFCURVE",
"62 540 CURVE SMOOTH"
);
},
{
closed = 1;
nodes = (
"182 28 OFFCURVE",
"208 2 OFFCURVE",
"240 2 CURVE SMOOTH",
"272 2 OFFCURVE",
"298 28 OFFCURVE",
"298 60 CURVE SMOOTH",
"298 92 OFFCURVE",
"272 118 OFFCURVE",
"240 118 CURVE SMOOTH",
"208 118 OFFCURVE",
"182 92 OFFCURVE",
"182 60 CURVE SMOOTH"
);
}
);
width = 360;
}
);
leftKerningGroup = E;
rightKerningGroup = l;
unicode = 006C;
},
{
glyphname = lslash;
layers = (
{
hints = (
{
horizontal = 1;
origin = "{0, 2}";
target = "{0, 8}";
type = Stem;
},
{
horizontal = 1;
origin = "{4, 8}";
target = down;
type = TopGhost;
},
{
origin = "{0, 11}";
target = "{0, 5}";
type = Stem;
}
);
layerId = master01;
paths = (
{
closed = 1;
nodes = (
"122 28 OFFCURVE",
"148 2 OFFCURVE",
"180 2 CURVE SMOOTH",
"212 2 OFFCURVE",
"238 28 OFFCURVE",
"238 60 CURVE SMOOTH",
"238 92 OFFCURVE",
"212 118 OFFCURVE",
"180 118 CURVE SMOOTH",
"148 118 OFFCURVE",
"122 92 OFFCURVE",
"122 60 CURVE SMOOTH {name = hr00;}"
);
},
{
closed = 1;
nodes = (
"122 148 OFFCURVE",
"148 122 OFFCURVE",
"180 122 CURVE SMOOTH",
"212 122 OFFCURVE",
"238 148 OFFCURVE",
"238 180 CURVE SMOOTH",
"238 212 OFFCURVE",
"212 238 OFFCURVE",
"180 238 CURVE SMOOTH",
"148 238 OFFCURVE",
"122 212 OFFCURVE",
"122 180 CURVE SMOOTH"
);
},
{
closed = 1;
nodes = (
"122 268 OFFCURVE",
"148 242 OFFCURVE",
"180 242 CURVE SMOOTH",
"212 242 OFFCURVE",
"238 268 OFFCURVE",
"238 300 CURVE SMOOTH",
"238 332 OFFCURVE",
"212 358 OFFCURVE",
"180 358 CURVE SMOOTH",
"148 358 OFFCURVE",
"122 332 OFFCURVE",
"122 300 CURVE SMOOTH"
);
},
{
closed = 1;
nodes = (
"122 388 OFFCURVE",
"148 362 OFFCURVE",
"180 362 CURVE SMOOTH",
"212 362 OFFCURVE",
"238 388 OFFCURVE",
"238 420 CURVE SMOOTH",
"238 452 OFFCURVE",
"212 478 OFFCURVE",
"180 478 CURVE SMOOTH",
"148 478 OFFCURVE",
"122 452 OFFCURVE",
"122 420 CURVE SMOOTH"
);
},
{
closed = 1;
nodes = (
"122 508 OFFCURVE",
"148 482 OFFCURVE",
"180 482 CURVE SMOOTH",
"212 482 OFFCURVE",
"238 508 OFFCURVE",
"238 540 CURVE SMOOTH",
"238 572 OFFCURVE",
"212 598 OFFCURVE",
"180 598 CURVE SMOOTH",
"148 598 OFFCURVE",
"122 572 OFFCURVE",
"122 540 CURVE SMOOTH"
);
},
{
closed = 1;
nodes = (
"242 28 OFFCURVE",
"268 2 OFFCURVE",
"300 2 CURVE SMOOTH",
"332 2 OFFCURVE",
"358 28 OFFCURVE",
"358 60 CURVE SMOOTH",
"358 92 OFFCURVE",
"332 118 OFFCURVE",
"300 118 CURVE SMOOTH",
"268 118 OFFCURVE",
"242 92 OFFCURVE",
"242 60 CURVE SMOOTH"
);
},
{
closed = 1;
nodes = (
"242 328 OFFCURVE",
"268 302 OFFCURVE",
"300 302 CURVE SMOOTH",
"332 302 OFFCURVE",
"358 328 OFFCURVE",
"358 360 CURVE SMOOTH",
"358 392 OFFCURVE",
"332 418 OFFCURVE",
"300 418 CURVE SMOOTH",
"268 418 OFFCURVE",
"242 392 OFFCURVE",
"242 360 CURVE SMOOTH"
);
},
{
closed = 1;
nodes = (
"2 208 OFFCURVE",
"28 182 OFFCURVE",
"60 182 CURVE SMOOTH",
"92 182 OFFCURVE",
"118 208 OFFCURVE",
"118 240 CURVE SMOOTH",
"118 272 OFFCURVE",
"92 298 OFFCURVE",
"60 298 CURVE SMOOTH",
"28 298 OFFCURVE",
"2 272 OFFCURVE",
"2 240 CURVE SMOOTH"
);
}
);
width = 420;
}
);
rightKerningGroup = l;
unicode = 0142;
},
{
glyphname = m;
layers = (
{
hints = (
{
horizontal = 1;
origin = "{0, 2}";
target = up;
type = BottomGhost;
},
{
horizontal = 1;
origin = "{4, 8}";
target = "{4, 2}";
type = Stem;
},
{
origin = "{0, 11}";
target = "{0, 5}";
type = Stem;
},
{
origin = "{6, 5}";
target = "{6, 11}";
type = Stem;
}
);
layerId = master01;
paths = (
{
closed = 1;
nodes = (
"62 28 OFFCURVE",
"88 2 OFFCURVE",
"120 2 CURVE SMOOTH",
"152 2 OFFCURVE",
"178 28 OFFCURVE",
"178 60 CURVE SMOOTH",
"178 92 OFFCURVE",
"152 118 OFFCURVE",
"120 118 CURVE SMOOTH",
"88 118 OFFCURVE",
"62 92 OFFCURVE",
"62 60 CURVE SMOOTH {name = hr00;}"
);
},
{
closed = 1;
nodes = (
"62 148 OFFCURVE",
"88 122 OFFCURVE",
"120 122 CURVE SMOOTH",
"152 122 OFFCURVE",
"178 148 OFFCURVE",
"178 180 CURVE SMOOTH",
"178 212 OFFCURVE",
"152 238 OFFCURVE",
"120 238 CURVE SMOOTH",
"88 238 OFFCURVE",
"62 212 OFFCURVE",
"62 180 CURVE SMOOTH"
);
},
{
closed = 1;
nodes = (
"62 268 OFFCURVE",
"88 242 OFFCURVE",
"120 242 CURVE SMOOTH",
"152 242 OFFCURVE",
"178 268 OFFCURVE",
"178 300 CURVE SMOOTH",
"178 332 OFFCURVE",
"152 358 OFFCURVE",
"120 358 CURVE SMOOTH",
"88 358 OFFCURVE",
"62 332 OFFCURVE",
"62 300 CURVE SMOOTH"
);
},
{
closed = 1;
nodes = (
"62 388 OFFCURVE",
"88 362 OFFCURVE",
"120 362 CURVE SMOOTH",
"152 362 OFFCURVE",
"178 388 OFFCURVE",
"178 420 CURVE SMOOTH",
"178 452 OFFCURVE",
"152 478 OFFCURVE",
"120 478 CURVE SMOOTH",
"88 478 OFFCURVE",
"62 452 OFFCURVE",
"62 420 CURVE SMOOTH"
);
},
{
closed = 1;
nodes = (
"122 508 OFFCURVE",
"148 482 OFFCURVE",
"180 482 CURVE SMOOTH",
"212 482 OFFCURVE",
"238 508 OFFCURVE",
"238 540 CURVE SMOOTH",
"238 572 OFFCURVE",
"212 598 OFFCURVE",
"180 598 CURVE SMOOTH",
"148 598 OFFCURVE",
"122 572 OFFCURVE",
"122 540 CURVE SMOOTH"
);
},
{
closed = 1;
nodes = (
"242 508 OFFCURVE",
"268 482 OFFCURVE",
"300 482 CURVE SMOOTH",
"332 482 OFFCURVE",
"358 508 OFFCURVE",
"358 540 CURVE SMOOTH",
"358 572 OFFCURVE",
"332 598 OFFCURVE",
"300 598 CURVE SMOOTH",
"268 598 OFFCURVE",
"242 572 OFFCURVE",
"242 540 CURVE SMOOTH"
);
},
{
closed = 1;
nodes = (
"422 28 OFFCURVE",
"448 2 OFFCURVE",
"480 2 CURVE SMOOTH",
"512 2 OFFCURVE",
"538 28 OFFCURVE",
"538 60 CURVE SMOOTH",
"538 92 OFFCURVE",
"512 118 OFFCURVE",
"480 118 CURVE SMOOTH",
"448 118 OFFCURVE",
"422 92 OFFCURVE",
"422 60 CURVE SMOOTH"
);
},
{
closed = 1;
nodes = (
"422 268 OFFCURVE",
"448 242 OFFCURVE",
"480 242 CURVE SMOOTH",
"512 242 OFFCURVE",
"538 268 OFFCURVE",
"538 300 CURVE SMOOTH",
"538 332 OFFCURVE",
"512 358 OFFCURVE",
"480 358 CURVE SMOOTH",
"448 358 OFFCURVE",
"422 332 OFFCURVE",
"422 300 CURVE SMOOTH"
);
},
{
closed = 1;
nodes = (
"422 388 OFFCURVE",
"448 362 OFFCURVE",
"480 362 CURVE SMOOTH",
"512 362 OFFCURVE",
"538 388 OFFCURVE",
"538 420 CURVE SMOOTH",
"538 452 OFFCURVE",
"512 478 OFFCURVE",
"480 478 CURVE SMOOTH",
"448 478 OFFCURVE",
"422 452 OFFCURVE",
"422 420 CURVE SMOOTH"
);
},
{
closed = 1;
nodes = (
"422 148 OFFCURVE",
"448 122 OFFCURVE",
"480 122 CURVE SMOOTH",
"512 122 OFFCURVE",
"538 148 OFFCURVE",
"538 180 CURVE SMOOTH",
"538 212 OFFCURVE",
"512 238 OFFCURVE",
"480 238 CURVE SMOOTH",
"448 238 OFFCURVE",
"422 212 OFFCURVE",
"422 180 CURVE SMOOTH"
);
},
{
closed = 1;
nodes = (
"242 388 OFFCURVE",
"268 362 OFFCURVE",
"300 362 CURVE SMOOTH",
"332 362 OFFCURVE",
"358 388 OFFCURVE",
"358 420 CURVE SMOOTH",
"358 452 OFFCURVE",
"332 478 OFFCURVE",
"300 478 CURVE SMOOTH",
"268 478 OFFCURVE",
"242 452 OFFCURVE",
"242 420 CURVE SMOOTH"
);
},
{
closed = 1;
nodes = (
"362 508 OFFCURVE",
"388 482 OFFCURVE",
"420 482 CURVE SMOOTH",
"452 482 OFFCURVE",
"478 508 OFFCURVE",
"478 540 CURVE SMOOTH",
"478 572 OFFCURVE",
"452 598 OFFCURVE",
"420 598 CURVE SMOOTH",
"388 598 OFFCURVE",
"362 572 OFFCURVE",
"362 540 CURVE SMOOTH"
);
},
{
closed = 1;
nodes = (
"242 268 OFFCURVE",
"268 242 OFFCURVE",
"300 242 CURVE SMOOTH",
"332 242 OFFCURVE",
"358 268 OFFCURVE",
"358 300 CURVE SMOOTH",
"358 332 OFFCURVE",
"332 358 OFFCURVE",
"300 358 CURVE SMOOTH",
"268 358 OFFCURVE",
"242 332 OFFCURVE",
"242 300 CURVE SMOOTH"
);
}
);
width = 600;
}
);
rightKerningGroup = H;
unicode = 006D;
},
{
glyphname = n;
layers = (
{
hints = (
{
horizontal = 1;
origin = "{0, 2}";
target = up;
type = BottomGhost;
},
{
horizontal = 1;
origin = "{4, 8}";
target = "{4, 2}";
type = Stem;
},
{
origin = "{0, 11}";
target = "{0, 5}";
type = Stem;
},
{
origin = "{9, 5}";
target = "{9, 11}";
type = Stem;
}
);
layerId = master01;
paths = (
{
closed = 1;
nodes = (
"62 28 OFFCURVE",
"88 2 OFFCURVE",
"120 2 CURVE SMOOTH",
"152 2 OFFCURVE",
"178 28 OFFCURVE",
"178 60 CURVE SMOOTH",
"178 92 OFFCURVE",
"152 118 OFFCURVE",
"120 118 CURVE SMOOTH",
"88 118 OFFCURVE",
"62 92 OFFCURVE",
"62 60 CURVE SMOOTH {name = hr00;}"
);
},
{
closed = 1;
nodes = (
"62 148 OFFCURVE",
"88 122 OFFCURVE",
"120 122 CURVE SMOOTH",
"152 122 OFFCURVE",
"178 148 OFFCURVE",
"178 180 CURVE SMOOTH",
"178 212 OFFCURVE",
"152 238 OFFCURVE",
"120 238 CURVE SMOOTH",
"88 238 OFFCURVE",
"62 212 OFFCURVE",
"62 180 CURVE SMOOTH"
);
},
{
closed = 1;
nodes = (
"62 268 OFFCURVE",
"88 242 OFFCURVE",
"120 242 CURVE SMOOTH",
"152 242 OFFCURVE",
"178 268 OFFCURVE",
"178 300 CURVE SMOOTH",
"178 332 OFFCURVE",
"152 358 OFFCURVE",
"120 358 CURVE SMOOTH",
"88 358 OFFCURVE",
"62 332 OFFCURVE",
"62 300 CURVE SMOOTH"
);
},
{
closed = 1;
nodes = (
"62 388 OFFCURVE",
"88 362 OFFCURVE",
"120 362 CURVE SMOOTH",
"152 362 OFFCURVE",
"178 388 OFFCURVE",
"178 420 CURVE SMOOTH",
"178 452 OFFCURVE",
"152 478 OFFCURVE",
"120 478 CURVE SMOOTH",
"88 478 OFFCURVE",
"62 452 OFFCURVE",
"62 420 CURVE SMOOTH"
);
},
{
closed = 1;
nodes = (
"62 508 OFFCURVE",
"88 482 OFFCURVE",
"120 482 CURVE SMOOTH",
"152 482 OFFCURVE",
"178 508 OFFCURVE",
"178 540 CURVE SMOOTH",
"178 572 OFFCURVE",
"152 598 OFFCURVE",
"120 598 CURVE SMOOTH",
"88 598 OFFCURVE",
"62 572 OFFCURVE",
"62 540 CURVE SMOOTH"
);
},
{
closed = 1;
nodes = (
"182 508 OFFCURVE",
"208 482 OFFCURVE",
"240 482 CURVE SMOOTH",
"272 482 OFFCURVE",
"298 508 OFFCURVE",
"298 540 CURVE SMOOTH",
"298 572 OFFCURVE",
"272 598 OFFCURVE",
"240 598 CURVE SMOOTH",
"208 598 OFFCURVE",
"182 572 OFFCURVE",
"182 540 CURVE SMOOTH"
);
},
{
closed = 1;
nodes = (
"302 388 OFFCURVE",
"328 362 OFFCURVE",
"360 362 CURVE SMOOTH",
"392 362 OFFCURVE",
"418 388 OFFCURVE",
"418 420 CURVE SMOOTH",
"418 452 OFFCURVE",
"392 478 OFFCURVE",
"360 478 CURVE SMOOTH",
"328 478 OFFCURVE",
"302 452 OFFCURVE",
"302 420 CURVE SMOOTH"
);
},
{
closed = 1;
nodes = (
"302 268 OFFCURVE",
"328 242 OFFCURVE",
"360 242 CURVE SMOOTH",
"392 242 OFFCURVE",
"418 268 OFFCURVE",
"418 300 CURVE SMOOTH",
"418 332 OFFCURVE",
"392 358 OFFCURVE",
"360 358 CURVE SMOOTH",
"328 358 OFFCURVE",
"302 332 OFFCURVE",
"302 300 CURVE SMOOTH"
);
},
{
closed = 1;
nodes = (
"302 148 OFFCURVE",
"328 122 OFFCURVE",
"360 122 CURVE SMOOTH",
"392 122 OFFCURVE",
"418 148 OFFCURVE",
"418 180 CURVE SMOOTH",
"418 212 OFFCURVE",
"392 238 OFFCURVE",
"360 238 CURVE SMOOTH",
"328 238 OFFCURVE",
"302 212 OFFCURVE",
"302 180 CURVE SMOOTH"
);
},
{
closed = 1;
nodes = (
"302 28 OFFCURVE",
"328 2 OFFCURVE",
"360 2 CURVE SMOOTH",
"392 2 OFFCURVE",
"418 28 OFFCURVE",
"418 60 CURVE SMOOTH",
"418 92 OFFCURVE",
"392 118 OFFCURVE",
"360 118 CURVE SMOOTH",
"328 118 OFFCURVE",
"302 92 OFFCURVE",
"302 60 CURVE SMOOTH"
);
}
);
width = 480;
}
);
leftKerningGroup = E;
unicode = 006E;
},
{
glyphname = o;
layers = (
{
hints = (
{
horizontal = 1;
origin = "{1, 2}";
target = "{1, 8}";
type = Stem;
},
{
horizontal = 1;
origin = "{7, 8}";
target = "{7, 2}";
type = Stem;
},
{
origin = "{0, 11}";
target = "{0, 5}";
type = Stem;
},
{
origin = "{3, 5}";
target = "{3, 11}";
type = Stem;
}
);
layerId = master01;
paths = (
{
closed = 1;
nodes = (
"62 148 OFFCURVE",
"88 122 OFFCURVE",
"120 122 CURVE SMOOTH",
"152 122 OFFCURVE",
"178 148 OFFCURVE",
"178 180 CURVE SMOOTH",
"178 212 OFFCURVE",
"152 238 OFFCURVE",
"120 238 CURVE SMOOTH",
"88 238 OFFCURVE",
"62 212 OFFCURVE",
"62 180 CURVE SMOOTH {name = hr00;}"
);
},
{
closed = 1;
nodes = (
"122 28 OFFCURVE",
"148 2 OFFCURVE",
"180 2 CURVE SMOOTH",
"212 2 OFFCURVE",
"238 28 OFFCURVE",
"238 60 CURVE SMOOTH",
"238 92 OFFCURVE",
"212 118 OFFCURVE",
"180 118 CURVE SMOOTH",
"148 118 OFFCURVE",
"122 92 OFFCURVE",
"122 60 CURVE SMOOTH"
);
},
{
closed = 1;
nodes = (
"242 28 OFFCURVE",
"268 2 OFFCURVE",
"300 2 CURVE SMOOTH",
"332 2 OFFCURVE",
"358 28 OFFCURVE",
"358 60 CURVE SMOOTH",
"358 92 OFFCURVE",
"332 118 OFFCURVE",
"300 118 CURVE SMOOTH",
"268 118 OFFCURVE",
"242 92 OFFCURVE",
"242 60 CURVE SMOOTH"
);
},
{
closed = 1;
nodes = (
"302 148 OFFCURVE",
"328 122 OFFCURVE",
"360 122 CURVE SMOOTH",
"392 122 OFFCURVE",
"418 148 OFFCURVE",
"418 180 CURVE SMOOTH",
"418 212 OFFCURVE",
"392 238 OFFCURVE",
"360 238 CURVE SMOOTH",
"328 238 OFFCURVE",
"302 212 OFFCURVE",
"302 180 CURVE SMOOTH"
);
},
{
closed = 1;
nodes = (
"302 268 OFFCURVE",
"328 242 OFFCURVE",
"360 242 CURVE SMOOTH",
"392 242 OFFCURVE",
"418 268 OFFCURVE",
"418 300 CURVE SMOOTH",
"418 332 OFFCURVE",
"392 358 OFFCURVE",
"360 358 CURVE SMOOTH",
"328 358 OFFCURVE",
"302 332 OFFCURVE",
"302 300 CURVE SMOOTH"
);
},
{
closed = 1;
nodes = (
"302 388 OFFCURVE",
"328 362 OFFCURVE",
"360 362 CURVE SMOOTH",
"392 362 OFFCURVE",
"418 388 OFFCURVE",
"418 420 CURVE SMOOTH",
"418 452 OFFCURVE",
"392 478 OFFCURVE",
"360 478 CURVE SMOOTH",
"328 478 OFFCURVE",
"302 452 OFFCURVE",
"302 420 CURVE SMOOTH"
);
},
{
closed = 1;
nodes = (
"242 508 OFFCURVE",
"268 482 OFFCURVE",
"300 482 CURVE SMOOTH",
"332 482 OFFCURVE",
"358 508 OFFCURVE",
"358 540 CURVE SMOOTH",
"358 572 OFFCURVE",
"332 598 OFFCURVE",
"300 598 CURVE SMOOTH",
"268 598 OFFCURVE",
"242 572 OFFCURVE",
"242 540 CURVE SMOOTH"
);
},
{
closed = 1;
nodes = (
"122 508 OFFCURVE",
"148 482 OFFCURVE",
"180 482 CURVE SMOOTH",
"212 482 OFFCURVE",
"238 508 OFFCURVE",
"238 540 CURVE SMOOTH",
"238 572 OFFCURVE",
"212 598 OFFCURVE",
"180 598 CURVE SMOOTH",
"148 598 OFFCURVE",
"122 572 OFFCURVE",
"122 540 CURVE SMOOTH"
);
},
{
closed = 1;
nodes = (
"62 388 OFFCURVE",
"88 362 OFFCURVE",
"120 362 CURVE SMOOTH",
"152 362 OFFCURVE",
"178 388 OFFCURVE",
"178 420 CURVE SMOOTH",
"178 452 OFFCURVE",
"152 478 OFFCURVE",
"120 478 CURVE SMOOTH",
"88 478 OFFCURVE",
"62 452 OFFCURVE",
"62 420 CURVE SMOOTH"
);
},
{
closed = 1;
nodes = (
"62 268 OFFCURVE",
"88 242 OFFCURVE",
"120 242 CURVE SMOOTH",
"152 242 OFFCURVE",
"178 268 OFFCURVE",
"178 300 CURVE SMOOTH",
"178 332 OFFCURVE",
"152 358 OFFCURVE",
"120 358 CURVE SMOOTH",
"88 358 OFFCURVE",
"62 332 OFFCURVE",
"62 300 CURVE SMOOTH"
);
}
);
width = 480;
}
);
leftKerningGroup = o;
rightKerningGroup = o;
unicode = 006F;
},
{
glyphname = oslash;
layers = (
{
hints = (
{
horizontal = 1;
origin = "{11, 2}";
target = up;
type = BottomGhost;
},
{
horizontal = 1;
origin = "{1, 2}";
target = "{1, 8}";
type = Stem;
},
{
horizontal = 1;
origin = "{7, 8}";
target = "{7, 2}";
type = Stem;
},
{
horizontal = 1;
origin = "{10, 8}";
target = up;
type = BottomGhost;
},
{
origin = "{0, 11}";
target = "{0, 5}";
type = Stem;
},
{
origin = "{3, 5}";
target = "{3, 11}";
type = Stem;
}
);
layerId = master01;
paths = (
{
closed = 1;
nodes = (
"62 148 OFFCURVE",
"88 122 OFFCURVE",
"120 122 CURVE SMOOTH",
"152 122 OFFCURVE",
"178 148 OFFCURVE",
"178 180 CURVE SMOOTH",
"178 212 OFFCURVE",
"152 238 OFFCURVE",
"120 238 CURVE SMOOTH",
"88 238 OFFCURVE",
"62 212 OFFCURVE",
"62 180 CURVE SMOOTH {name = hr00;}"
);
},
{
closed = 1;
nodes = (
"122 28 OFFCURVE",
"148 2 OFFCURVE",
"180 2 CURVE SMOOTH",
"212 2 OFFCURVE",
"238 28 OFFCURVE",
"238 60 CURVE SMOOTH",
"238 92 OFFCURVE",
"212 118 OFFCURVE",
"180 118 CURVE SMOOTH",
"148 118 OFFCURVE",
"122 92 OFFCURVE",
"122 60 CURVE SMOOTH"
);
},
{
closed = 1;
nodes = (
"242 28 OFFCURVE",
"268 2 OFFCURVE",
"300 2 CURVE SMOOTH",
"332 2 OFFCURVE",
"358 28 OFFCURVE",
"358 60 CURVE SMOOTH",
"358 92 OFFCURVE",
"332 118 OFFCURVE",
"300 118 CURVE SMOOTH",
"268 118 OFFCURVE",
"242 92 OFFCURVE",
"242 60 CURVE SMOOTH"
);
},
{
closed = 1;
nodes = (
"302 148 OFFCURVE",
"328 122 OFFCURVE",
"360 122 CURVE SMOOTH",
"392 122 OFFCURVE",
"418 148 OFFCURVE",
"418 180 CURVE SMOOTH",
"418 212 OFFCURVE",
"392 238 OFFCURVE",
"360 238 CURVE SMOOTH",
"328 238 OFFCURVE",
"302 212 OFFCURVE",
"302 180 CURVE SMOOTH"
);
},
{
closed = 1;
nodes = (
"302 268 OFFCURVE",
"328 242 OFFCURVE",
"360 242 CURVE SMOOTH",
"392 242 OFFCURVE",
"418 268 OFFCURVE",
"418 300 CURVE SMOOTH",
"418 332 OFFCURVE",
"392 358 OFFCURVE",
"360 358 CURVE SMOOTH",
"328 358 OFFCURVE",
"302 332 OFFCURVE",
"302 300 CURVE SMOOTH"
);
},
{
closed = 1;
nodes = (
"302 388 OFFCURVE",
"328 362 OFFCURVE",
"360 362 CURVE SMOOTH",
"392 362 OFFCURVE",
"418 388 OFFCURVE",
"418 420 CURVE SMOOTH",
"418 452 OFFCURVE",
"392 478 OFFCURVE",
"360 478 CURVE SMOOTH",
"328 478 OFFCURVE",
"302 452 OFFCURVE",
"302 420 CURVE SMOOTH"
);
},
{
closed = 1;
nodes = (
"242 508 OFFCURVE",
"268 482 OFFCURVE",
"300 482 CURVE SMOOTH",
"332 482 OFFCURVE",
"358 508 OFFCURVE",
"358 540 CURVE SMOOTH",
"358 572 OFFCURVE",
"332 598 OFFCURVE",
"300 598 CURVE SMOOTH",
"268 598 OFFCURVE",
"242 572 OFFCURVE",
"242 540 CURVE SMOOTH"
);
},
{
closed = 1;
nodes = (
"122 508 OFFCURVE",
"148 482 OFFCURVE",
"180 482 CURVE SMOOTH",
"212 482 OFFCURVE",
"238 508 OFFCURVE",
"238 540 CURVE SMOOTH",
"238 572 OFFCURVE",
"212 598 OFFCURVE",
"180 598 CURVE SMOOTH",
"148 598 OFFCURVE",
"122 572 OFFCURVE",
"122 540 CURVE SMOOTH"
);
},
{
closed = 1;
nodes = (
"62 388 OFFCURVE",
"88 362 OFFCURVE",
"120 362 CURVE SMOOTH",
"152 362 OFFCURVE",
"178 388 OFFCURVE",
"178 420 CURVE SMOOTH",
"178 452 OFFCURVE",
"152 478 OFFCURVE",
"120 478 CURVE SMOOTH",
"88 478 OFFCURVE",
"62 452 OFFCURVE",
"62 420 CURVE SMOOTH"
);
},
{
closed = 1;
nodes = (
"62 268 OFFCURVE",
"88 242 OFFCURVE",
"120 242 CURVE SMOOTH",
"152 242 OFFCURVE",
"178 268 OFFCURVE",
"178 300 CURVE SMOOTH",
"178 332 OFFCURVE",
"152 358 OFFCURVE",
"120 358 CURVE SMOOTH",
"88 358 OFFCURVE",
"62 332 OFFCURVE",
"62 300 CURVE SMOOTH"
);
},
{
closed = 1;
nodes = (
"362 568 OFFCURVE",
"388 542 OFFCURVE",
"420 542 CURVE SMOOTH",
"452 542 OFFCURVE",
"478 568 OFFCURVE",
"478 600 CURVE SMOOTH",
"478 632 OFFCURVE",
"452 658 OFFCURVE",
"420 658 CURVE SMOOTH",
"388 658 OFFCURVE",
"362 632 OFFCURVE",
"362 600 CURVE SMOOTH"
);
},
{
closed = 1;
nodes = (
"2 -32 OFFCURVE",
"28 -58 OFFCURVE",
"60 -58 CURVE SMOOTH",
"92 -58 OFFCURVE",
"118 -32 OFFCURVE",
"118 0 CURVE SMOOTH",
"118 32 OFFCURVE",
"92 58 OFFCURVE",
"60 58 CURVE SMOOTH",
"28 58 OFFCURVE",
"2 32 OFFCURVE",
"2 0 CURVE SMOOTH"
);
}
);
width = 480;
}
);
unicode = 00F8;
},
{
glyphname = oe;
layers = (
{
hints = (
{
horizontal = 1;
origin = "{11, 2}";
target = "{11, 8}";
type = Stem;
},
{
horizontal = 1;
origin = "{10, 2}";
target = "{10, 8}";
type = Stem;
},
{
horizontal = 1;
origin = "{8, 8}";
target = "{8, 2}";
type = Stem;
},
{
origin = "{12, 11}";
target = "{12, 5}";
type = Stem;
}
);
layerId = master01;
paths = (
{
closed = 1;
nodes = (
"242 28 OFFCURVE",
"268 2 OFFCURVE",
"300 2 CURVE SMOOTH",
"332 2 OFFCURVE",
"358 28 OFFCURVE",
"358 60 CURVE SMOOTH",
"358 92 OFFCURVE",
"332 118 OFFCURVE",
"300 118 CURVE SMOOTH",
"268 118 OFFCURVE",
"242 92 OFFCURVE",
"242 60 CURVE SMOOTH {name = hr00;}"
);
},
{
closed = 1;
nodes = (
"242 148 OFFCURVE",
"268 122 OFFCURVE",
"300 122 CURVE SMOOTH",
"332 122 OFFCURVE",
"358 148 OFFCURVE",
"358 180 CURVE SMOOTH",
"358 212 OFFCURVE",
"332 238 OFFCURVE",
"300 238 CURVE SMOOTH",
"268 238 OFFCURVE",
"242 212 OFFCURVE",
"242 180 CURVE SMOOTH"
);
},
{
closed = 1;
nodes = (
"242 268 OFFCURVE",
"268 242 OFFCURVE",
"300 242 CURVE SMOOTH",
"332 242 OFFCURVE",
"358 268 OFFCURVE",
"358 300 CURVE SMOOTH",
"358 332 OFFCURVE",
"332 358 OFFCURVE",
"300 358 CURVE SMOOTH",
"268 358 OFFCURVE",
"242 332 OFFCURVE",
"242 300 CURVE SMOOTH"
);
},
{
closed = 1;
nodes = (
"242 388 OFFCURVE",
"268 362 OFFCURVE",
"300 362 CURVE SMOOTH",
"332 362 OFFCURVE",
"358 388 OFFCURVE",
"358 420 CURVE SMOOTH",
"358 452 OFFCURVE",
"332 478 OFFCURVE",
"300 478 CURVE SMOOTH",
"268 478 OFFCURVE",
"242 452 OFFCURVE",
"242 420 CURVE SMOOTH"
);
},
{
closed = 1;
nodes = (
"242 508 OFFCURVE",
"268 482 OFFCURVE",
"300 482 CURVE SMOOTH",
"332 482 OFFCURVE",
"358 508 OFFCURVE",
"358 540 CURVE SMOOTH",
"358 572 OFFCURVE",
"332 598 OFFCURVE",
"300 598 CURVE SMOOTH",
"268 598 OFFCURVE",
"242 572 OFFCURVE",
"242 540 CURVE SMOOTH"
);
},
{
closed = 1;
nodes = (
"362 268 OFFCURVE",
"388 242 OFFCURVE",
"420 242 CURVE SMOOTH",
"452 242 OFFCURVE",
"478 268 OFFCURVE",
"478 300 CURVE SMOOTH",
"478 332 OFFCURVE",
"452 358 OFFCURVE",
"420 358 CURVE SMOOTH",
"388 358 OFFCURVE",
"362 332 OFFCURVE",
"362 300 CURVE SMOOTH"
);
},
{
closed = 1;
nodes = (
"362 508 OFFCURVE",
"388 482 OFFCURVE",
"420 482 CURVE SMOOTH",
"452 482 OFFCURVE",
"478 508 OFFCURVE",
"478 540 CURVE SMOOTH",
"478 572 OFFCURVE",
"452 598 OFFCURVE",
"420 598 CURVE SMOOTH",
"388 598 OFFCURVE",
"362 572 OFFCURVE",
"362 540 CURVE SMOOTH"
);
},
{
closed = 1;
nodes = (
"362 28 OFFCURVE",
"388 2 OFFCURVE",
"420 2 CURVE SMOOTH",
"452 2 OFFCURVE",
"478 28 OFFCURVE",
"478 60 CURVE SMOOTH",
"478 92 OFFCURVE",
"452 118 OFFCURVE",
"420 118 CURVE SMOOTH",
"388 118 OFFCURVE",
"362 92 OFFCURVE",
"362 60 CURVE SMOOTH"
);
},
{
closed = 1;
nodes = (
"122 508 OFFCURVE",
"148 482 OFFCURVE",
"180 482 CURVE SMOOTH",
"212 482 OFFCURVE",
"238 508 OFFCURVE",
"238 540 CURVE SMOOTH",
"238 572 OFFCURVE",
"212 598 OFFCURVE",
"180 598 CURVE SMOOTH",
"148 598 OFFCURVE",
"122 572 OFFCURVE",
"122 540 CURVE SMOOTH"
);
},
{
closed = 1;
nodes = (
"62 388 OFFCURVE",
"88 362 OFFCURVE",
"120 362 CURVE SMOOTH",
"152 362 OFFCURVE",
"178 388 OFFCURVE",
"178 420 CURVE SMOOTH",
"178 452 OFFCURVE",
"152 478 OFFCURVE",
"120 478 CURVE SMOOTH",
"88 478 OFFCURVE",
"62 452 OFFCURVE",
"62 420 CURVE SMOOTH"
);
},
{
closed = 1;
nodes = (
"62 268 OFFCURVE",
"88 242 OFFCURVE",
"120 242 CURVE SMOOTH",
"152 242 OFFCURVE",
"178 268 OFFCURVE",
"178 300 CURVE SMOOTH",
"178 332 OFFCURVE",
"152 358 OFFCURVE",
"120 358 CURVE SMOOTH",
"88 358 OFFCURVE",
"62 332 OFFCURVE",
"62 300 CURVE SMOOTH"
);
},
{
closed = 1;
nodes = (
"122 28 OFFCURVE",
"148 2 OFFCURVE",
"180 2 CURVE SMOOTH",
"212 2 OFFCURVE",
"238 28 OFFCURVE",
"238 60 CURVE SMOOTH",
"238 92 OFFCURVE",
"212 118 OFFCURVE",
"180 118 CURVE SMOOTH",
"148 118 OFFCURVE",
"122 92 OFFCURVE",
"122 60 CURVE SMOOTH"
);
},
{
closed = 1;
nodes = (
"62 148 OFFCURVE",
"88 122 OFFCURVE",
"120 122 CURVE SMOOTH",
"152 122 OFFCURVE",
"178 148 OFFCURVE",
"178 180 CURVE SMOOTH",
"178 212 OFFCURVE",
"152 238 OFFCURVE",
"120 238 CURVE SMOOTH",
"88 238 OFFCURVE",
"62 212 OFFCURVE",
"62 180 CURVE SMOOTH"
);
}
);
width = 540;
}
);
leftKerningGroup = o;
rightKerningGroup = e;
unicode = 0153;
},
{
glyphname = q;
layers = (
{
hints = (
{
horizontal = 1;
origin = "{10, 2}";
target = up;
type = BottomGhost;
},
{
horizontal = 1;
origin = "{1, 2}";
target = "{1, 8}";
type = Stem;
},
{
horizontal = 1;
origin = "{7, 8}";
target = "{7, 2}";
type = Stem;
},
{
origin = "{0, 11}";
target = "{0, 5}";
type = Stem;
},
{
origin = "{3, 5}";
target = "{3, 11}";
type = Stem;
}
);
layerId = master01;
paths = (
{
closed = 1;
nodes = (
"62 148 OFFCURVE",
"88 122 OFFCURVE",
"120 122 CURVE SMOOTH",
"152 122 OFFCURVE",
"178 148 OFFCURVE",
"178 180 CURVE SMOOTH",
"178 212 OFFCURVE",
"152 238 OFFCURVE",
"120 238 CURVE SMOOTH",
"88 238 OFFCURVE",
"62 212 OFFCURVE",
"62 180 CURVE SMOOTH {name = hr00;}"
);
},
{
closed = 1;
nodes = (
"122 28 OFFCURVE",
"148 2 OFFCURVE",
"180 2 CURVE SMOOTH",
"212 2 OFFCURVE",
"238 28 OFFCURVE",
"238 60 CURVE SMOOTH",
"238 92 OFFCURVE",
"212 118 OFFCURVE",
"180 118 CURVE SMOOTH",
"148 118 OFFCURVE",
"122 92 OFFCURVE",
"122 60 CURVE SMOOTH"
);
},
{
closed = 1;
nodes = (
"242 28 OFFCURVE",
"268 2 OFFCURVE",
"300 2 CURVE SMOOTH",
"332 2 OFFCURVE",
"358 28 OFFCURVE",
"358 60 CURVE SMOOTH",
"358 92 OFFCURVE",
"332 118 OFFCURVE",
"300 118 CURVE SMOOTH",
"268 118 OFFCURVE",
"242 92 OFFCURVE",
"242 60 CURVE SMOOTH"
);
},
{
closed = 1;
nodes = (
"302 148 OFFCURVE",
"328 122 OFFCURVE",
"360 122 CURVE SMOOTH",
"392 122 OFFCURVE",
"418 148 OFFCURVE",
"418 180 CURVE SMOOTH",
"418 212 OFFCURVE",
"392 238 OFFCURVE",
"360 238 CURVE SMOOTH",
"328 238 OFFCURVE",
"302 212 OFFCURVE",
"302 180 CURVE SMOOTH"
);
},
{
closed = 1;
nodes = (
"302 268 OFFCURVE",
"328 242 OFFCURVE",
"360 242 CURVE SMOOTH",
"392 242 OFFCURVE",
"418 268 OFFCURVE",
"418 300 CURVE SMOOTH",
"418 332 OFFCURVE",
"392 358 OFFCURVE",
"360 358 CURVE SMOOTH",
"328 358 OFFCURVE",
"302 332 OFFCURVE",
"302 300 CURVE SMOOTH"
);
},
{
closed = 1;
nodes = (
"302 388 OFFCURVE",
"328 362 OFFCURVE",
"360 362 CURVE SMOOTH",
"392 362 OFFCURVE",
"418 388 OFFCURVE",
"418 420 CURVE SMOOTH",
"418 452 OFFCURVE",
"392 478 OFFCURVE",
"360 478 CURVE SMOOTH",
"328 478 OFFCURVE",
"302 452 OFFCURVE",
"302 420 CURVE SMOOTH"
);
},
{
closed = 1;
nodes = (
"242 508 OFFCURVE",
"268 482 OFFCURVE",
"300 482 CURVE SMOOTH",
"332 482 OFFCURVE",
"358 508 OFFCURVE",
"358 540 CURVE SMOOTH",
"358 572 OFFCURVE",
"332 598 OFFCURVE",
"300 598 CURVE SMOOTH",
"268 598 OFFCURVE",
"242 572 OFFCURVE",
"242 540 CURVE SMOOTH"
);
},
{
closed = 1;
nodes = (
"122 508 OFFCURVE",
"148 482 OFFCURVE",
"180 482 CURVE SMOOTH",
"212 482 OFFCURVE",
"238 508 OFFCURVE",
"238 540 CURVE SMOOTH",
"238 572 OFFCURVE",
"212 598 OFFCURVE",
"180 598 CURVE SMOOTH",
"148 598 OFFCURVE",
"122 572 OFFCURVE",
"122 540 CURVE SMOOTH"
);
},
{
closed = 1;
nodes = (
"62 388 OFFCURVE",
"88 362 OFFCURVE",
"120 362 CURVE SMOOTH",
"152 362 OFFCURVE",
"178 388 OFFCURVE",
"178 420 CURVE SMOOTH",
"178 452 OFFCURVE",
"152 478 OFFCURVE",
"120 478 CURVE SMOOTH",
"88 478 OFFCURVE",
"62 452 OFFCURVE",
"62 420 CURVE SMOOTH"
);
},
{
closed = 1;
nodes = (
"62 268 OFFCURVE",
"88 242 OFFCURVE",
"120 242 CURVE SMOOTH",
"152 242 OFFCURVE",
"178 268 OFFCURVE",
"178 300 CURVE SMOOTH",
"178 332 OFFCURVE",
"152 358 OFFCURVE",
"120 358 CURVE SMOOTH",
"88 358 OFFCURVE",
"62 332 OFFCURVE",
"62 300 CURVE SMOOTH"
);
},
{
closed = 1;
nodes = (
"362 -32 OFFCURVE",
"388 -58 OFFCURVE",
"420 -58 CURVE SMOOTH",
"452 -58 OFFCURVE",
"478 -32 OFFCURVE",
"478 0 CURVE SMOOTH",
"478 32 OFFCURVE",
"452 58 OFFCURVE",
"420 58 CURVE SMOOTH",
"388 58 OFFCURVE",
"362 32 OFFCURVE",
"362 0 CURVE SMOOTH"
);
}
);
width = 480;
}
);
leftKerningGroup = o;
unicode = 0071;
},
{
glyphname = scaron;
layers = (
{
hints = (
{
horizontal = 1;
origin = "{0, 2}";
target = "{0, 8}";
type = Stem;
},
{
horizontal = 1;
origin = "{3, 8}";
target = "{3, 2}";
type = Stem;
},
{
horizontal = 1;
origin = "{8, 2}";
target = up;
type = BottomGhost;
},
{
horizontal = 1;
origin = "{9, 8}";
target = up;
type = BottomGhost;
},
{
origin = "{5, 11}";
target = "{5, 5}";
type = Stem;
},
{
origin = "{2, 5}";
target = "{2, 11}";
type = Stem;
}
);
layerId = master01;
paths = (
{
closed = 1;
nodes = (
"122 28 OFFCURVE",
"148 2 OFFCURVE",
"180 2 CURVE SMOOTH",
"212 2 OFFCURVE",
"238 28 OFFCURVE",
"238 60 CURVE SMOOTH",
"238 92 OFFCURVE",
"212 118 OFFCURVE",
"180 118 CURVE SMOOTH",
"148 118 OFFCURVE",
"122 92 OFFCURVE",
"122 60 CURVE SMOOTH {name = hr00;}"
);
},
{
closed = 1;
nodes = (
"242 28 OFFCURVE",
"268 2 OFFCURVE",
"300 2 CURVE SMOOTH",
"332 2 OFFCURVE",
"358 28 OFFCURVE",
"358 60 CURVE SMOOTH",
"358 92 OFFCURVE",
"332 118 OFFCURVE",
"300 118 CURVE SMOOTH",
"268 118 OFFCURVE",
"242 92 OFFCURVE",
"242 60 CURVE SMOOTH"
);
},
{
closed = 1;
nodes = (
"302 148 OFFCURVE",
"328 122 OFFCURVE",
"360 122 CURVE SMOOTH",
"392 122 OFFCURVE",
"418 148 OFFCURVE",
"418 180 CURVE SMOOTH",
"418 212 OFFCURVE",
"392 238 OFFCURVE",
"360 238 CURVE SMOOTH",
"328 238 OFFCURVE",
"302 212 OFFCURVE",
"302 180 CURVE SMOOTH"
);
},
{
closed = 1;
nodes = (
"122 388 OFFCURVE",
"148 362 OFFCURVE",
"180 362 CURVE SMOOTH",
"212 362 OFFCURVE",
"238 388 OFFCURVE",
"238 420 CURVE SMOOTH",
"238 452 OFFCURVE",
"212 478 OFFCURVE",
"180 478 CURVE SMOOTH",
"148 478 OFFCURVE",
"122 452 OFFCURVE",
"122 420 CURVE SMOOTH"
);
},
{
closed = 1;
nodes = (
"242 388 OFFCURVE",
"268 362 OFFCURVE",
"300 362 CURVE SMOOTH",
"332 362 OFFCURVE",
"358 388 OFFCURVE",
"358 420 CURVE SMOOTH",
"358 452 OFFCURVE",
"332 478 OFFCURVE",
"300 478 CURVE SMOOTH",
"268 478 OFFCURVE",
"242 452 OFFCURVE",
"242 420 CURVE SMOOTH"
);
},
{
closed = 1;
nodes = (
"62 268 OFFCURVE",
"88 242 OFFCURVE",
"120 242 CURVE SMOOTH",
"152 242 OFFCURVE",
"178 268 OFFCURVE",
"178 300 CURVE SMOOTH",
"178 332 OFFCURVE",
"152 358 OFFCURVE",
"120 358 CURVE SMOOTH",
"88 358 OFFCURVE",
"62 332 OFFCURVE",
"62 300 CURVE SMOOTH"
);
},
{
closed = 1;
nodes = (
"182 208 OFFCURVE",
"208 182 OFFCURVE",
"240 182 CURVE SMOOTH",
"272 182 OFFCURVE",
"298 208 OFFCURVE",
"298 240 CURVE SMOOTH",
"298 272 OFFCURVE",
"272 298 OFFCURVE",
"240 298 CURVE SMOOTH",
"208 298 OFFCURVE",
"182 272 OFFCURVE",
"182 240 CURVE SMOOTH"
);
},
{
closed = 1;
nodes = (
"302 628 OFFCURVE",
"328 602 OFFCURVE",
"360 602 CURVE SMOOTH",
"392 602 OFFCURVE",
"418 628 OFFCURVE",
"418 660 CURVE SMOOTH",
"418 692 OFFCURVE",
"392 718 OFFCURVE",
"360 718 CURVE SMOOTH",
"328 718 OFFCURVE",
"302 692 OFFCURVE",
"302 660 CURVE SMOOTH"
);
},
{
closed = 1;
nodes = (
"182 568 OFFCURVE",
"208 542 OFFCURVE",
"240 542 CURVE SMOOTH",
"272 542 OFFCURVE",
"298 568 OFFCURVE",
"298 600 CURVE SMOOTH",
"298 632 OFFCURVE",
"272 658 OFFCURVE",
"240 658 CURVE SMOOTH",
"208 658 OFFCURVE",
"182 632 OFFCURVE",
"182 600 CURVE SMOOTH"
);
},
{
closed = 1;
nodes = (
"62 628 OFFCURVE",
"88 602 OFFCURVE",
"120 602 CURVE SMOOTH",
"152 602 OFFCURVE",
"178 628 OFFCURVE",
"178 660 CURVE SMOOTH",
"178 692 OFFCURVE",
"152 718 OFFCURVE",
"120 718 CURVE SMOOTH",
"88 718 OFFCURVE",
"62 692 OFFCURVE",
"62 660 CURVE SMOOTH"
);
}
);
width = 480;
}
);
unicode = 0161;
},
